<svg width="20" height="20" viewBox="0 0 20 20" class="symbol symbol-leftBarButtonAscend icon"><g fill="none" fill-rule="evenodd"><path fill-rule="nonzero" d="M-3-3h26v26H-3z"></path><path fill="currentColor" d="M13 0a2 2 0 0 1 1.995 1.85L15 2v2h3a2 2 0 0 1 1.995 1.85L20 6v12a2 2 0 0 1-1.85 1.995L18 20H2a2 2 0 0 1-1.995-1.85L0 18V6a2 2 0 0 1 1.85-1.995L2 4h3V2A2 2 0 0 1 6.85.005L7 0h6zm0 2H7v2h6V2z"></path><path fill="currentColor" d="M10.88 8L14 16h-1.71l-.64-1.76H8.29L7.64 16H6l3.12-8h1.76zm-.92 1.69l-1.2 3.28h2.42L9.96 9.69z" class="icon-transparent icon-animation-1"></path><path fill="currentColor" d="M2 16h16v4H2z"></path></g></svg>