<svg width="26" height="26" viewBox="0 0 26 26" class="symbol symbol-leftBarButtonMedia icon"><defs><path id="path-3" d="M0 0h18v3H0z"></path></defs><g fill="none" fill-rule="evenodd"><path fill-rule="nonzero" d="M0 0h26v26H0z"></path><path fill="currentColor" fill-rule="nonzero" d="M21 5H5a2 2 0 0 0-2 2v12a2 2 0 0 0 2 2h16a2 2 0 0 0 2-2V7a2 2 0 0 0-2-2z"></path><path fill="currentColor" fill-rule="nonzero" d="M7.5 8a1.5 1.5 0 1 1 0 3 1.5 1.5 0 0 1 0-3z" class="icon-transparent icon-animation-1"></path><path fill="currentColor" d="M9.1 14h7.999a3 3 0 0 1 3 3v8a3 3 0 0 1-3 3h-8a3 3 0 0 1-3-3v-8a3 3 0 0 1 3-3z" class="icon-transparent icon-animation-2"></path><g transform="translate(4 18)"><mask id="mask-4" fill="#fff"><use xlink:href="#path-3"></use></mask><path fill="currentColor" d="M17 3H1a2 2 0 0 1-2-2v-12a2 2 0 0 1 2-2h16a2 2 0 0 1 2 2V1a2 2 0 0 1-2 2" mask="url(#mask-4)"></path></g><path fill="currentColor" d="M2 21h22v5H2z" class="icon-transparent"></path></g></svg>