<svg width="18" height="18" viewBox="0 0 18 18" class="symbol symbol-leftBarButtonAppMarket icon"><g fill="none" fill-rule="nonzero"><path d="M-4-4h26v26H-4z"></path><path fill="currentColor" d="M5.5 11A1.5 1.5 0 0 1 7 12.5v4A1.5 1.5 0 0 1 5.5 18h-4A1.5 1.5 0 0 1 0 16.5v-4A1.5 1.5 0 0 1 1.5 11h4z" class="icon-animation-3"></path><path fill="currentColor" d="M5.5 11A1.5 1.5 0 0 1 7 12.5v4A1.5 1.5 0 0 1 5.5 18h-4A1.5 1.5 0 0 1 0 16.5v-4A1.5 1.5 0 0 1 1.5 11h4z" class="icon-animation-3-back"></path><path fill="currentColor" d="M16.5 11a1.5 1.5 0 0 1 1.5 1.5v4a1.5 1.5 0 0 1-1.5 1.5h-4a1.5 1.5 0 0 1-1.5-1.5v-4a1.5 1.5 0 0 1 1.5-1.5h4z" class="icon-animation-4"></path><path fill="currentColor" d="M5.5 0A1.5 1.5 0 0 1 7 1.5v4A1.5 1.5 0 0 1 5.5 7h-4A1.5 1.5 0 0 1 0 5.5v-4A1.5 1.5 0 0 1 1.5 0h4z" class="icon-animation-1"></path><path fill="currentColor" d="M5.5 0A1.5 1.5 0 0 1 7 1.5v4A1.5 1.5 0 0 1 5.5 7h-4A1.5 1.5 0 0 1 0 5.5v-4A1.5 1.5 0 0 1 1.5 0h4z" class="icon-animation-1-back"></path><path fill="currentColor" d="M16.5 0A1.5 1.5 0 0 1 18 1.5v4A1.5 1.5 0 0 1 16.5 7h-4A1.5 1.5 0 0 1 11 5.5v-4A1.5 1.5 0 0 1 12.5 0h4z" class="icon-animation-2"></path></g></svg>