<svg width="269" height="152" viewBox="0 0 269 152" fill="none" xmlns="http://www.w3.org/2000/svg">
<path d="M251.039 140.082L6.33447 136.278C10.4352 92.7245 13.03 50.4977 12.6633 6.88135L254.795 10.2288C250.937 54.2211 251.349 96.9141 251.039 140.082Z" fill="#A88700"/>
<g filter="url(#filter0_d_437_1803)">
<path d="M251.055 139.646L6.35693 135.844C10.4521 92.2883 11.3546 49.1592 10.9879 5.5459L256.51 8.89036C252.652 52.8826 251.366 96.4779 251.055 139.646Z" fill="url(#paint0_linear_437_1803)"/>
</g>
<path d="M112.374 15.7388C112.374 15.7388 112.193 15.4801 111.973 15.1252C112.656 15.1342 113.113 14.8184 113.79 14.8245C113.908 15.1282 114.077 15.432 114.297 15.7388C113.654 15.7388 113.011 15.7388 112.374 15.7388ZM114.297 15.7388C114.077 15.432 113.908 15.1282 113.79 14.8245C130.717 14.8245 147.651 15.1403 164.573 14.9267C164.714 15.2034 164.889 15.4771 165.097 15.7388C148.164 15.7388 131.231 15.7388 114.297 15.7388ZM165.097 15.7388C164.889 15.4771 164.714 15.2034 164.573 14.9267C165.453 14.9147 166.519 15.1403 167.399 15.1192C167.5 15.4771 167.579 15.7388 167.579 15.7388C166.75 15.7388 165.921 15.7388 165.097 15.7388ZM111.973 15.1252C111.663 14.6049 111.274 13.8801 111.274 13.453C111.274 13.0169 110.885 11.5552 111.37 11.2063C112.374 10.4785 111.37 9.06489 111.37 8.37315C111.37 7.66636 112.154 6.68287 112.317 5.97909C112.481 5.25727 111.387 3.15194 111.37 2.4241C111.364 2.1444 111.545 1.69326 111.759 1.27219C112.396 1.26918 113.039 1.26918 113.683 1.26918C113.683 5.3475 112.267 10.9567 113.79 14.8245C113.113 14.8184 112.656 15.1342 111.973 15.1252ZM113.79 14.8245C112.267 10.9567 113.683 5.3475 113.683 1.26918C130.633 1.26618 147.639 1.38949 164.584 1.38949C166.733 5.43171 162.486 10.8695 164.573 14.9267C147.651 15.1403 130.717 14.8245 113.79 14.8245ZM164.573 14.9267C162.486 10.8695 166.733 5.43171 164.584 1.38949C165.413 1.38949 166.242 1.38949 167.072 1.38648C167.387 1.97898 167.596 2.59854 167.579 3.14894C167.562 3.66624 166.964 4.66477 167.032 5.18208C167.15 6.08737 167.387 7.61523 167.579 8.52052C167.675 8.97166 167.562 10.0995 167.579 10.5507C167.602 11.2635 167.015 12.671 167.032 13.3808C167.043 13.7658 167.246 14.5598 167.399 15.1192C166.519 15.1403 165.453 14.9147 164.573 14.9267ZM111.759 1.27219C112.041 0.706761 112.374 0.189453 112.374 0.189453C113 0.189453 113.626 0.189453 114.252 0.189453C114.252 0.192461 113.683 0.685708 113.683 1.26918C113.039 1.26918 112.396 1.26918 111.759 1.27219ZM113.683 1.26918C113.683 0.685708 114.252 0.192461 114.252 0.189453C130.779 0.189453 147.312 0.189453 163.839 0.189453C164.133 0.550366 164.358 0.962408 164.584 1.38949C147.639 1.38949 130.633 1.26618 113.683 1.26918ZM164.584 1.38949C164.358 0.962408 164.133 0.550366 163.839 0.189453C164.652 0.189453 165.458 0.189453 166.265 0.189453C166.564 0.553373 166.84 0.962407 167.072 1.38648C166.242 1.38949 165.413 1.38949 164.584 1.38949Z" fill="url(#paint1_linear_437_1803)"/>
<path d="M168.391 8.95364C168.205 8.05135 167.968 6.52348 167.85 5.61819C167.782 5.10088 168.38 4.10236 168.391 3.58505C168.408 3.03465 168.2 2.41509 167.884 1.82259C167.658 1.39851 167.376 0.989478 167.083 0.625557C166.998 0.493222 166.434 0.189453 166.265 0.189453C166.44 0.436077 166.93 1.12482 167.071 1.38648C167.387 1.97898 167.596 2.59855 167.579 3.14894C167.562 3.66625 166.964 4.66478 167.032 5.18209C167.15 6.08738 167.387 7.61525 167.579 8.52054C167.675 8.97168 167.562 10.0995 167.579 10.5507C167.602 11.2635 167.015 12.671 167.032 13.3808C167.043 13.7658 167.246 14.5598 167.399 15.1192C167.466 15.3568 167.523 15.5644 167.579 15.7388C166.75 15.7388 165.921 15.7388 165.092 15.7388C148.164 15.7388 131.231 15.7388 114.297 15.7388C113.835 15.7388 112.836 15.7388 112.374 15.7388C112.481 15.9102 112.752 16.0576 113.186 16.1749C113.829 16.1749 114.472 16.1749 115.115 16.1749C132.048 16.1749 148.976 16.1749 165.909 16.1749C166.739 16.1749 167.41 16.217 167.946 16.0696C168.267 15.9884 168.358 15.817 168.216 15.5553C167.918 15.011 167.861 14.2019 167.85 13.8169C167.827 13.1071 168.42 11.6996 168.391 10.9868C168.38 10.5356 168.487 9.40478 168.391 8.95364Z" fill="#D4CEBF"/>
<defs>
<filter id="filter0_d_437_1803" x="6.35693" y="5.5459" width="262.153" height="146.1" filterUnits="userSpaceOnUse" color-interpolation-filters="sRGB">
<feFlood flood-opacity="0" result="BackgroundImageFix"/>
<feColorMatrix in="SourceAlpha" type="matrix" values="0 0 0 0 0 0 0 0 0 0 0 0 0 0 0 0 0 0 127 0" result="hardAlpha"/>
<feOffset dx="8" dy="8"/>
<feGaussianBlur stdDeviation="2"/>
<feComposite in2="hardAlpha" operator="out"/>
<feColorMatrix type="matrix" values="0 0 0 0 0 0 0 0 0 0 0 0 0 0 0 0 0 0 0.25 0"/>
<feBlend mode="normal" in2="BackgroundImageFix" result="effect1_dropShadow_437_1803"/>
<feBlend mode="normal" in="SourceGraphic" in2="effect1_dropShadow_437_1803" result="shape"/>
</filter>
<linearGradient id="paint0_linear_437_1803" x1="58.9836" y1="18.1994" x2="110.597" y2="171.227" gradientUnits="userSpaceOnUse">
<stop stop-color="#FDCE04"/>
<stop offset="1" stop-color="#D5B221"/>
</linearGradient>
<linearGradient id="paint1_linear_437_1803" x1="112.605" y1="15.74" x2="112.605" y2="15.74" gradientUnits="userSpaceOnUse">
<stop stop-color="#F2ECDA"/>
<stop offset="1" stop-color="#F2ECDA"/>
</linearGradient>
</defs>
</svg>
