<svg width="64" height="64" viewBox="0 0 64 64" fill="none" xmlns="http://www.w3.org/2000/svg">
<path d="M16.6 54.8001V46.7001C16.6 45.9001 17.1 45.3001 17.8 45.0001L27.7 41.6001V36.1001" stroke="#2C2D40" stroke-width="2" stroke-miterlimit="10"/>
<path d="M47.5 54.8001V46.7001C47.5 45.9001 47 45.3001 46.3 45.0001L36.4 41.6001V36.1001" stroke="#2C2D40" stroke-width="2" stroke-miterlimit="10"/>
<path d="M24.6 24.7002L25.3 32.5002C25.4 33.7002 26.1 34.8002 27.2 35.3002L30.8 37.7002H33.2L36.9 35.3002C38 34.7002 38.7 33.7002 38.8 32.5002L39.5 24.7002" stroke="#2C2D40" stroke-width="2" stroke-miterlimit="10"/>
<path d="M36.5 41.7002L31 46.6002V54.8002" stroke="#2C2D40" stroke-width="2" stroke-miterlimit="10"/>
<path d="M27.6 41.7002L32 45.5002" stroke="#2C2D40" stroke-width="2" stroke-miterlimit="10"/>
<path d="M12.9 54.8003H51.1" stroke="#2C2D40" stroke-width="2" stroke-miterlimit="10"/>
<path d="M32.9 49.0002H34.7" stroke="#2C2D40" stroke-width="2" stroke-miterlimit="10"/>
<path d="M32.9 52.9001H34.7" stroke="#2C2D40" stroke-width="2" stroke-miterlimit="10"/>
<path d="M41.8 15.1001C41.8 13.1001 40.1 11.4001 38.1 11.4001C37.7 11.4001 37.3 11.5001 37 11.6001C36 10.1001 34.4 9.1001 32.5 9.1001C30.6 9.1001 29 10.1001 28 11.6001C27.6 11.5001 27.3 11.4001 26.9 11.4001C24.9 11.4001 23.2 13.1001 23.2 15.1001C23.2 17.7001 24.7 18.7001 24.7 18.7001V22.5001H39.6V18.7001C39.5 18.7001 41.8 17.7001 41.8 15.1001Z" stroke="#2C2D40" stroke-width="2" stroke-miterlimit="10"/>
<path d="M25 18.5H31" stroke="#2C2D40" stroke-width="2" stroke-miterlimit="10"/>
</svg>
