<svg width="255" height="287" viewBox="0 0 255 287" fill="none" xmlns="http://www.w3.org/2000/svg">
<g filter="url(#filter0_d_437_1750)">
<path d="M8.5553 278.137C67.6419 276.482 89.8138 273.562 118.371 268.3C145.613 263.279 216.345 240.491 234.392 219.615C250.704 200.761 247.111 85.7954 242.727 14.5227C160.696 18.1928 106.01 20.632 78.6644 21.8343C52.2069 22.9966 27.1049 25.0579 1.22428 27.7547C-0.500331 55.1919 -0.246542 83.2876 1.01663 111.332C2.26827 139.135 4.78308 194.737 8.5553 278.137Z" fill="#9F61F0"/>
<path d="M1.26477 27.4569C27.1454 24.7601 51.9475 22.7275 78.4049 21.5652C105.751 20.3628 160.517 17.9237 242.704 14.2478C242.71 14.3394 242.716 14.431 242.721 14.5226C236.902 14.786 118.665 20.0708 78.6645 21.8343C52.207 22.9966 27.1051 25.0578 1.2244 27.7546L1.26477 27.4569Z" fill="url(#paint0_linear_437_1750)"/>
<path d="M187.857 246.394C207.929 238.24 225.983 228.793 233.896 219.638C250.208 200.783 246.615 85.8183 242.231 14.5455L242.704 14.2478C247.093 85.5148 250.704 200.76 234.392 219.615C226.415 228.845 208.131 238.372 187.863 246.571L187.857 246.394Z" fill="#A88700"/>
<path d="M192.367 244.854C165.743 256.167 134.469 265.334 118.371 268.3C146.235 261.28 171.361 244.934 191 214.628L192.367 244.854Z" fill="#FCFCFC"/>
<path d="M191 214.628C205.166 221.407 225.273 227.997 233.164 220.457C233.62 220.021 234.231 219.758 234.658 219.277C234.571 219.386 234.485 219.512 234.392 219.615C227.01 228.158 210.802 237.021 192.367 244.854L191 214.628Z" fill="url(#paint1_linear_437_1750)"/>
<path d="M234.392 219.615C216.345 240.491 145.618 263.279 118.371 268.3C146.235 261.28 171.407 245.919 191.041 215.613C205.98 222.764 226.415 228.627 234.658 219.277C234.571 219.386 234.485 219.512 234.392 219.615Z" fill="url(#paint2_linear_437_1750)"/>
<path opacity="0.451" d="M94.3936 40.563C94.9819 53.5945 113.082 63.3739 134.815 62.4063C156.549 61.4387 173.697 50.0847 173.103 37.0532C172.514 24.0216 154.42 14.2422 132.681 15.2098C110.948 16.1775 93.8052 27.5257 94.3936 40.563Z" fill="#482C0B"/>
<path style="mix-blend-mode:multiply" opacity="0.251" d="M118.884 41.0152C118.884 43.8723 121.214 46.1855 124.092 46.1855C126.971 46.1855 129.301 43.8723 129.301 41.0152C129.301 38.1581 126.971 35.845 124.092 35.845C121.214 35.845 118.884 38.1581 118.884 41.0152Z" fill="url(#paint3_radial_437_1750)"/>
<path style="mix-blend-mode:screen" opacity="0.502" d="M113.883 46.1856C113.883 49.0427 116.219 51.3559 119.097 51.3559C121.97 51.3559 124.306 49.0427 124.306 46.1856C124.306 43.3285 121.97 41.0154 119.097 41.0154C116.219 41.0154 113.883 43.3285 113.883 46.1856Z" fill="url(#paint4_radial_437_1750)"/>
<path d="M119.928 44.2103C119.876 43.0651 120.764 42.1032 121.912 42.0517C123.066 42.0002 124.041 42.8819 124.092 44.0213C124.144 45.1664 123.25 46.1341 122.103 46.1856C120.949 46.2371 119.974 45.3497 119.928 44.2103Z" fill="url(#paint5_linear_437_1750)"/>
<path d="M107.815 31.0814L120.914 45.51C122.108 46.2944 124.162 44.4565 123.608 43.0995L110.509 28.6709L107.815 31.0814Z" fill="url(#paint6_linear_437_1750)"/>
<path style="mix-blend-mode:multiply" d="M107.815 31.0814L120.914 45.51C122.108 46.2944 124.162 44.4565 123.608 43.0995L110.509 28.6709L107.815 31.0814Z" fill="url(#paint7_linear_437_1750)"/>
<path d="M91.746 27.0676C91.1922 34.8087 97.0236 40.7977 104.781 40.4541C112.539 40.1106 119.276 33.5547 119.83 25.8137C120.389 18.0783 114.552 12.0836 106.794 12.4271C99.0366 12.7707 92.2997 19.3265 91.746 27.0676Z" fill="#8A0000"/>
<path d="M90.9732 27.2851C90.4138 35.0262 96.2509 41.0209 104.009 40.6716C111.767 40.3281 118.503 33.778 119.057 26.0369C119.617 18.2959 113.78 12.3011 106.022 12.6447C98.2639 12.9939 91.527 19.5441 90.9732 27.2851Z" fill="url(#paint8_radial_437_1750)"/>
<path d="M91.7691 27.2508C92.294 19.9506 98.6502 13.7727 105.964 13.4463C106.206 13.4349 106.437 13.4463 106.673 13.452C99.377 13.8013 93.0496 19.9678 92.5247 27.2508C92.0229 34.3105 97.1563 39.8071 104.112 39.8701C104.095 39.8701 104.084 39.8759 104.066 39.8759C96.7526 40.2022 91.25 34.551 91.7691 27.2508Z" fill="#F87979"/>
<path d="M84.0402 15.1753L98.8752 31.9514C103.42 36.4174 115.354 27.5427 110.861 21.9487L96.0201 5.17261L84.0402 15.1753Z" fill="url(#paint9_linear_437_1750)"/>
<path d="M110.647 21.754L95.9969 5.19551L96.02 5.17261L110.861 21.9487C116.023 27.5942 103.778 36.4174 98.8924 31.9686C103.599 35.9364 115.066 27.2621 110.647 21.754Z" fill="url(#paint10_linear_437_1750)"/>
<path d="M79.8237 12.0436C79.4026 17.9295 83.8439 22.4929 89.7445 22.2295C95.6451 21.9661 100.773 16.9791 101.194 11.0931C101.615 5.20143 97.1736 0.638097 91.273 0.901476C85.3724 1.16486 80.2447 6.15189 79.8237 12.0436Z" fill="#990000"/>
<path d="M80.0313 11.6312C79.6334 17.1679 83.8151 21.4621 89.3638 21.2102C94.9183 20.964 99.7403 16.2747 100.138 10.7323C100.536 5.19556 96.3545 0.901328 90.8058 1.14753C85.2513 1.39373 80.4293 6.08876 80.0313 11.6312Z" fill="url(#paint11_linear_437_1750)"/>
<path d="M80.5217 11.6082C80.9024 6.33493 85.4879 1.87466 90.7713 1.63991C91.0078 1.62846 91.2443 1.63991 91.4807 1.64564C86.2204 1.90329 81.6522 6.35211 81.2773 11.6082C80.9139 16.6354 84.5246 20.5746 89.4447 20.7177C89.4274 20.7177 89.4158 20.7177 89.3985 20.7235C84.1209 20.9582 80.1468 16.8758 80.5217 11.6082Z" fill="#FE9696"/>
<path d="M24.959 98.4668C25.041 98.4668 25.1641 98.4316 25.3281 98.3613C26.582 97.7988 27.6895 97.0371 28.6504 96.0762C29.6348 95.127 30.4902 94.0898 31.2168 92.9648C31.9551 91.8398 32.6055 90.6621 33.168 89.4316C33.6719 88.3652 34.1055 87.2344 34.4688 86.0391C31.6211 87.5039 29.1895 89.4316 27.1738 91.8223C26.6699 92.4316 26.2012 93.0645 25.7676 93.7207C25.3457 94.3887 25.0059 95.1035 24.748 95.8652C24.584 96.3105 24.502 96.7676 24.502 97.2363C24.502 97.5059 24.543 97.7754 24.625 98.0449C24.6719 98.1973 24.7188 98.3027 24.7656 98.3613C24.8125 98.4316 24.877 98.4668 24.959 98.4668ZM23.5 91.8047L23.6582 91.6289C24.7129 90.1641 25.9785 88.9219 27.4551 87.9023C29.7754 86.332 32.1895 84.9492 34.6973 83.7539C35.0254 83.5898 35.2188 83.3438 35.2773 83.0156C35.7344 80.7305 36.0098 78.4336 36.1035 76.125C36.1387 75.293 36.1562 74.4668 36.1562 73.6465C36.1562 72.6387 36.1152 71.6426 36.0332 70.6582C35.9512 69.6621 35.7988 68.6719 35.5762 67.6875C35.3418 66.3984 34.8379 65.2266 34.0645 64.1719C33.9121 63.9609 33.7246 63.8555 33.502 63.8555C33.4082 63.8555 33.3086 63.873 33.2031 63.9082C32.5234 64.1191 31.8906 64.4414 31.3047 64.875C30.0156 65.8477 28.9492 67.0371 28.1055 68.4434C26.7695 70.5996 25.75 72.8555 25.0469 75.2109C24.3438 77.5664 23.8809 79.998 23.6582 82.5059C23.4941 84.3809 23.4062 86.2559 23.3945 88.1309V91.7871L23.5 91.8047ZM24.8184 100.031C24.3613 100.031 23.8984 99.9727 23.4297 99.8555C22.1875 99.5977 21.5137 98.8359 21.4082 97.5703C21.4082 97.4883 21.3906 97.418 21.3555 97.3594C21.3203 97.3125 21.2559 97.2891 21.1621 97.2891C20.9395 97.2891 20.7871 97.2246 20.7051 97.0957C20.623 96.9668 20.5645 96.8145 20.5293 96.6387C20.3066 95.3262 20.1191 94.0137 19.9668 92.7012C19.709 90.5332 19.5098 88.3711 19.3691 86.2148C19.252 84.082 19.1934 81.9434 19.1934 79.7988V78.6035C19.2285 76.3066 19.3281 74.0156 19.4922 71.7305L19.5273 71.2031C19.6328 69.1523 19.9082 67.1309 20.3535 65.1387C20.459 64.7168 20.6055 64.418 20.793 64.2422C20.9922 64.0664 21.2734 63.9785 21.6367 63.9785L22.0059 63.9961C22.252 64.0078 22.4922 64.043 22.7266 64.1016C23.5586 64.2305 23.9805 64.7344 23.9922 65.6133V65.8945C23.9922 66.4336 23.9336 66.9727 23.8164 67.5117L23.7109 68.1445C23.6992 68.2617 23.6816 68.3789 23.6582 68.4961C23.6113 68.6836 23.5879 68.8652 23.5879 69.041C23.5879 69.1934 23.6172 69.3516 23.6758 69.5156C23.6875 69.5508 23.6934 69.5859 23.6934 69.6211C23.6934 69.7031 23.6523 69.7676 23.5703 69.8145C23.5 69.8496 23.4238 69.8672 23.3418 69.8672H23.1836C22.9844 69.8672 22.8613 69.9258 22.8145 70.043C22.7676 70.1602 22.7383 70.3066 22.7266 70.4824C22.7148 70.7871 22.6973 71.0918 22.6738 71.3965C22.6387 71.8418 22.6152 72.2871 22.6035 72.7324C22.627 72.6621 22.6562 72.5918 22.6914 72.5215C22.9141 71.9121 23.166 71.3086 23.4473 70.7109C23.9629 69.5273 24.5605 68.3965 25.2402 67.3184C25.9199 66.2402 26.7344 65.2559 27.6836 64.3652C28.2109 63.8613 28.7734 63.4219 29.3711 63.0469C29.9805 62.6719 30.6426 62.4023 31.3574 62.2383C31.6973 62.168 32.0547 62.1328 32.4297 62.1328C33.3086 62.1328 34.1816 62.3438 35.0488 62.7656C35.916 63.1875 36.625 63.8086 37.1758 64.6289C38.043 66.0469 38.582 67.5762 38.793 69.2168C39.0859 71.0684 39.2324 72.9199 39.2324 74.7715C39.2324 75.9199 39.1914 77.0625 39.1094 78.1992C39.0273 79.4297 38.8691 80.6895 38.6348 81.9785C39.5957 81.627 40.5332 81.3398 41.4473 81.1172C42.0566 80.9648 42.6719 80.8887 43.293 80.8887C43.6445 80.8887 44.002 80.918 44.3652 80.9766C44.752 81.0352 45.0977 81.1934 45.4023 81.4512C45.4609 81.498 45.5137 81.5508 45.5605 81.6094C45.6074 81.6562 45.6309 81.7148 45.6309 81.7852L45.6133 81.8906C45.5664 81.9727 45.502 82.0254 45.4199 82.0488C45.3496 82.0605 45.2734 82.0664 45.1914 82.0664L44.3477 82.0488C44.1602 82.0488 43.9727 82.0605 43.7852 82.084C42.3086 82.377 40.8906 82.834 39.5312 83.4551C39.4023 83.502 39.2734 83.5547 39.1445 83.6133C38.5117 83.8477 38.1191 84.3047 37.9668 84.9844C37.0176 88.9102 35.248 92.4199 32.6582 95.5137C31.1348 97.3652 29.2539 98.7305 27.0156 99.6094C26.2891 99.8906 25.5566 100.031 24.8184 100.031ZM47.2129 83.1387C47.2598 82.7988 47.2832 82.3887 47.2832 81.9082C47.2832 80.959 47.2129 79.9395 47.0723 78.8496C46.9434 77.748 46.7852 77.0098 46.5977 76.6348C46.3867 77.4785 46.2812 78.3105 46.2812 79.1309C46.2812 80.502 46.5918 81.8379 47.2129 83.1387ZM45.5781 94.2832L45.6836 94.1074C45.707 94.0605 45.7246 94.0137 45.7363 93.9668C45.7832 93.873 45.8184 93.7793 45.8418 93.6855C46.2285 92.4785 46.5039 91.2598 46.668 90.0293C46.8438 88.7988 46.9785 87.5566 47.0723 86.3027V86.25C47.0723 86.1914 47.0547 86.1504 47.0195 86.127C46.9844 86.0918 46.9375 86.0625 46.8789 86.0391C46.2695 85.7695 45.748 85.3828 45.3145 84.8789C45.3027 84.8672 45.291 84.8496 45.2793 84.8262C45.2676 84.8027 45.2441 84.7793 45.209 84.7559C45.1855 84.7207 45.1445 84.6973 45.0859 84.6855L45.0508 84.7559C44.6992 86.2793 44.5234 87.8203 44.5234 89.3789C44.5234 89.8711 44.541 90.3633 44.5762 90.8555C44.623 91.7578 44.8047 92.6367 45.1211 93.4922L45.1914 93.668C45.2734 93.8906 45.4023 94.0957 45.5781 94.2832ZM44.998 96.0586C44.8223 96.0586 44.6582 96.0469 44.5059 96.0234C43.8379 95.9062 43.3223 95.5664 42.959 95.0039C42.4902 94.2539 42.2031 93.4512 42.0977 92.5957C41.9219 91.459 41.834 90.3281 41.834 89.2031C41.834 86.6836 42.2852 84.2109 43.1875 81.7852C43.3047 81.4805 43.4453 81.1875 43.6094 80.9062C43.6562 80.8125 43.6797 80.7188 43.6797 80.625C43.6797 80.543 43.6738 80.4609 43.6621 80.3789C43.6504 80.332 43.6445 80.2852 43.6445 80.2383C43.6094 79.8398 43.5918 79.4473 43.5918 79.0605C43.5918 78.041 43.75 77.0332 44.0664 76.0371C44.1836 75.709 44.3418 75.4043 44.541 75.123C44.9512 74.5371 45.5371 74.2441 46.2988 74.2441C46.5098 74.2441 46.7266 74.2617 46.9492 74.2969C48.0977 74.4961 48.8359 75.123 49.1641 76.1777C49.4453 77.1035 49.6211 78.0527 49.6914 79.0254C49.7852 80.0215 49.832 81.0176 49.832 82.0137L49.8145 82.9277C49.8145 83.5723 49.8086 84.2168 49.7969 84.8613C49.7969 84.9551 49.8145 85.0195 49.8496 85.0547C49.8848 85.0898 49.9492 85.1133 50.043 85.125C50.2891 85.1367 50.5293 85.1426 50.7637 85.1426C51.8184 85.1426 52.8086 84.9727 53.7344 84.6328C54.6719 84.293 55.5332 83.7598 56.3184 83.0332C56.7051 82.6699 57.1621 82.4883 57.6895 82.4883C57.7832 82.4883 57.8711 82.5 57.9531 82.5234C58.0469 82.5352 58.1172 82.5879 58.1641 82.6816C58.1758 82.7168 58.1816 82.752 58.1816 82.7871C58.1816 82.8457 58.1641 82.8984 58.1289 82.9453C58.1055 82.9922 58.0762 83.0332 58.041 83.0684C58.0176 83.0801 58 83.0977 57.9883 83.1211C56.6641 84.4805 55.0703 85.3887 53.207 85.8457C52.1641 86.1387 51.1035 86.3086 50.0254 86.3555C49.8965 86.3672 49.8086 86.3965 49.7617 86.4434C49.7148 86.4902 49.6914 86.5723 49.6914 86.6895C49.6211 88.7402 49.3047 90.7559 48.7422 92.7363C48.5547 93.334 48.3086 93.9023 48.0039 94.4414C47.6641 95.0156 47.207 95.4258 46.6328 95.6719C46.0586 95.9297 45.5137 96.0586 44.998 96.0586ZM60.8008 96.2695C59.418 96.2695 58.2695 95.6484 57.3555 94.4062C56.4414 93.1641 55.8906 91.7871 55.7031 90.2754C55.5391 89.1387 55.457 88.0137 55.457 86.9004C55.457 83.3965 56.3301 80.0508 58.0762 76.8633C58.5918 75.9492 59.248 75.1406 60.0449 74.4375C60.8418 73.7227 61.668 73.3652 62.5234 73.3652C63.1797 73.3652 63.7949 73.5469 64.3691 73.9102C64.9434 74.2734 65.4355 74.7305 65.8457 75.2812C66.4902 76.1719 66.8125 77.0859 66.8125 78.0234C66.8125 78.8555 66.5957 79.6992 66.1621 80.5547C66.0801 80.6953 65.9512 80.7656 65.7754 80.7656C65.3301 80.7656 64.9199 80.6133 64.5449 80.3086C64.3691 80.1797 64.2812 80.0098 64.2812 79.7988L64.2988 79.6582C64.3574 79.3652 64.3867 79.0723 64.3867 78.7793C64.3867 78.2754 64.3281 77.7832 64.2109 77.3027C64.0938 76.8105 63.959 76.3242 63.8066 75.8438C63.7598 75.6445 63.6719 75.5449 63.543 75.5449C63.4844 75.5449 63.4023 75.5684 63.2969 75.6152C62.4766 76.0605 61.8027 76.6758 61.2754 77.4609C60.0684 79.2539 59.2773 81.2168 58.9023 83.3496C58.668 84.5449 58.5332 85.7812 58.498 87.0586V87.1465C58.498 88.6348 58.7617 90.0879 59.2891 91.5059C59.6406 92.4199 60.1973 93.1758 60.959 93.7734C61.0879 93.8789 61.2227 93.9668 61.3633 94.0371C61.7266 94.2363 62.0488 94.3359 62.3301 94.3359C62.7754 94.3359 63.1738 94.0781 63.5254 93.5625C63.877 93.0469 64.1523 92.5488 64.3516 92.0684C65.2891 90.1816 66.1855 88.418 67.041 86.7773L68.377 84.1582C68.8105 83.3613 69.2852 82.5938 69.8008 81.8555C69.9297 81.6797 70.123 81.5449 70.3809 81.4512C70.6504 81.3457 70.9199 81.293 71.1895 81.293C71.4707 81.293 71.7109 81.3516 71.9102 81.4688C72.0391 81.5508 72.1035 81.6504 72.1035 81.7676C72.1035 81.8379 72.0859 81.9082 72.0508 81.9785C71.207 83.584 70.4805 85.0957 69.8711 86.5137C69.2617 87.9199 68.5352 89.4258 67.6914 91.0312C67.0938 92.1211 66.3672 93.1172 65.5117 94.0195C64.1523 95.4727 62.582 96.2227 60.8008 96.2695ZM71.7344 84.1934C73.1875 83.7598 74.3125 82.8691 75.1094 81.5215C75.9883 80.0332 76.4277 78.627 76.4277 77.3027C76.4277 76.5762 76.3516 76.2129 76.1992 76.2129C76.1523 76.2129 76.0879 76.2305 76.0059 76.2656C75.3262 76.5703 74.7461 77.0098 74.2656 77.584C73.4688 78.5332 72.8945 79.5703 72.543 80.6953C72.1914 81.8086 71.9219 82.9746 71.7344 84.1934ZM73.4395 96.2168C72.7949 96.2168 72.2148 96.0703 71.6992 95.7773C70.6211 95.1797 69.8125 94.1426 69.2734 92.666C68.6992 91.0957 68.4121 89.3027 68.4121 87.2871C68.4121 86.373 68.459 85.4414 68.5527 84.4922C68.5527 84.293 68.5234 84.0996 68.4648 83.9121C68.3945 83.7246 68.3594 83.543 68.3594 83.3672C68.3594 83.1562 68.4883 82.9688 68.7461 82.8047C68.8047 82.7578 68.8457 82.6523 68.8691 82.4883C69.1621 80.625 69.7832 78.8789 70.7324 77.25C71.4473 75.9727 72.4609 75.0059 73.7734 74.3496C74.2539 74.127 74.7285 74.0156 75.1973 74.0156C75.7598 74.0156 76.3164 74.1621 76.8672 74.4551C77.6875 74.877 78.2969 75.4043 78.6953 76.0371C79.0938 76.6582 79.293 77.4258 79.293 78.3398C79.293 78.5977 79.2754 78.8672 79.2402 79.1484C78.9355 81.7734 77.6699 83.8066 75.4434 85.248C74.5176 85.834 73.5215 86.127 72.4551 86.127L71.8223 86.1094C71.6465 86.1094 71.5586 86.209 71.5586 86.4082V87.709C71.5586 89.0918 71.8105 90.4805 72.3145 91.875C72.6426 92.7891 73.1992 93.5273 73.9844 94.0898C74.1367 94.1953 74.3066 94.248 74.4941 94.248C75.4551 94.248 76.791 92.9121 78.502 90.2402C79.5918 88.5293 80.8867 86.2383 82.3867 83.3672C82.8906 82.418 83.2656 81.7266 83.5117 81.293C83.8047 80.8242 84.2559 80.5898 84.8652 80.5898C85.1113 80.5898 85.3457 80.6426 85.5684 80.748C85.709 80.8418 85.7793 80.9473 85.7793 81.0645C85.7793 81.1934 85.0879 82.6055 83.7051 85.3008L82.8965 86.9004C82.252 88.2598 81.5254 89.625 80.7168 90.9961C79.9082 92.3672 78.9473 93.5332 77.834 94.4941C76.6035 95.5723 75.1387 96.1465 73.4395 96.2168ZM87.2031 98.3789C88 97.875 88.7617 97.0195 89.4883 95.8125C90.2148 94.6172 90.5781 93.6445 90.5781 92.8945L90.543 92.6133C89.1719 94.3711 88.0586 96.293 87.2031 98.3789ZM86.9746 101.297C86.3184 101.297 85.6621 101.104 85.0059 100.717C84.3027 100.33 83.9512 99.7441 83.9512 98.959C83.9512 98.6895 83.9863 98.3965 84.0566 98.0801C84.2676 97.248 84.5605 96.4512 84.9355 95.6895C85.3105 94.9395 85.7148 94.207 86.1484 93.4922C86.9219 92.2148 87.7891 91.0078 88.75 89.8711C88.8555 89.7539 88.9082 89.6602 88.9082 89.5898C88.9082 89.4961 88.8203 89.4141 88.6445 89.3438C87.9766 89.0039 87.2617 88.7402 86.5 88.5527C85.7266 88.3652 84.959 88.0898 84.1973 87.7266C82.8496 87.0352 82.1758 86.0273 82.1758 84.7031C82.1758 84.3867 82.2109 84.0586 82.2812 83.7188C82.9023 80.8242 84.2441 78.3047 86.3066 76.1602C86.6699 75.7734 87.0801 75.457 87.5371 75.2109C88.0059 74.9531 88.4688 74.8242 88.9258 74.8242C89.4766 74.8242 90.0156 75.0117 90.543 75.3867C91.1289 75.7734 91.5566 76.1836 91.8262 76.6172C92.1074 77.0508 92.2656 77.625 92.3008 78.3398C92.3008 78.7031 92.2539 79.0664 92.1602 79.4297C91.8438 80.8242 91.2695 82.1074 90.4375 83.2793C90.2031 83.6309 89.9453 83.8066 89.6641 83.8066C89.5234 83.8066 89.3711 83.7715 89.207 83.7012C88.4922 83.3965 88.1348 82.9863 88.1348 82.4707L88.1523 82.2598C88.3281 81.4277 88.5684 80.6133 88.873 79.8164L88.9785 79.5C89.0137 79.418 89.043 79.3359 89.0664 79.2539C89.2891 78.7031 89.459 78.1113 89.5762 77.4785C88.9668 77.8652 88.4688 78.3164 88.082 78.832C86.6406 80.5898 85.6797 82.582 85.1992 84.8086C85.1523 85.0664 85.1289 85.3242 85.1289 85.582C85.1289 85.7812 85.1406 85.9805 85.1641 86.1797C85.1758 86.4844 85.3398 86.6777 85.6562 86.7598C87.1328 87.0879 88.5156 87.6094 89.8047 88.3242C89.875 88.3594 89.9336 88.377 89.9805 88.377C90.0273 88.377 90.0684 88.3652 90.1035 88.3418C90.1387 88.3184 90.1738 88.2832 90.209 88.2363L90.2441 88.2012C91.5449 86.7832 92.8867 85.4121 94.2695 84.0879L94.3398 84.0176C95.0547 83.3027 95.8281 82.5996 96.6602 81.9082C97.4922 81.2051 98.3711 80.6602 99.2969 80.2734C99.4023 80.2266 99.5078 80.2031 99.6133 80.2031C99.7539 80.2031 99.8887 80.25 100.018 80.3438C100.521 80.6484 100.82 81.082 100.914 81.6445C100.914 81.7734 100.85 81.873 100.721 81.9434C100.111 82.2832 99.5488 82.6758 99.0332 83.1211C98.5293 83.5664 98.043 84.0352 97.5742 84.5273C97.4336 84.6562 97.293 84.791 97.1523 84.9316C95.5469 86.5488 94.0234 88.2422 92.582 90.0117C92.4531 90.1406 92.3887 90.2754 92.3887 90.416C92.3887 90.5215 92.4355 90.6387 92.5293 90.7676C93.1855 91.6934 93.5137 92.6602 93.5137 93.668C93.5137 94.3477 93.3555 95.0449 93.0391 95.7598C92.1367 97.8223 90.7363 99.4746 88.8379 100.717C88.2168 101.104 87.5957 101.297 86.9746 101.297ZM108.279 93.9668C108.807 92.9473 109.229 91.9219 109.545 90.8906L110.283 88.7285C111.033 86.3145 111.918 83.9473 112.938 81.627C113.09 81.2637 113.166 80.9062 113.166 80.5547C113.166 80.1914 113.113 79.8223 113.008 79.4473C112.973 79.2715 112.908 79.1836 112.814 79.1836C112.744 79.1836 112.662 79.2246 112.568 79.3066C111.971 79.7051 111.461 80.1973 111.039 80.7832C108.824 83.9941 107.717 87.6152 107.717 91.6465C107.717 92.5254 107.904 93.2988 108.279 93.9668ZM119.459 97.1484C118.697 97.1484 118.152 96.8555 117.824 96.2695C117.32 95.3789 116.951 94.4355 116.717 93.4395C115.85 90.3457 115.416 87.3457 115.416 84.4395C115.381 84.4395 115.352 84.4336 115.328 84.4219C115.27 84.5977 115.188 84.7734 115.082 84.9492C114.379 86.2969 113.799 87.6914 113.342 89.1328C112.58 91.4766 111.771 93.2754 110.916 94.5293C110.131 95.5488 109.035 96.0586 107.629 96.0586C106.387 96.0586 105.549 95.5137 105.115 94.4238C104.74 93.4395 104.553 92.4375 104.553 91.418C104.717 87.8438 105.555 84.5215 107.066 81.4512C107.676 80.127 108.549 79.002 109.686 78.0762C110.447 77.502 111.221 77.2148 112.006 77.2148C112.721 77.2148 113.465 77.4258 114.238 77.8477C114.344 77.9062 114.426 77.9355 114.484 77.9355C114.578 77.9355 114.654 77.8535 114.713 77.6895C114.912 77.1973 115.146 76.7168 115.416 76.248C115.721 75.6855 115.873 75.1641 115.873 74.6836V74.5957C115.873 74.4316 115.885 74.2617 115.908 74.0859L116.172 71.9414C116.395 69.5859 116.787 67.2539 117.35 64.9453C117.783 63.3164 118.375 62.502 119.125 62.502C119.512 62.502 120.051 62.6953 120.742 63.082C121.328 63.4219 121.621 63.9434 121.621 64.6465C121.621 65.3027 121.568 65.9531 121.463 66.5977C120.9 70.0547 120.033 73.3887 118.861 76.5996C118.744 76.9863 118.686 77.3906 118.686 77.8125V77.918C118.686 78.0703 118.68 78.2168 118.668 78.3574C118.539 79.9746 118.475 81.5977 118.475 83.2266C118.475 87.293 119.096 91.0078 120.338 94.3711C120.385 94.5 120.473 94.6934 120.602 94.9512C120.66 95.1855 120.812 95.3027 121.059 95.3027L121.252 95.2852C121.346 95.2852 121.439 95.3027 121.533 95.3379L121.568 95.3555C121.768 95.4141 121.867 95.5195 121.867 95.6719C121.867 95.8477 121.75 96.0645 121.516 96.3223C120.895 96.873 120.209 97.1484 119.459 97.1484ZM126.578 93.9844C127.094 92.9883 127.504 92.0039 127.809 91.0312L127.844 90.9434L128.459 89.0801C129.244 86.5371 130.17 84.0527 131.236 81.627C131.389 81.2637 131.465 80.9062 131.465 80.5547C131.465 80.1914 131.412 79.8223 131.307 79.4473C131.271 79.2832 131.207 79.2012 131.113 79.2012C131.055 79.2012 130.979 79.2363 130.885 79.3066C130.311 79.7051 129.807 80.1855 129.373 80.748C128.389 82.0371 127.656 83.4727 127.176 85.0547C126.391 87.2695 125.998 89.2441 125.998 90.9785C125.998 91.4238 126.021 91.875 126.068 92.332C126.104 92.8711 126.273 93.4219 126.578 93.9844ZM138.109 96.1816C137.137 96.1816 136.352 95.8594 135.754 95.2148C133.867 93.0586 132.924 89.959 132.924 85.916C132.912 85.9043 132.883 85.8984 132.836 85.8984L131.236 90.3105C130.545 92.373 129.795 93.8789 128.986 94.8281C128.646 95.2266 128.219 95.5312 127.703 95.7422C127.141 95.9766 126.561 96.0938 125.963 96.0938L125.576 96.0762C124.545 95.959 123.824 95.4141 123.414 94.4414C123.051 93.6094 122.869 92.6133 122.869 91.4531C122.951 87.9961 123.783 84.6738 125.365 81.4863C125.963 80.1738 126.818 79.0605 127.932 78.1465C128.705 77.5371 129.502 77.2324 130.322 77.2324C131.025 77.2324 131.77 77.4492 132.555 77.8828C132.648 77.9297 132.725 77.9531 132.783 77.9531C132.889 77.9531 132.965 77.877 133.012 77.7246C133.363 76.916 133.768 76.1309 134.225 75.3691C134.506 74.8887 134.887 74.6484 135.367 74.6484C136.105 74.7305 136.709 74.9414 137.178 75.2812C137.482 75.4805 137.635 75.7383 137.635 76.0547C137.635 76.1367 137.623 76.2246 137.6 76.3184L136.738 80.1504C136.539 81.0879 136.375 82.0312 136.246 82.9805C136.129 83.9297 136.07 85.084 136.07 86.4434C136.07 88.3652 136.445 90.2168 137.195 91.998C137.512 92.7246 137.951 93.3867 138.514 93.9844C138.607 94.0781 138.684 94.125 138.742 94.125C138.824 94.125 138.889 94.043 138.936 93.8789C139.428 92.2852 139.832 90.6738 140.148 89.0449L140.166 88.9395L140.746 85.9863C141.039 84.3926 141.309 83.0566 141.555 81.9785C141.66 81.5566 141.912 81.3223 142.311 81.2754C142.439 81.252 142.592 81.2402 142.768 81.2402C143.072 81.2402 143.283 81.2754 143.4 81.3457C143.518 81.416 143.576 81.5449 143.576 81.7324C143.576 81.8496 143.559 81.9961 143.523 82.1719C143.383 83.0508 143.219 84.1816 143.031 85.5645C142.902 86.5371 142.756 87.5039 142.592 88.4648C142.369 89.6836 142 91.4414 141.484 93.7383C141.273 94.5234 140.84 95.127 140.184 95.5488C139.539 95.9707 138.848 96.1816 138.109 96.1816ZM155.863 97.8516C155.453 97.8516 155.154 97.6406 154.967 97.2188C154.545 96.3164 154.223 95.3789 154 94.4062C153.332 91.6992 152.816 88.9629 152.453 86.1973C152.09 83.7832 151.809 81.3633 151.609 78.9375C151.445 76.9102 151.328 74.8887 151.258 72.873C151.211 71.1738 151.188 69.4746 151.188 67.7754V65.7539C151.188 64.7344 151.182 63.7148 151.17 62.6953C151.17 62.3555 151.316 62.1445 151.609 62.0625C151.891 61.9805 152.172 61.9395 152.453 61.9395C152.992 61.9395 153.508 62.0977 154 62.4141C154.211 62.5898 154.316 62.8184 154.316 63.0996V69.832C154.328 73.0664 154.469 76.3066 154.738 79.5527C155.055 83.5488 155.617 87.5156 156.426 91.4531C156.449 91.5586 156.479 91.6699 156.514 91.7871H156.566C156.953 88.7402 157.428 85.7578 157.99 82.8398C158.553 79.9219 159.139 77.0215 159.748 74.1387C160.568 70.3418 161.33 66.4805 162.033 62.5547C162.092 62.1914 162.197 61.9336 162.35 61.7812C162.514 61.6289 162.777 61.5352 163.141 61.5H163.545C164.096 61.5 164.494 61.5996 164.74 61.7988C164.998 61.9863 165.127 62.3027 165.127 62.748C165.127 62.9238 165.109 63.1289 165.074 63.3633C163.914 70.1133 162.561 77.0566 161.014 84.1934C160.252 87.8145 159.525 91.3711 158.834 94.8633C158.717 95.5078 158.5 96.0703 158.184 96.5508C157.879 97.0312 157.416 97.3945 156.795 97.6406C156.771 97.6523 156.748 97.6582 156.725 97.6582C156.561 97.7285 156.391 97.7812 156.215 97.8164C156.086 97.8398 155.969 97.8516 155.863 97.8516ZM165.988 93.9844C166.504 92.9883 166.914 92.0039 167.219 91.0312L167.254 90.9434L167.869 89.0801C168.654 86.5371 169.58 84.0527 170.646 81.627C170.799 81.2637 170.875 80.9062 170.875 80.5547C170.875 80.1914 170.822 79.8223 170.717 79.4473C170.682 79.2832 170.617 79.2012 170.523 79.2012C170.465 79.2012 170.389 79.2363 170.295 79.3066C169.721 79.7051 169.217 80.1855 168.783 80.748C167.799 82.0371 167.066 83.4727 166.586 85.0547C165.801 87.2695 165.408 89.2441 165.408 90.9785C165.408 91.4238 165.432 91.875 165.479 92.332C165.514 92.8711 165.684 93.4219 165.988 93.9844ZM177.52 96.1816C176.547 96.1816 175.762 95.8594 175.164 95.2148C173.277 93.0586 172.334 89.959 172.334 85.916C172.322 85.9043 172.293 85.8984 172.246 85.8984L170.646 90.3105C169.955 92.373 169.205 93.8789 168.396 94.8281C168.057 95.2266 167.629 95.5312 167.113 95.7422C166.551 95.9766 165.971 96.0938 165.373 96.0938L164.986 96.0762C163.955 95.959 163.234 95.4141 162.824 94.4414C162.461 93.6094 162.279 92.6133 162.279 91.4531C162.361 87.9961 163.193 84.6738 164.775 81.4863C165.373 80.1738 166.229 79.0605 167.342 78.1465C168.115 77.5371 168.912 77.2324 169.732 77.2324C170.436 77.2324 171.18 77.4492 171.965 77.8828C172.059 77.9297 172.135 77.9531 172.193 77.9531C172.299 77.9531 172.375 77.877 172.422 77.7246C172.773 76.916 173.178 76.1309 173.635 75.3691C173.916 74.8887 174.297 74.6484 174.777 74.6484C175.516 74.7305 176.119 74.9414 176.588 75.2812C176.893 75.4805 177.045 75.7383 177.045 76.0547C177.045 76.1367 177.033 76.2246 177.01 76.3184L176.148 80.1504C175.949 81.0879 175.785 82.0312 175.656 82.9805C175.539 83.9297 175.48 85.084 175.48 86.4434C175.48 88.3652 175.855 90.2168 176.605 91.998C176.922 92.7246 177.361 93.3867 177.924 93.9844C178.018 94.0781 178.094 94.125 178.152 94.125C178.234 94.125 178.299 94.043 178.346 93.8789C178.838 92.2852 179.242 90.6738 179.559 89.0449L179.576 88.9395L180.156 85.9863C180.449 84.3926 180.719 83.0566 180.965 81.9785C181.07 81.5566 181.322 81.3223 181.721 81.2754C181.85 81.252 182.002 81.2402 182.178 81.2402C182.482 81.2402 182.693 81.2754 182.811 81.3457C182.928 81.416 182.986 81.5449 182.986 81.7324C182.986 81.8496 182.969 81.9961 182.934 82.1719C182.793 83.0508 182.629 84.1816 182.441 85.5645C182.312 86.5371 182.166 87.5039 182.002 88.4648C181.779 89.6836 181.41 91.4414 180.895 93.7383C180.684 94.5234 180.25 95.127 179.594 95.5488C178.949 95.9707 178.258 96.1816 177.52 96.1816ZM195.871 96.5684C194.793 96.5215 193.943 96.123 193.322 95.373C192.596 94.5176 192.127 93.4102 191.916 92.0508C191.752 90.9961 191.67 89.9414 191.67 88.8867C191.67 86.9883 191.887 84.3281 192.32 80.9062C192.637 78.4688 192.807 76.7988 192.83 75.8965L192.865 75.2988C192.314 75.7441 191.863 76.248 191.512 76.8105C190.047 78.9902 188.811 81.709 187.803 84.9668C187.229 86.9121 186.742 88.8809 186.344 90.873L186.027 92.2969C185.863 93.1055 185.635 93.8906 185.342 94.6523C185.154 95.0859 184.814 95.4434 184.322 95.7246C183.842 96.0059 183.355 96.1465 182.863 96.1465C182.172 96.1465 181.732 95.877 181.545 95.3379C181.029 93.8965 180.771 91.5938 180.771 88.4297C180.771 84.7969 181.076 81.5449 181.686 78.6738C181.756 78.2637 181.996 78.041 182.406 78.0059L182.811 77.9883C183.361 77.9883 183.877 78.1348 184.357 78.4277C184.639 78.5918 184.779 78.8203 184.779 79.1133C184.779 79.1953 184.768 79.2832 184.744 79.377C184.322 81.3809 184.07 83.3965 183.988 85.4238L183.971 85.8633L183.953 86.5312C183.953 86.7422 183.965 86.9531 183.988 87.1641L184.34 85.8633C185.23 82.3711 186.438 79.2891 187.961 76.6172C189.578 73.8398 191.043 72.4512 192.355 72.4512C192.637 72.4512 192.936 72.5039 193.252 72.6094C194.764 73.125 195.584 74.127 195.713 75.6152C195.748 76.0137 195.766 76.418 195.766 76.8281C195.766 77.9062 195.607 79.7402 195.291 82.3301C194.963 85.248 194.799 87.416 194.799 88.834V89.3789C194.799 90.6328 194.986 91.8457 195.361 93.0176C195.584 93.627 195.924 94.1543 196.381 94.5996C196.486 94.7051 196.586 94.7578 196.68 94.7578C196.785 94.7578 196.891 94.6875 196.996 94.5469C197.418 93.9727 197.781 93.3691 198.086 92.7363C199.738 89.3496 201.109 85.8457 202.199 82.2246C202.293 81.9668 202.469 81.7617 202.727 81.6094C202.996 81.4453 203.266 81.3633 203.535 81.3633C203.711 81.3633 203.863 81.4043 203.992 81.4863C204.133 81.5566 204.203 81.6504 204.203 81.7676C204.203 81.8496 204.191 81.9316 204.168 82.0137C203.137 86.2207 201.701 90.2227 199.861 94.0195C199.451 94.8398 198.895 95.4668 198.191 95.9004C197.5 96.3457 196.727 96.5684 195.871 96.5684ZM205.908 96.2344C205.498 96.2344 205.1 96.1406 204.713 95.9531C204.326 95.7656 203.963 95.4668 203.623 95.0566C202.92 94.166 202.428 93.0293 202.146 91.6465C201.865 90.252 201.725 88.7754 201.725 87.2168C201.725 85.4355 201.848 83.6895 202.094 81.9785C202.34 80.2676 202.604 78.8438 202.885 77.707L203.043 76.9512C203.102 76.7168 203.266 76.5762 203.535 76.5293C203.711 76.5059 203.881 76.4941 204.045 76.4941C204.736 76.4941 205.363 76.7051 205.926 77.127C206.055 77.2324 206.119 77.3672 206.119 77.5312L206.102 77.6895C205.785 78.8496 205.492 80.2852 205.223 81.9961C204.965 83.707 204.836 85.4297 204.836 87.1641C204.836 88.6055 204.971 89.9531 205.24 91.207C205.51 92.4609 205.973 93.4629 206.629 94.2129C206.676 94.2598 206.729 94.2832 206.787 94.2832C207.139 94.2832 207.748 93.791 208.615 92.8066C209.482 91.8105 210.438 90.6035 211.48 89.1855C212.535 87.7676 213.543 86.373 214.504 85.002C215.465 83.6191 215.975 82.8516 216.033 82.6992C216.373 82.207 216.602 81.8789 216.719 81.7148C216.836 81.5508 217.018 81.4277 217.264 81.3457C217.521 81.2637 217.779 81.2227 218.037 81.2227C218.33 81.2227 218.582 81.2812 218.793 81.3984C218.887 81.4805 218.934 81.5566 218.934 81.627C218.934 81.6738 218.916 81.7266 218.881 81.7852C218.857 81.832 218.828 81.8789 218.793 81.9258C218.582 82.2539 218.365 82.5879 218.143 82.9277C218.096 83.1035 217.779 83.625 217.193 84.4922C217.053 84.7148 216.848 85.0312 216.578 85.4414C216.191 86.0625 215.699 86.8301 215.102 87.7441C214.504 88.6465 213.836 89.5898 213.098 90.5742C212.359 91.5469 211.58 92.4609 210.76 93.3164C209.951 94.1719 209.131 94.8691 208.299 95.4082C207.479 95.959 206.682 96.2344 205.908 96.2344ZM205.557 74.8945C204.959 74.8711 204.443 74.6836 204.01 74.332C203.904 74.2383 203.834 74.1387 203.799 74.0332C203.775 73.9277 203.764 73.8164 203.764 73.6992V73.5762C203.834 72.8027 204.01 72.0527 204.291 71.3262C204.338 71.1855 204.414 71.0918 204.52 71.0449C204.637 70.9863 204.76 70.957 204.889 70.957H204.977C205.75 71.0039 206.4 71.2676 206.928 71.748C207.092 71.9004 207.174 72.0586 207.174 72.2227C207.174 72.3398 207.139 72.457 207.068 72.5742C206.67 73.2422 206.336 73.9277 206.066 74.6309C206.02 74.7363 205.949 74.8066 205.855 74.8418C205.762 74.877 205.662 74.8945 205.557 74.8945Z" fill="black"/>
</g>
<defs>
<filter id="filter0_d_437_1750" x="-3.05176e-05" y="0.890625" width="254.426" height="285.246" filterUnits="userSpaceOnUse" color-interpolation-filters="sRGB">
<feFlood flood-opacity="0" result="BackgroundImageFix"/>
<feColorMatrix in="SourceAlpha" type="matrix" values="0 0 0 0 0 0 0 0 0 0 0 0 0 0 0 0 0 0 127 0" result="hardAlpha"/>
<feOffset dx="4" dy="4"/>
<feGaussianBlur stdDeviation="2"/>
<feComposite in2="hardAlpha" operator="out"/>
<feColorMatrix type="matrix" values="0 0 0 0 0 0 0 0 0 0 0 0 0 0 0 0 0 0 0.25 0"/>
<feBlend mode="normal" in2="BackgroundImageFix" result="effect1_dropShadow_437_1750"/>
<feBlend mode="normal" in="SourceGraphic" in2="effect1_dropShadow_437_1750" result="shape"/>
</filter>
<linearGradient id="paint0_linear_437_1750" x1="242.719" y1="10.8113" x2="1.22382" y2="10.8113" gradientUnits="userSpaceOnUse">
<stop offset="0.786" stop-color="#DEB255"/>
<stop offset="1" stop-color="#C49E4A"/>
</linearGradient>
<linearGradient id="paint1_linear_437_1750" x1="239.04" y1="219.885" x2="224.455" y2="195.01" gradientUnits="userSpaceOnUse">
<stop offset="0.106" stop-color="#A88700"/>
<stop offset="0.47" stop-color="#FFD11C"/>
<stop offset="1" stop-color="#AB8A00"/>
</linearGradient>
<linearGradient id="paint2_linear_437_1750" x1="239.04" y1="219.885" x2="224.897" y2="195.764" gradientUnits="userSpaceOnUse">
<stop stop-color="#7FDED8"/>
<stop offset="0.141" stop-color="#00C9B1"/>
<stop offset="0.561" stop-color="#50EAFF"/>
<stop offset="0.947" stop-color="#A1FFF9"/>
</linearGradient>
<radialGradient id="paint3_radial_437_1750" cx="0" cy="0" r="1" gradientUnits="userSpaceOnUse" gradientTransform="translate(124.092 41.0141) scale(5.20959 5.17139)">
<stop stop-color="#5E3518"/>
<stop offset="1" stop-color="white"/>
</radialGradient>
<radialGradient id="paint4_radial_437_1750" cx="0" cy="0" r="1" gradientUnits="userSpaceOnUse" gradientTransform="translate(119.095 46.1862) scale(5.20959 5.1714)">
<stop stop-color="white"/>
<stop offset="1"/>
</radialGradient>
<linearGradient id="paint5_linear_437_1750" x1="119.265" y1="38.8339" x2="116.219" y2="42.1903" gradientUnits="userSpaceOnUse">
<stop stop-color="#2B2200"/>
<stop offset="1" stop-color="#99832A"/>
</linearGradient>
<linearGradient id="paint6_linear_437_1750" x1="123.464" y1="48.1466" x2="126.068" y2="45.7829" gradientUnits="userSpaceOnUse">
<stop offset="0.002" stop-color="#696969"/>
<stop offset="0.258" stop-color="#FCFCFC"/>
<stop offset="0.551" stop-color="#D4D4D4"/>
<stop offset="0.778" stop-color="#434343"/>
<stop offset="1" stop-color="#A8A8A8"/>
</linearGradient>
<linearGradient id="paint7_linear_437_1750" x1="121.097" y1="36.4085" x2="115.528" y2="30.1812" gradientUnits="userSpaceOnUse">
<stop stop-color="white"/>
<stop offset="1"/>
</linearGradient>
<radialGradient id="paint8_radial_437_1750" cx="0" cy="0" r="1" gradientUnits="userSpaceOnUse" gradientTransform="translate(100.255 25.4283) scale(25.5992 25.4115)">
<stop offset="0.002" stop-color="#FF5555"/>
<stop offset="0.423" stop-color="#990000"/>
<stop offset="0.531" stop-color="#A80000"/>
<stop offset="0.667" stop-color="#DD3636"/>
<stop offset="0.833" stop-color="#8C0000"/>
</radialGradient>
<linearGradient id="paint9_linear_437_1750" x1="92.35" y1="2.35617" x2="81.3393" y2="12.5444" gradientUnits="userSpaceOnUse">
<stop stop-color="#B40000"/>
<stop offset="0.248" stop-color="#920000"/>
<stop offset="0.576" stop-color="#B40000"/>
<stop offset="0.869" stop-color="#FF8484"/>
<stop offset="0.998" stop-color="#AD2828"/>
</linearGradient>
<linearGradient id="paint10_linear_437_1750" x1="94.1333" y1="3.40625" x2="84.6374" y2="12.1926" gradientUnits="userSpaceOnUse">
<stop stop-color="#900000"/>
<stop offset="0.248" stop-color="#750000"/>
<stop offset="0.576" stop-color="#900000"/>
<stop offset="0.869" stop-color="#DE5757"/>
<stop offset="0.998" stop-color="#9E0C0C"/>
</linearGradient>
<linearGradient id="paint11_linear_437_1750" x1="88.5304" y1="-5.71465" x2="73.4864" y2="8.20585" gradientUnits="userSpaceOnUse">
<stop stop-color="#D10606"/>
<stop offset="0.998" stop-color="#FC5959"/>
</linearGradient>
</defs>
</svg>
