<svg width="161" height="112" viewBox="0 0 161 112" fill="none" xmlns="http://www.w3.org/2000/svg">
<path d="M72.3516 22.9453C71.6719 22.9453 70.998 22.8457 70.3301 22.6465C68.7715 22.1543 67.4414 21.0938 66.3398 19.4648C65.8359 18.7617 65.4082 17.9355 65.0566 16.9863C64.4707 15.3809 64.1777 13.6816 64.1777 11.8887C64.1777 11.2207 64.2363 10.4883 64.3535 9.69141C64.4941 8.71875 64.7227 7.80469 65.0391 6.94922C65.5898 5.57812 66.252 4.50586 67.0254 3.73242C67.5527 3.22852 68.1328 2.81836 68.7656 2.50195C69.7031 2.11523 70.6699 1.92188 71.666 1.92188C73.1309 1.92188 74.5371 2.20898 75.8848 2.7832C76.8105 3.22852 77.6895 3.99609 78.5215 5.08594C78.9785 5.67187 79.3828 6.36914 79.7344 7.17773C80.0156 7.85742 80.2324 8.64258 80.3848 9.5332C80.5137 10.2832 80.5781 11.127 80.5781 12.0645C80.543 13.3184 80.3262 14.5605 79.9277 15.791C79.4238 17.4082 78.6562 18.8555 77.625 20.1328C77.5898 20.168 77.5605 20.209 77.5371 20.2559C76.6465 21.2402 75.7793 21.9375 74.9355 22.3477C74.1035 22.7461 73.2422 22.9453 72.3516 22.9453ZM72.2812 19.5879C73.1367 19.5879 73.957 19.1426 74.7422 18.252C75.1055 17.8535 75.4453 17.3672 75.7617 16.793C76.1016 16.1484 76.3418 15.6094 76.4824 15.1758L76.5703 14.9121C76.8047 14.1855 76.9629 13.5234 77.0449 12.9258C77.0918 12.5039 77.1152 12.0703 77.1152 11.625C77.1152 11.0508 77.0625 10.5059 76.957 9.99023C76.8867 9.47461 76.7344 8.94727 76.5 8.4082L76.4297 8.25C75.9258 7.13672 75.252 6.30469 74.4082 5.75391C73.5645 5.27344 72.6738 5.0332 71.7363 5.0332C70.6582 5.0332 69.668 5.72461 68.7656 7.10742C68.4844 7.59961 68.25 8.18555 68.0625 8.86523C67.957 9.28711 67.8633 9.70898 67.7812 10.1309C67.6992 10.6699 67.6582 11.2676 67.6582 11.9238C67.6582 12.8965 67.7812 13.8926 68.0273 14.9121C68.2266 15.6387 68.5078 16.3242 68.8711 16.9688C69.9141 18.7148 71.0508 19.5879 72.2812 19.5879ZM83.4082 21.9258H82.9863C82.7285 21.9258 82.4473 21.4805 82.1426 20.5898C82.0488 20.1445 81.9609 19.6934 81.8789 19.2363C81.7969 18.7793 81.7148 18.3164 81.6328 17.8477C81.5508 17.3789 81.4805 16.9043 81.4219 16.4238C81.2461 14.8887 81.1406 13.8457 81.1055 13.2949C81 11.8887 80.9473 10.5059 80.9473 9.14648C80.9473 8.41992 80.959 7.80469 80.9824 7.30078V6.79102C81.0176 5.91211 81.0527 5.0332 81.0879 4.1543L81.1582 3.11719C81.1582 2.88281 81.1816 2.60156 81.2285 2.27344C81.2871 1.93359 81.4805 1.6582 81.8086 1.44727C82.1719 1.22461 82.582 1.11328 83.0391 1.11328C83.3906 1.11328 83.707 1.20117 83.9883 1.37695C84.2695 1.54102 84.4102 1.83398 84.4102 2.25586C84.457 2.80664 84.4805 3.09961 84.4805 3.13477C84.4922 3.1582 84.5156 3.50391 84.5508 4.17188L84.5684 5.78906V6.1582V7.33594V10.7637C84.5684 11.4316 84.5801 12.0938 84.6035 12.75L84.6211 13.7871L84.6562 14.7188C84.6562 15.1172 84.668 15.5156 84.6914 15.9141L84.7617 17.6016C84.7617 17.9766 84.8086 18.7734 84.9023 19.9922L84.9199 20.5371C84.9199 20.9238 84.9082 21.1641 84.8848 21.2578C84.4043 21.7031 83.9121 21.9258 83.4082 21.9258ZM89.7363 5.01562C89.127 5.01562 88.6289 4.78711 88.2422 4.33008C88.125 4.20117 88.0664 4.06641 88.0664 3.92578C88.0664 3.71484 88.2422 3.47461 88.5938 3.20508L88.6113 3.16992C88.9863 2.91211 89.2324 2.74219 89.3496 2.66016C89.4668 2.56641 89.5898 2.48438 89.7188 2.41406L89.7715 2.36133C89.8887 2.30273 90.0293 2.21484 90.1934 2.09766L90.7734 1.74609C90.9375 1.62891 91.1074 1.52344 91.2832 1.42969C91.3418 1.39453 91.3945 1.36523 91.4414 1.3418C91.4883 1.30664 91.6348 1.21289 91.8809 1.06055C92.127 0.908203 92.3203 0.796875 92.4609 0.726562L93.041 0.392578C93.1582 0.357422 93.2812 0.339844 93.4102 0.339844C93.9023 0.386719 94.3184 0.603516 94.6582 0.990234C94.834 1.18945 94.9219 1.39453 94.9219 1.60547C94.9219 1.80469 94.8457 2.00977 94.6934 2.2207C94.5176 2.33789 94.3945 2.41406 94.3242 2.44922C94.2656 2.48438 94.2012 2.52539 94.1309 2.57227C93.9785 2.64258 93.8555 2.70703 93.7617 2.76562C93.6797 2.82422 93.4688 2.95313 93.1289 3.15234L91.8984 3.89062C91.8398 3.9375 91.7754 3.98437 91.7051 4.03125C91.6348 4.06641 91.5645 4.10742 91.4941 4.1543C91.377 4.21289 91.2363 4.30078 91.0723 4.41797L90.5098 4.75195C90.2871 4.92773 90.0293 5.01562 89.7363 5.01562ZM96.082 24.5977C95.9883 24.5977 95.9004 24.5918 95.8184 24.5801C95.7363 24.5684 95.6074 24.4746 95.4316 24.2988L95.2383 24.0352C95.0156 23.707 94.8047 23.2148 94.6055 22.5586L94.5527 22.3652C94.3887 21.7793 94.2598 21.1699 94.166 20.5371C94.0488 19.7871 93.9902 19.3008 93.9902 19.0781L93.9551 18.832C93.8613 19.0195 93.5742 19.3828 93.0938 19.9219C92.5898 20.4258 92.1211 20.8008 91.6875 21.0469H91.6699C91.0605 21.3984 90.416 21.5742 89.7363 21.5742C88.7051 21.5742 87.8379 21.1875 87.1348 20.4141C86.2676 19.5 85.834 18.1348 85.834 16.3184C85.9277 14.5137 86.4492 12.8555 87.3984 11.3438C87.8555 10.5938 88.3828 9.95508 88.9805 9.42773C88.9805 9.41602 88.9863 9.41016 88.998 9.41016C89.2676 9.17578 89.5547 8.95898 89.8594 8.75977C90.4219 8.41992 91.0254 8.19141 91.6699 8.07422C91.998 8.02734 92.3262 8.00391 92.6543 8.00391C93.4043 8.00391 94.043 8.17969 94.5703 8.53125C94.6875 8.58984 94.834 8.70703 95.0098 8.88281C95.0098 8.89453 95.0156 8.90039 95.0273 8.90039C95.3086 9.20508 95.4492 9.50977 95.4492 9.81445C95.4492 9.9668 95.4375 10.0664 95.4141 10.1133C95.3906 10.1602 95.3555 10.2129 95.3086 10.2715C95.0977 10.5176 94.5293 10.6406 93.6035 10.6406H93.375C92.7773 10.6406 92.2324 10.7227 91.7402 10.8867C91.0957 11.25 90.5156 11.8242 90 12.6094C89.2617 13.8398 88.8691 15.1055 88.8223 16.4062C88.8223 16.9453 88.9043 17.4375 89.0684 17.8828C89.2441 18.3867 89.5137 18.6387 89.877 18.6387C90.2051 18.6387 90.6973 18.3398 91.3535 17.7422L91.8281 17.25C91.8867 17.1914 92.0332 17.0215 92.2676 16.7402C92.502 16.4473 92.7656 16.125 93.0586 15.7734C93.1641 15.6094 93.2812 15.4512 93.4102 15.2988L93.9375 14.5254C93.9375 14.3848 93.9492 14.2383 93.9727 14.0859L94.0078 13.8926C94.0547 13.5527 94.1191 13.2363 94.2012 12.9434C94.2129 12.9316 94.2188 12.9141 94.2188 12.8906L94.3594 12.6445C94.4766 12.4219 94.7461 12.3105 95.168 12.3105C95.2852 12.3105 95.4316 12.3223 95.6074 12.3457C96.041 12.416 96.2578 12.5625 96.2578 12.7852L96.2402 12.8906C96.2402 12.9023 96.2461 12.9141 96.2578 12.9258C96.2695 12.9258 96.3047 12.9551 96.3633 13.0137C96.4102 13.0957 96.4336 13.2305 96.4336 13.418L96.416 13.6289V14.6484L96.3984 15.0352C96.3984 15.8906 96.4043 16.4297 96.416 16.6523C96.416 17.1562 96.4395 17.6426 96.4863 18.1113C96.5332 18.791 96.6152 19.4941 96.7324 20.2207L96.7676 20.502L96.8906 21.1699L96.9258 21.293C96.9961 21.668 97.1074 22.1191 97.2598 22.6465L97.3125 22.8398C97.3945 23.0273 97.4414 23.2207 97.4531 23.4199C97.4531 23.8652 97.2773 24.1875 96.9258 24.3867C96.668 24.5273 96.3867 24.5977 96.082 24.5977ZM93.4277 12.7148C93.416 12.7031 93.3984 12.6973 93.375 12.6973C93.3633 12.6973 93.3516 12.6973 93.3398 12.6973C93.3281 12.6973 93.3223 12.6914 93.3223 12.6797C93.334 12.6562 93.3516 12.6387 93.375 12.627C93.3867 12.627 93.3926 12.6328 93.3926 12.6445C93.4043 12.6445 93.4102 12.6504 93.4102 12.6621C93.4102 12.6621 93.4102 12.668 93.4102 12.6797C93.4219 12.6914 93.4277 12.7031 93.4277 12.7148ZM19.3359 62.0996C18.6562 62.0996 17.9766 61.9531 17.2969 61.6602C16.5586 61.332 15.9434 60.834 15.4512 60.166C14.666 59.0293 14.2734 57.5762 14.2734 55.8066C14.2734 54.7402 14.4023 53.6973 14.6602 52.6777C14.918 51.7285 15.2461 50.9023 15.6445 50.1992C16.0547 49.4961 16.5586 48.8516 17.1562 48.2656C17.7656 47.668 18.4043 47.1934 19.0723 46.8418C19.752 46.4902 20.4199 46.2734 21.0762 46.1914H22.0605C22.377 46.2031 22.6934 46.2559 23.0098 46.3496C24.2988 46.8301 25.125 47.7207 25.4883 49.0215C25.6055 49.4199 25.6641 49.8594 25.6641 50.3398C25.6641 51.1484 25.4883 51.9277 25.1367 52.6777C24.8906 53.252 24.5098 53.8496 23.9941 54.4707C23.8887 54.6348 23.6426 54.8984 23.2559 55.2617C21.9785 56.375 20.7129 57.1484 19.459 57.582C18.8262 57.793 18.2461 57.9102 17.7188 57.9336C17.7305 57.9453 17.7422 57.9688 17.7539 58.0039C17.7656 58.0391 17.7773 58.0801 17.7891 58.127C17.8828 58.3262 18.0059 58.5137 18.1582 58.6895C18.5566 59.1348 18.9844 59.3574 19.4414 59.3574C19.8867 59.3574 20.3203 59.2344 20.7422 58.9883C20.9883 58.8594 21.2227 58.7246 21.4453 58.584C21.8086 58.3496 22.0195 58.2031 22.0781 58.1445C22.4297 57.8281 22.793 57.5703 23.168 57.3711L23.291 57.3008C23.4785 57.2656 23.6602 57.248 23.8359 57.248C24.082 57.248 24.3457 57.3008 24.627 57.4062C24.9199 57.5 25.0957 57.8164 25.1543 58.3555C25.084 58.6484 24.9609 58.9238 24.7852 59.1816C24.6211 59.4395 24.4219 59.6738 24.1875 59.8848C23.0977 60.8691 21.8555 61.5664 20.4609 61.9766C20.0859 62.0586 19.7109 62.0996 19.3359 62.0996ZM17.3496 55.877C17.373 55.877 17.3906 55.8711 17.4023 55.8594C17.5195 55.8594 17.7715 55.7891 18.1582 55.6484C19.1074 55.25 20.0918 54.5703 21.1113 53.6094C21.5332 53.1758 21.8672 52.7656 22.1133 52.3789C22.4883 51.6992 22.6816 51.0664 22.6934 50.4805C22.6934 50.1289 22.5879 49.7598 22.377 49.373C22.2715 49.209 22.1484 49.1094 22.0078 49.0742H22.0781H21.7441H21.9902C21.8848 49.0391 21.7383 49.0215 21.5508 49.0215C21.3516 49.0449 21.252 49.0625 21.252 49.0742H21.7441C21.3223 49.0742 20.8242 49.2559 20.25 49.6191C19.2188 50.3223 18.4629 51.248 17.9824 52.3965C17.5605 53.3926 17.3496 54.5527 17.3496 55.877ZM31.7637 62.3457C30.6504 62.3457 29.6367 62.0176 28.7227 61.3613C28.1602 60.8926 27.6797 60.3301 27.2812 59.6738L27.123 59.375C26.666 58.5781 26.332 57.5703 26.1211 56.3516C26.0742 55.918 26.0391 55.4902 26.0156 55.0684C26.0156 54.1426 26.0918 53.2988 26.2441 52.5371C26.4199 51.5527 26.7715 50.4863 27.2988 49.3379C27.7441 48.4473 28.1367 47.8438 28.4766 47.5273C28.5586 47.4688 28.6699 47.4395 28.8105 47.4395C29.2441 47.4395 29.7246 47.6387 30.252 48.0371C30.791 48.4238 31.0605 48.8105 31.0605 49.1973C31.0605 49.3965 30.9727 49.5957 30.7969 49.7949C30.5742 50.2988 30.3867 50.8613 30.2344 51.4824C30.0586 52.209 29.9531 52.9238 29.918 53.627L29.9004 54.2246C29.9004 54.8574 29.9531 55.4082 30.0586 55.877C30.1406 56.3926 30.2109 56.6797 30.2695 56.7383C30.4688 57.3242 30.6621 57.7871 30.8496 58.127C31.2598 58.7832 31.7168 59.1113 32.2207 59.1113C32.666 59.1113 33.2227 58.8066 33.8906 58.1973C34.2188 57.8457 34.4766 57.4883 34.6641 57.125C34.8984 56.7266 35.0742 56.2988 35.1914 55.8418C35.3789 55.2324 35.4727 54.6172 35.4727 53.9961C35.4727 53.457 35.4316 52.9004 35.3496 52.3262L35.332 52.2734C35.25 51.7812 35.1211 51.2656 34.9453 50.7266C34.7461 50.0938 34.5762 49.6309 34.4355 49.3379L34.2598 48.9688C34.1426 48.7578 34.084 48.582 34.084 48.4414C34.084 48.0664 34.2422 47.7559 34.5586 47.5098C34.875 47.252 35.2617 47.123 35.7188 47.123C36.5391 47.123 36.9961 47.5449 37.0898 48.3887L37.3887 49.2324L37.6523 50.1289C37.9336 51.3008 38.0977 52.1973 38.1445 52.8184L38.1973 54.0488C38.1973 54.8105 38.0801 55.6191 37.8457 56.4746L37.5645 57.3359L37.4766 57.5469C37.1836 58.2969 36.7793 59.0117 36.2637 59.6914C35.4316 60.793 34.5117 61.5547 33.5039 61.9766C32.9414 62.2227 32.3613 62.3457 31.7637 62.3457ZM50.0273 63.5938C48.6914 63.5938 47.5137 63.2363 46.4941 62.5215C45.9551 62.1465 45.5215 61.7305 45.1934 61.2734C44.8301 60.7227 44.6367 60.1777 44.6133 59.6387C44.7656 58.9355 45.0762 58.584 45.5449 58.584C45.5684 58.584 45.709 58.5957 45.9668 58.6191C46.2363 58.6309 46.6348 58.8535 47.1621 59.2871C47.3848 59.5918 47.6191 59.8496 47.8652 60.0605L47.9707 60.1484C48.123 60.2773 48.2812 60.3828 48.4453 60.4648C48.9727 60.7695 49.4883 60.9219 49.9922 60.9219C50.4727 60.9219 50.9004 60.752 51.2754 60.4121L51.3633 60.0781C51.375 60.0195 51.3809 59.9551 51.3809 59.8848C51.3809 59.6621 51.2637 59.3867 51.0293 59.0586C50.8535 58.8125 50.5547 58.5254 50.1328 58.1973L49.957 58.0391L49.4648 57.6699L48.7969 57.1953L48.5332 57.0371C48.3691 56.9316 48.1934 56.8262 48.0059 56.7207C47.8652 56.6504 47.5898 56.4746 47.1797 56.1934L47.0918 56.123C46.834 55.9473 46.582 55.7539 46.3359 55.543C45.7852 55.0625 45.3457 54.5059 45.0176 53.873C44.7012 53.2402 44.543 52.5547 44.543 51.8164C44.543 51.0547 44.748 50.3047 45.1582 49.5664C45.5566 48.875 46.0605 48.3359 46.6699 47.9492C47.291 47.5508 48.0234 47.3516 48.8672 47.3516C49.6992 47.3516 50.4375 47.5801 51.082 48.0371C51.5156 48.3887 51.8379 48.8105 52.0488 49.3027C52.2246 49.6777 52.3125 50.0527 52.3125 50.4277C52.3125 50.9434 52.1426 51.4062 51.8027 51.8164C51.4395 52.1328 51.1289 52.291 50.8711 52.291C50.8594 52.291 50.7832 52.2852 50.6426 52.2734C50.502 52.2617 50.25 52.0332 49.8867 51.5879C49.8398 51.5293 49.8164 51.4648 49.8164 51.3945V51.1484V50.9023C49.8164 50.7969 49.8105 50.7383 49.7988 50.7266C49.7637 50.6562 49.7402 50.6152 49.7285 50.6035C49.7168 50.5801 49.7051 50.5625 49.6934 50.5508C49.6816 50.5391 49.6699 50.5273 49.6582 50.5156C49.4238 50.2695 49.207 50.1465 49.0078 50.1465C48.5977 50.1465 48.2754 50.375 48.041 50.832C47.9004 51.1367 47.8301 51.418 47.8301 51.6758C47.8301 51.8281 47.8652 51.9863 47.9355 52.1504C48.0527 52.4902 48.375 52.8594 48.9023 53.2578C48.9844 53.3398 49.2188 53.498 49.6055 53.7324C49.6992 53.7793 49.7871 53.832 49.8691 53.8906L50.6953 54.3828C51.4102 54.8516 51.8672 55.168 52.0664 55.332C52.6641 55.8008 53.1504 56.2637 53.5254 56.7207C54.2637 57.6582 54.6328 58.666 54.6328 59.7441C54.6328 60.0371 54.5977 60.3301 54.5273 60.623C54.2109 61.9355 53.3613 62.832 51.9785 63.3125C51.3574 63.5 50.707 63.5938 50.0273 63.5938ZM60.1172 62.1699C59.1797 62.1699 58.3066 61.877 57.498 61.291C56.8887 60.8223 56.4141 60.2246 56.0742 59.498C55.3477 58.127 54.9844 56.6211 54.9844 54.9805C54.9844 54.0195 55.1191 53.0645 55.3887 52.1152C55.4121 52.0684 55.4297 52.0156 55.4414 51.957C55.5352 51.6172 55.6523 51.2832 55.793 50.9551C56.7188 49.1973 57.9961 48.3184 59.625 48.3184C60.293 48.3184 60.9492 48.4766 61.5938 48.793C62.2383 49.1094 62.8008 49.5723 63.2812 50.1816C64.1484 51.2832 64.6992 52.5547 64.9336 53.9961C64.9922 54.3711 65.0215 54.8047 65.0215 55.2969C65.0215 55.5781 65.0039 55.8652 64.9688 56.1582C64.8984 56.9199 64.752 57.6172 64.5293 58.25C64.2363 58.9883 63.9434 59.5859 63.6504 60.043C63.2871 60.6055 62.8359 61.0859 62.2969 61.4844C61.5938 61.9414 60.8672 62.1699 60.1172 62.1699ZM60.0469 59.2344C60.1055 59.2344 60.2344 59.1934 60.4336 59.1113C60.6328 59.0293 60.9141 58.6602 61.2773 58.0039C61.3945 57.8164 61.4941 57.6172 61.5762 57.4062V57.3711C61.7871 56.8203 61.9219 56.334 61.9805 55.9121L61.998 55.8594C62.0332 55.6602 62.0508 55.4668 62.0508 55.2793C62.0508 54.916 62.0273 54.5996 61.9805 54.3301C61.9102 53.8496 61.752 53.3691 61.5059 52.8887C61.2715 52.3965 61.0254 52.0156 60.7676 51.7461C60.252 51.3008 59.8477 51.0781 59.5547 51.0781C59.2383 51.0781 58.9512 51.3652 58.6934 51.9395C58.4473 52.5137 58.2773 53.1289 58.1836 53.7852C58.1133 54.1953 58.0781 54.6113 58.0781 55.0332C58.0781 56.1816 58.3652 57.2832 58.9395 58.3379C59.373 58.9355 59.7422 59.2344 60.0469 59.2344ZM71.1387 62.3457C70.0254 62.3457 69.0117 62.0176 68.0977 61.3613C67.5352 60.8926 67.0547 60.3301 66.6562 59.6738L66.498 59.375C66.041 58.5781 65.707 57.5703 65.4961 56.3516C65.4492 55.918 65.4141 55.4902 65.3906 55.0684C65.3906 54.1426 65.4668 53.2988 65.6191 52.5371C65.7949 51.5527 66.1465 50.4863 66.6738 49.3379C67.1191 48.4473 67.5117 47.8438 67.8516 47.5273C67.9336 47.4688 68.0449 47.4395 68.1855 47.4395C68.6191 47.4395 69.0996 47.6387 69.627 48.0371C70.166 48.4238 70.4355 48.8105 70.4355 49.1973C70.4355 49.3965 70.3477 49.5957 70.1719 49.7949C69.9492 50.2988 69.7617 50.8613 69.6094 51.4824C69.4336 52.209 69.3281 52.9238 69.293 53.627L69.2754 54.2246C69.2754 54.8574 69.3281 55.4082 69.4336 55.877C69.5156 56.3926 69.5859 56.6797 69.6445 56.7383C69.8438 57.3242 70.0371 57.7871 70.2246 58.127C70.6348 58.7832 71.0918 59.1113 71.5957 59.1113C72.041 59.1113 72.5977 58.8066 73.2656 58.1973C73.5938 57.8457 73.8516 57.4883 74.0391 57.125C74.2734 56.7266 74.4492 56.2988 74.5664 55.8418C74.7539 55.2324 74.8477 54.6172 74.8477 53.9961C74.8477 53.457 74.8066 52.9004 74.7246 52.3262L74.707 52.2734C74.625 51.7812 74.4961 51.2656 74.3203 50.7266C74.1211 50.0938 73.9512 49.6309 73.8105 49.3379L73.6348 48.9688C73.5176 48.7578 73.459 48.582 73.459 48.4414C73.459 48.0664 73.6172 47.7559 73.9336 47.5098C74.25 47.252 74.6367 47.123 75.0938 47.123C75.9141 47.123 76.3711 47.5449 76.4648 48.3887L76.7637 49.2324L77.0273 50.1289C77.3086 51.3008 77.4727 52.1973 77.5195 52.8184L77.5723 54.0488C77.5723 54.8105 77.4551 55.6191 77.2207 56.4746L76.9395 57.3359L76.8516 57.5469C76.5586 58.2969 76.1543 59.0117 75.6387 59.6914C74.8066 60.793 73.8867 61.5547 72.8789 61.9766C72.3164 62.2227 71.7363 62.3457 71.1387 62.3457ZM94.166 65.457C94.0723 65.457 93.9844 65.4512 93.9023 65.4395C93.8203 65.4277 93.6914 65.334 93.5156 65.1582L93.3398 64.8945C93.1172 64.5898 92.9004 64.0977 92.6895 63.418C92.6777 63.3477 92.6602 63.2832 92.6367 63.2246C92.4023 62.334 92.2207 61.3496 92.0918 60.2715C92.0684 60.0723 92.0566 59.8789 92.0566 59.6914L92.0039 59.7617C91.3242 60.7344 90.5801 61.4492 89.7715 61.9062H89.7539C89.1445 62.2578 88.5 62.4336 87.8203 62.4336C86.7891 62.4336 85.9219 62.0469 85.2188 61.2734C84.3516 60.3594 83.918 58.9941 83.918 57.1777C84.0117 55.373 84.5332 53.7148 85.4824 52.2031C85.9746 51.4062 86.502 50.7676 87.0645 50.2871C87.0645 50.2285 87.3574 50.0059 87.9434 49.6191C88.7637 49.127 89.6953 48.875 90.7383 48.8633C91.4883 48.8633 92.127 49.0391 92.6543 49.3906C92.7715 49.4492 92.918 49.5664 93.0938 49.7422C93.0938 49.7539 93.0996 49.7598 93.1113 49.7598C93.3926 50.0645 93.5332 50.3691 93.5332 50.6738C93.5332 50.8262 93.5215 50.9258 93.498 50.9727C93.4746 51.0195 93.4395 51.0723 93.3926 51.1309C93.1816 51.377 92.6133 51.5 91.6875 51.5H91.459C90.8613 51.5 90.3164 51.582 89.8242 51.7461C89.1797 52.1094 88.5996 52.6836 88.084 53.4688C87.3457 54.6992 86.9531 55.9648 86.9062 57.2656C86.9062 57.8047 86.9883 58.2969 87.1523 58.7422C87.3281 59.2461 87.5977 59.498 87.9609 59.498C88.2891 59.498 88.7812 59.1992 89.4375 58.6016C89.4375 58.5898 89.4434 58.584 89.4551 58.584C89.748 58.3145 90.1816 57.8223 90.7559 57.1074L91.1426 56.6328C91.248 56.4688 91.3594 56.3164 91.4766 56.1758C91.5938 56.0352 91.6992 55.8887 91.793 55.7363L92.0215 55.3848C92.0215 55.1973 92.0449 54.9863 92.0918 54.752C92.1387 54.4121 92.2031 54.0957 92.2852 53.8027L92.4434 53.5039C92.5605 53.2812 92.8301 53.1699 93.252 53.1699C93.3691 53.1699 93.5215 53.1816 93.709 53.2051C94.1309 53.2754 94.3418 53.4219 94.3418 53.6445L94.3242 53.75C94.3242 53.7617 94.3301 53.7734 94.3418 53.7852C94.3652 53.7969 94.4004 53.8262 94.4473 53.873C94.4941 53.9551 94.5176 54.0898 94.5176 54.2773L94.5 54.7695L94.4824 56.5449C94.4824 57.4238 94.5059 58.1211 94.5527 58.6367C94.5527 58.8477 94.5879 59.3164 94.6582 60.043C94.752 60.7461 94.8223 61.1855 94.8691 61.3613C94.998 62.1582 95.1562 62.873 95.3438 63.5059L95.3965 63.6816C95.4785 63.8809 95.5254 64.0801 95.5371 64.2793C95.5371 64.7246 95.3613 65.0469 95.0098 65.2461C94.752 65.3867 94.4707 65.457 94.166 65.457ZM91.5117 53.5742C91.5 53.5625 91.4824 53.5566 91.459 53.5566C91.4473 53.5566 91.4355 53.5566 91.4238 53.5566C91.4121 53.5566 91.4062 53.5508 91.4062 53.5391L91.459 53.4863C91.4707 53.4863 91.4766 53.4922 91.4766 53.5039C91.4883 53.5039 91.4941 53.5156 91.4941 53.5391C91.5059 53.5508 91.5117 53.5625 91.5117 53.5742ZM104.045 63.6289C103.881 63.6289 103.641 63.5879 103.324 63.5059C103.02 63.4238 102.867 63.1133 102.867 62.5742L102.604 61.4844L102.551 61.168C102.457 60.7695 102.393 60.418 102.357 60.1133C102.252 59.5391 102.176 58.9648 102.129 58.3906C102.059 57.875 102.012 57.3652 101.988 56.8613C101.918 55.9355 101.883 55.0098 101.883 54.084L101.918 52.8359L101.936 52.625C101.936 52.0508 101.988 51.0781 102.094 49.707C102.105 49.6367 102.111 49.5605 102.111 49.4785C102.146 48.916 102.223 48.1367 102.34 47.1406C102.34 46.9883 102.404 46.5605 102.533 45.8574L102.551 45.7168C102.832 44.1582 103.248 42.9805 103.799 42.1836C104.068 41.7969 104.438 41.4629 104.906 41.1816C105.328 40.9707 105.738 40.8652 106.137 40.8652C106.465 40.8652 106.74 40.9004 106.963 40.9707C107.689 41.1582 108.369 41.7969 109.002 42.8867L109.16 43.2031C109.57 43.9531 109.881 44.6445 110.092 45.2773C110.314 45.9102 110.502 46.6836 110.654 47.5977C110.76 48.2773 110.812 48.7637 110.812 49.0566C110.941 48.6465 111.1 48.2129 111.287 47.7559L111.41 47.457L111.797 46.5781C111.984 46.1094 112.195 45.6992 112.43 45.3477C112.699 44.8906 112.922 44.5449 113.098 44.3105L113.15 44.2227C113.432 43.8477 113.713 43.5605 113.994 43.3613C113.994 43.3496 114 43.3438 114.012 43.3438C114.305 43.1328 114.598 43.0273 114.891 43.0273H115.049L115.488 43.0098C116.098 43.0801 116.613 43.3789 117.035 43.9062C117.457 44.4219 117.785 45.125 118.02 46.0156L118.055 46.209C118.172 46.6777 118.277 47.2988 118.371 48.0723C118.406 48.2246 118.453 48.8223 118.512 49.8652C118.547 50.3223 118.564 50.6387 118.564 50.8145L118.67 52.5547L118.758 54.8223C118.758 55.3496 118.764 55.7363 118.775 55.9824L118.793 58.3379C118.793 59.5215 118.775 60.3066 118.74 60.6934C118.471 61.7715 117.938 62.3105 117.141 62.3105C116.461 62.3105 115.939 61.8301 115.576 60.8691C115.459 60.2715 115.354 59.4746 115.26 58.4785L115.119 56.8438L115.031 55.3145L115.014 54.9277C114.979 53.7441 114.949 52.9883 114.926 52.6602C114.926 51.9336 114.914 51.3477 114.891 50.9023C114.879 50.7617 114.873 50.6152 114.873 50.4629C114.873 50.1113 114.861 49.7656 114.838 49.4258C114.814 49.0273 114.797 48.6875 114.785 48.4062C114.773 48.125 114.756 47.832 114.732 47.5273C114.709 47.0938 114.639 46.584 114.521 45.998C114.486 45.8105 114.451 45.7168 114.416 45.7168C114.381 45.7168 114.275 45.8516 114.1 46.1211C113.818 46.6133 113.602 47.0059 113.449 47.2988C113.215 47.8613 112.992 48.4121 112.781 48.9512C112.711 49.127 112.547 49.6367 112.289 50.4805L112.025 51.4297C111.979 51.6055 111.938 51.7812 111.902 51.957C111.867 52.1211 111.826 52.2852 111.779 52.4492C111.592 53.1406 111.451 53.7676 111.357 54.3301C111.275 54.7051 111.199 55.0801 111.129 55.4551C111.105 55.5371 111.047 55.8594 110.953 56.4219C110.871 56.9023 110.83 57.1836 110.83 57.2656L110.777 57.6699C110.508 59.0527 110.016 59.7441 109.301 59.7441C108.691 59.7441 108.223 59.0762 107.895 57.7402C107.812 57.3184 107.754 56.832 107.719 56.2812C107.648 55.4609 107.613 54.8105 107.613 54.3301C107.602 54.002 107.596 53.668 107.596 53.3281C107.596 52.6836 107.602 52.2148 107.613 51.9219C107.613 51.4414 107.607 50.9668 107.596 50.498C107.596 49.4434 107.578 48.5645 107.543 47.8613C107.543 47.5449 107.484 46.877 107.367 45.8574C107.32 45.5996 107.273 45.3477 107.227 45.1016C107.18 44.8438 107.121 44.6035 107.051 44.3809C106.816 43.7363 106.611 43.4141 106.436 43.4141C106.189 43.4141 105.943 44.1055 105.697 45.4883C105.639 45.7344 105.592 45.9863 105.557 46.2441C105.439 47.0176 105.346 47.791 105.275 48.5645C105.217 49.0684 105.152 49.9766 105.082 51.2891L105.064 51.7637C105.018 52.3965 104.994 53.1758 104.994 54.1016C104.994 55.2617 105.018 56.123 105.064 56.6855C105.064 57.166 105.129 57.9336 105.258 58.9883C105.258 59.1875 105.299 59.5332 105.381 60.0254L105.662 62.5918C105.604 62.9785 105.346 63.2656 104.889 63.4531C104.607 63.5703 104.326 63.6289 104.045 63.6289ZM120.955 47.3867C120.932 47.3867 120.756 47.3809 120.428 47.3691C120.1 47.3574 119.859 47.0176 119.707 46.3496V45.3125C119.707 45.1016 119.713 44.9492 119.725 44.8555V44.7324C119.842 43.7246 120.293 43.2207 121.078 43.2207C121.383 43.2207 121.652 43.3145 121.887 43.502C122.203 43.7715 122.361 44.2109 122.361 44.8203C122.396 45.0664 122.414 45.2949 122.414 45.5059C122.449 45.7637 122.467 46.0449 122.467 46.3496C122.467 46.4785 122.449 46.6074 122.414 46.7363C122.027 47.1699 121.541 47.3867 120.955 47.3867ZM122.168 63.2422C121.605 63.2422 121.143 62.8672 120.779 62.1172C120.486 61.1445 120.27 59.6035 120.129 57.4941L120.076 56.9316C120.029 56.1582 120 55.7598 119.988 55.7363C119.906 54.3535 119.871 53.3691 119.883 52.7832C119.883 52.0332 119.895 51.4531 119.918 51.043C119.988 50.3867 120.182 49.9121 120.498 49.6191C120.779 49.373 121.09 49.25 121.43 49.25C121.863 49.25 122.221 49.4258 122.502 49.7773C122.725 50.0469 122.836 50.3984 122.836 50.832L122.818 51.0781L122.836 52.0098L122.889 53.0996C122.9 53.3457 122.918 53.5859 122.941 53.8203L123.012 54.9805C123.059 55.4258 123.094 55.8711 123.117 56.3164L123.434 59.5684C123.551 60.5293 123.609 61.2676 123.609 61.7832C123.422 62.7559 122.941 63.2422 122.168 63.2422ZM125.895 64.0156C125.742 64.0156 125.549 63.9688 125.314 63.875C124.939 63.7461 124.605 62.8086 124.312 61.0625C124.195 60.3125 124.102 59.4922 124.031 58.6016C123.984 57.9805 123.961 57.3535 123.961 56.7207C123.961 55.9004 123.99 55.0918 124.049 54.2949C124.131 53.2285 124.23 52.3438 124.348 51.6406C124.465 50.8672 124.652 50.123 124.91 49.4082C125.461 47.8848 126.275 46.9062 127.354 46.4727C127.729 46.3438 128.074 46.2793 128.391 46.2793C129.223 46.2793 129.984 46.666 130.676 47.4395C131.332 48.1777 131.877 49.3613 132.311 50.9902L132.328 51.043C132.516 50.5273 132.773 49.9941 133.102 49.4434C133.711 48.4707 134.467 47.7441 135.369 47.2637C135.861 47.0293 136.336 46.9121 136.793 46.9121C137.133 46.9121 137.467 46.9824 137.795 47.123C138.287 47.3691 138.668 47.709 138.938 48.1426C139.207 48.5762 139.4 49.0566 139.518 49.584C139.6 49.9121 139.67 50.457 139.729 51.2188L139.746 52.1328V53.1172C139.746 53.4453 139.729 54.1543 139.693 55.2441C139.682 55.3262 139.676 55.4141 139.676 55.5078L139.588 57.4766L139.57 58.3555C139.57 59.5039 139.506 60.3066 139.377 60.7637C139.131 61.4785 138.75 61.8359 138.234 61.8359C137.742 61.8359 137.379 61.4844 137.145 60.7812C137.051 60.4297 136.998 60.0723 136.986 59.709L136.969 58.373L136.986 57.4238C136.986 56.9902 136.998 56.6094 137.021 56.2812L137.057 55.1562C137.092 54.8047 137.109 54.125 137.109 53.1172C137.098 51.0547 136.898 50.0234 136.512 50.0234C136.277 50.0234 135.967 50.4746 135.58 51.377C135.369 51.7871 135.188 52.2031 135.035 52.625L134.947 52.8711C134.76 53.5039 134.59 54.1309 134.438 54.752C134.379 54.9746 134.273 55.502 134.121 56.334C134.039 56.7441 133.963 57.1602 133.893 57.582C133.857 57.8398 133.816 58.0918 133.77 58.3379C133.746 58.4316 133.711 58.6426 133.664 58.9707C133.641 59.123 133.6 59.2754 133.541 59.4277C133.471 59.6973 133.307 59.8906 133.049 60.0078L132.029 60.166C131.619 60.1309 131.332 59.7617 131.168 59.0586C130.898 56.9258 130.43 54.7812 129.762 52.625L129.691 52.3613C129.504 51.6934 129.334 51.1484 129.182 50.7266C128.912 50.1875 128.678 49.918 128.479 49.918C128.186 49.918 127.939 50.5156 127.74 51.7109C127.494 52.9297 127.348 54.3008 127.301 55.8242L127.283 56.1758C127.283 56.5039 127.289 56.8262 127.301 57.1426C127.348 58.6777 127.395 59.5742 127.441 59.832C127.535 60.875 127.623 61.7012 127.705 62.3105L127.793 62.8027C127.77 62.9316 127.629 63.1133 127.371 63.3477C127.125 63.5703 126.82 63.752 126.457 63.8926C126.258 63.9746 126.07 64.0156 125.895 64.0156ZM141.346 47.3867C141.322 47.3867 141.146 47.3809 140.818 47.3691C140.49 47.3574 140.25 47.0176 140.098 46.3496V45.3125C140.098 45.1016 140.104 44.9492 140.115 44.8555V44.7324C140.232 43.7246 140.684 43.2207 141.469 43.2207C141.773 43.2207 142.043 43.3145 142.277 43.502C142.594 43.7715 142.752 44.2109 142.752 44.8203C142.787 45.0664 142.805 45.2949 142.805 45.5059C142.84 45.7637 142.857 46.0449 142.857 46.3496C142.857 46.4785 142.84 46.6074 142.805 46.7363C142.418 47.1699 141.932 47.3867 141.346 47.3867ZM142.559 63.2422C141.996 63.2422 141.533 62.8672 141.17 62.1172C140.877 61.1445 140.66 59.6035 140.52 57.4941L140.467 56.9316C140.42 56.1582 140.391 55.7598 140.379 55.7363C140.297 54.3535 140.262 53.3691 140.273 52.7832C140.273 52.0332 140.285 51.4531 140.309 51.043C140.379 50.3867 140.572 49.9121 140.889 49.6191C141.17 49.373 141.48 49.25 141.82 49.25C142.254 49.25 142.611 49.4258 142.893 49.7773C143.115 50.0469 143.227 50.3984 143.227 50.832L143.209 51.0781L143.227 52.0098L143.279 53.0996C143.291 53.3457 143.309 53.5859 143.332 53.8203L143.402 54.9805C143.449 55.4258 143.484 55.8711 143.508 56.3164L143.824 59.5684C143.941 60.5293 144 61.2676 144 61.7832C143.812 62.7559 143.332 63.2422 142.559 63.2422ZM147.357 62.0293C147.357 61.5723 147.205 61.1914 146.9 60.8867C146.596 60.5703 146.215 60.4121 145.758 60.4121C145.289 60.4121 144.967 60.5996 144.791 60.9746C144.627 61.3379 144.545 61.7539 144.545 62.2227C144.416 63.2305 144.82 63.7344 145.758 63.7344C146.215 63.7344 146.596 63.5703 146.9 63.2422C147.205 62.9023 147.357 62.498 147.357 62.0293ZM3.55078 109.094C3.25781 109.094 2.95312 108.982 2.63672 108.76C2.33203 108.549 2.13867 108.18 2.05664 107.652C1.91602 107.125 1.81641 106.633 1.75781 106.176C1.6875 105.895 1.63477 105.619 1.59961 105.35C1.56445 105.08 1.52344 104.805 1.47656 104.523L1.30078 103.223C1.24219 102.742 1.18945 102.25 1.14258 101.746C1.0957 101.242 1.03711 100.727 0.966797 100.199L0.808594 98.3184C0.714844 97.1582 0.644531 95.9453 0.597656 94.6797L0.527344 92.7812C0.527344 92.1602 0.515625 91.5391 0.492188 90.918C0.492188 88.6328 0.515625 87.0098 0.5625 86.0488L0.580078 85.6621C0.591797 85.3691 0.615234 85.0762 0.650391 84.7832C0.708984 83.9863 0.791016 83.4062 0.896484 83.043C0.990234 82.7734 1.17773 82.5742 1.45898 82.4453C1.74023 82.3047 2.04492 82.2344 2.37305 82.2344C2.70117 82.2461 2.98242 82.334 3.2168 82.498C3.46289 82.6504 3.59766 82.8848 3.62109 83.2012C3.64453 83.4473 3.65625 84.0977 3.65625 85.1523C4.48828 84.6016 5.47266 84.3262 6.60938 84.3262C7.24219 84.3262 7.86328 84.4375 8.47266 84.6602C9.14062 84.8711 9.73828 85.2402 10.2656 85.7676C11.2617 86.7637 11.8652 88.1172 12.0762 89.8281C12.1348 90.3438 12.1641 90.8594 12.1641 91.375C12.1641 92.3477 12.0352 93.3262 11.7773 94.3105C11.5664 95.0371 11.3086 95.6465 11.0039 96.1387C10.6992 96.7012 10.3008 97.1875 9.80859 97.5977C9.31641 98.0078 8.74805 98.3125 8.10352 98.5117C7.54102 98.6523 6.97266 98.7227 6.39844 98.7227C5.48438 98.7227 4.66992 98.5527 3.95508 98.2129C3.95508 98.5059 3.99609 99.0918 4.07812 99.9707L4.21875 101.518L4.48242 103.908L4.64062 105.385L4.69336 106C4.76367 106.773 4.79883 107.26 4.79883 107.459C4.79883 107.705 4.77539 107.945 4.72852 108.18C4.49414 108.789 4.10156 109.094 3.55078 109.094ZM6.38086 95.6816C6.66211 95.6816 6.98438 95.5996 7.34766 95.4355C7.72266 95.2598 8.0625 94.8613 8.36719 94.2402C8.57812 93.7715 8.71289 93.3027 8.77148 92.834C8.88867 92.248 8.94727 91.6562 8.94727 91.0586C8.92383 90.3789 8.85938 89.8047 8.75391 89.3359C8.44922 88.2227 8.02148 87.5195 7.4707 87.2266C7.16602 87.0391 6.82031 86.9219 6.43359 86.875L6.39844 86.8574H6.15234L6.66211 86.8398L6.99609 86.8574L6.82031 86.8223L6.36328 86.8047C6.26953 86.8164 6.16992 86.8223 6.06445 86.8223C5.86523 86.8457 5.67188 86.8809 5.48438 86.9277L5.44922 86.9453C5.09766 87.0508 4.78711 87.2031 4.51758 87.4023C4.50586 87.4141 4.48828 87.4199 4.46484 87.4199C4.05469 87.7363 3.7793 87.9648 3.63867 88.1055C3.63867 89.5586 3.65625 90.8828 3.69141 92.0781L3.70898 92.7109C3.7207 93.5898 3.75 94.4629 3.79688 95.3301L3.81445 95.6289H3.84961L4.21875 95.418H4.30664C4.31836 95.4062 4.37109 95.4004 4.46484 95.4004C4.60547 95.4004 4.85742 95.4355 5.2207 95.5059C5.70117 95.623 6.08789 95.6816 6.38086 95.6816ZM17.6484 103.17C16.7109 103.17 15.8379 102.877 15.0293 102.291C14.4199 101.822 13.9453 101.225 13.6055 100.498C12.8789 99.127 12.5156 97.6211 12.5156 95.9805C12.5156 95.0195 12.6504 94.0645 12.9199 93.1152C12.9434 93.0684 12.9609 93.0156 12.9727 92.957C13.0664 92.6172 13.1836 92.2832 13.3242 91.9551C14.25 90.1973 15.5273 89.3184 17.1562 89.3184C17.8242 89.3184 18.4805 89.4766 19.125 89.793C19.7695 90.1094 20.332 90.5723 20.8125 91.1816C21.6797 92.2832 22.2305 93.5547 22.4648 94.9961C22.5234 95.3711 22.5527 95.8047 22.5527 96.2969C22.5527 96.5781 22.5352 96.8652 22.5 97.1582C22.4297 97.9199 22.2832 98.6172 22.0605 99.25C21.7676 99.9883 21.4746 100.586 21.1816 101.043C20.8184 101.605 20.3672 102.086 19.8281 102.484C19.125 102.941 18.3984 103.17 17.6484 103.17ZM17.5781 100.234C17.6367 100.234 17.7656 100.193 17.9648 100.111C18.1641 100.029 18.4453 99.6602 18.8086 99.0039C18.9258 98.8164 19.0254 98.6172 19.1074 98.4062V98.3711C19.3184 97.8203 19.4531 97.334 19.5117 96.9121L19.5293 96.8594C19.5645 96.6602 19.582 96.4668 19.582 96.2793C19.582 95.916 19.5586 95.5996 19.5117 95.3301C19.4414 94.8496 19.2832 94.3691 19.0371 93.8887C18.8027 93.3965 18.5566 93.0156 18.2988 92.7461C17.7832 92.3008 17.3789 92.0781 17.0859 92.0781C16.7695 92.0781 16.4824 92.3652 16.2246 92.9395C15.9785 93.5137 15.8086 94.1289 15.7148 94.7852C15.6445 95.1953 15.6094 95.6113 15.6094 96.0332C15.6094 97.1816 15.8965 98.2832 16.4707 99.3379C16.9043 99.9355 17.2734 100.234 17.5781 100.234ZM28.4062 104.594C27.0703 104.594 25.8926 104.236 24.873 103.521C24.334 103.146 23.9004 102.73 23.5723 102.273C23.209 101.723 23.0156 101.178 22.9922 100.639C23.1445 99.9355 23.4551 99.584 23.9238 99.584C23.9473 99.584 24.0879 99.5957 24.3457 99.6191C24.6152 99.6309 25.0137 99.8535 25.541 100.287C25.7637 100.592 25.998 100.85 26.2441 101.061L26.3496 101.148C26.502 101.277 26.6602 101.383 26.8242 101.465C27.3516 101.77 27.8672 101.922 28.3711 101.922C28.8516 101.922 29.2793 101.752 29.6543 101.412L29.7422 101.078C29.7539 101.02 29.7598 100.955 29.7598 100.885C29.7598 100.662 29.6426 100.387 29.4082 100.059C29.2324 99.8125 28.9336 99.5254 28.5117 99.1973L28.3359 99.0391L27.8438 98.6699L27.1758 98.1953L26.9121 98.0371C26.748 97.9316 26.5723 97.8262 26.3848 97.7207C26.2441 97.6504 25.9688 97.4746 25.5586 97.1934L25.4707 97.123C25.2129 96.9473 24.9609 96.7539 24.7148 96.543C24.1641 96.0625 23.7246 95.5059 23.3965 94.873C23.0801 94.2402 22.9219 93.5547 22.9219 92.8164C22.9219 92.0547 23.127 91.3047 23.5371 90.5664C23.9355 89.875 24.4395 89.3359 25.0488 88.9492C25.6699 88.5508 26.4023 88.3516 27.2461 88.3516C28.0781 88.3516 28.8164 88.5801 29.4609 89.0371C29.8945 89.3887 30.2168 89.8105 30.4277 90.3027C30.6035 90.6777 30.6914 91.0527 30.6914 91.4277C30.6914 91.9434 30.5215 92.4062 30.1816 92.8164C29.8184 93.1328 29.5078 93.291 29.25 93.291C29.2383 93.291 29.1621 93.2852 29.0215 93.2734C28.8809 93.2617 28.6289 93.0332 28.2656 92.5879C28.2188 92.5293 28.1953 92.4648 28.1953 92.3945V92.1484V91.9023C28.1953 91.7969 28.1895 91.7383 28.1777 91.7266C28.1426 91.6562 28.1191 91.6152 28.1074 91.6035C28.0957 91.5801 28.084 91.5625 28.0723 91.5508C28.0605 91.5391 28.0488 91.5273 28.0371 91.5156C27.8027 91.2695 27.5859 91.1465 27.3867 91.1465C26.9766 91.1465 26.6543 91.375 26.4199 91.832C26.2793 92.1367 26.209 92.418 26.209 92.6758C26.209 92.8281 26.2441 92.9863 26.3145 93.1504C26.4316 93.4902 26.7539 93.8594 27.2812 94.2578C27.3633 94.3398 27.5977 94.498 27.9844 94.7324C28.0781 94.7793 28.166 94.832 28.248 94.8906L29.0742 95.3828C29.7891 95.8516 30.2461 96.168 30.4453 96.332C31.043 96.8008 31.5293 97.2637 31.9043 97.7207C32.6426 98.6582 33.0117 99.666 33.0117 100.744C33.0117 101.037 32.9766 101.33 32.9062 101.623C32.5898 102.936 31.7402 103.832 30.3574 104.312C29.7363 104.5 29.0859 104.594 28.4062 104.594ZM38.8477 104.594C37.5117 104.594 36.334 104.236 35.3145 103.521C34.7754 103.146 34.3418 102.73 34.0137 102.273C33.6504 101.723 33.457 101.178 33.4336 100.639C33.5859 99.9355 33.8965 99.584 34.3652 99.584C34.3887 99.584 34.5293 99.5957 34.7871 99.6191C35.0566 99.6309 35.4551 99.8535 35.9824 100.287C36.2051 100.592 36.4395 100.85 36.6855 101.061L36.791 101.148C36.9434 101.277 37.1016 101.383 37.2656 101.465C37.793 101.77 38.3086 101.922 38.8125 101.922C39.293 101.922 39.7207 101.752 40.0957 101.412L40.1836 101.078C40.1953 101.02 40.2012 100.955 40.2012 100.885C40.2012 100.662 40.084 100.387 39.8496 100.059C39.6738 99.8125 39.375 99.5254 38.9531 99.1973L38.7773 99.0391L38.2852 98.6699L37.6172 98.1953L37.3535 98.0371C37.1895 97.9316 37.0137 97.8262 36.8262 97.7207C36.6855 97.6504 36.4102 97.4746 36 97.1934L35.9121 97.123C35.6543 96.9473 35.4023 96.7539 35.1562 96.543C34.6055 96.0625 34.166 95.5059 33.8379 94.873C33.5215 94.2402 33.3633 93.5547 33.3633 92.8164C33.3633 92.0547 33.5684 91.3047 33.9785 90.5664C34.377 89.875 34.8809 89.3359 35.4902 88.9492C36.1113 88.5508 36.8438 88.3516 37.6875 88.3516C38.5195 88.3516 39.2578 88.5801 39.9023 89.0371C40.3359 89.3887 40.6582 89.8105 40.8691 90.3027C41.0449 90.6777 41.1328 91.0527 41.1328 91.4277C41.1328 91.9434 40.9629 92.4062 40.623 92.8164C40.2598 93.1328 39.9492 93.291 39.6914 93.291C39.6797 93.291 39.6035 93.2852 39.4629 93.2734C39.3223 93.2617 39.0703 93.0332 38.707 92.5879C38.6602 92.5293 38.6367 92.4648 38.6367 92.3945V92.1484V91.9023C38.6367 91.7969 38.6309 91.7383 38.6191 91.7266C38.584 91.6562 38.5605 91.6152 38.5488 91.6035C38.5371 91.5801 38.5254 91.5625 38.5137 91.5508C38.502 91.5391 38.4902 91.5273 38.4785 91.5156C38.2441 91.2695 38.0273 91.1465 37.8281 91.1465C37.418 91.1465 37.0957 91.375 36.8613 91.832C36.7207 92.1367 36.6504 92.418 36.6504 92.6758C36.6504 92.8281 36.6855 92.9863 36.7559 93.1504C36.873 93.4902 37.1953 93.8594 37.7227 94.2578C37.8047 94.3398 38.0391 94.498 38.4258 94.7324C38.5195 94.7793 38.6074 94.832 38.6895 94.8906L39.5156 95.3828C40.2305 95.8516 40.6875 96.168 40.8867 96.332C41.4844 96.8008 41.9707 97.2637 42.3457 97.7207C43.084 98.6582 43.4531 99.666 43.4531 100.744C43.4531 101.037 43.418 101.33 43.3477 101.623C43.0312 102.936 42.1816 103.832 40.7988 104.312C40.1777 104.5 39.5273 104.594 38.8477 104.594ZM48.9375 103.17C48 103.17 47.127 102.877 46.3184 102.291C45.709 101.822 45.2344 101.225 44.8945 100.498C44.168 99.127 43.8047 97.6211 43.8047 95.9805C43.8047 95.0195 43.9395 94.0645 44.209 93.1152C44.2324 93.0684 44.25 93.0156 44.2617 92.957C44.3555 92.6172 44.4727 92.2832 44.6133 91.9551C45.5391 90.1973 46.8164 89.3184 48.4453 89.3184C49.1133 89.3184 49.7695 89.4766 50.4141 89.793C51.0586 90.1094 51.6211 90.5723 52.1016 91.1816C52.9688 92.2832 53.5195 93.5547 53.7539 94.9961C53.8125 95.3711 53.8418 95.8047 53.8418 96.2969C53.8418 96.5781 53.8242 96.8652 53.7891 97.1582C53.7188 97.9199 53.5723 98.6172 53.3496 99.25C53.0566 99.9883 52.7637 100.586 52.4707 101.043C52.1074 101.605 51.6562 102.086 51.1172 102.484C50.4141 102.941 49.6875 103.17 48.9375 103.17ZM48.8672 100.234C48.9258 100.234 49.0547 100.193 49.2539 100.111C49.4531 100.029 49.7344 99.6602 50.0977 99.0039C50.2148 98.8164 50.3145 98.6172 50.3965 98.4062V98.3711C50.6074 97.8203 50.7422 97.334 50.8008 96.9121L50.8184 96.8594C50.8535 96.6602 50.8711 96.4668 50.8711 96.2793C50.8711 95.916 50.8477 95.5996 50.8008 95.3301C50.7305 94.8496 50.5723 94.3691 50.3262 93.8887C50.0918 93.3965 49.8457 93.0156 49.5879 92.7461C49.0723 92.3008 48.668 92.0781 48.375 92.0781C48.0586 92.0781 47.7715 92.3652 47.5137 92.9395C47.2676 93.5137 47.0977 94.1289 47.0039 94.7852C46.9336 95.1953 46.8984 95.6113 46.8984 96.0332C46.8984 97.1816 47.1855 98.2832 47.7598 99.3379C48.1934 99.9355 48.5625 100.234 48.8672 100.234ZM65.0391 102.467C64.3359 102.467 63.709 102.262 63.1582 101.852C62.4785 101.348 61.9512 100.498 61.5762 99.3027C61.3887 98.7754 61.248 98.1836 61.1543 97.5273C61.1426 97.4102 61.125 97.2988 61.1016 97.1934L61.0137 96.5078C61.0137 96.3672 61.002 96.2266 60.9785 96.0859C60.9199 95.582 60.8906 94.7676 60.8906 93.6426L60.9258 93.0449C60.9375 92.6465 60.9668 92.2422 61.0137 91.832C61.0605 91.4219 61.0957 91.1816 61.1191 91.1113C60.9551 91.1113 60.627 91.1875 60.1348 91.3398L59.7656 91.4277L59.5371 91.4453C59.4199 91.375 59.291 91.3105 59.1504 91.252C58.6113 91.0645 58.3418 90.8359 58.3418 90.5664C58.3418 90.3906 58.541 90.1621 58.9395 89.8809L58.9746 89.8633C59.4785 89.5586 60.1055 89.3008 60.8555 89.0898C61.2305 88.9961 61.459 88.9492 61.541 88.9492L61.5586 88.8438L61.6641 88.4746C61.7461 87.9941 61.8809 87.5605 62.0684 87.1738C62.3848 86.5527 62.7598 86.2422 63.1934 86.2422C63.7676 86.2539 64.2715 86.6523 64.7051 87.4375L64.6172 87.8594L64.4941 88.4395L64.4414 88.6504C64.4414 88.6738 64.4355 88.6914 64.4238 88.7031L64.5996 88.7207C64.9746 88.7207 65.2852 88.7266 65.5312 88.7383C65.7773 88.75 66.0176 88.7734 66.252 88.8086C66.7441 88.832 67.1543 88.8965 67.4824 89.002C67.7051 89.166 67.8164 89.3711 67.8164 89.6172C67.8164 89.6641 67.7988 89.7871 67.7637 89.9863C67.7285 90.1738 67.582 90.4023 67.3242 90.6719C67.0664 90.9414 66.7734 91.0996 66.4453 91.1465L65.918 91.0938C65.3438 91.0234 64.9277 90.9824 64.6699 90.9707L64.1074 90.9531L64.0898 91.041C64.0664 91.3223 64.0371 91.5977 64.002 91.8672C64.002 92.0312 63.9902 92.1719 63.9668 92.2891C63.9082 93.0508 63.8789 93.5664 63.8789 93.8359L63.8438 94.2578C63.8438 95.2891 63.8613 95.9746 63.8965 96.3145C63.8965 96.4551 63.9199 96.7598 63.9668 97.2285C64.0137 97.4863 64.0547 97.7383 64.0898 97.9844C64.1367 98.2305 64.1895 98.4648 64.248 98.6875C64.3301 99.0508 64.459 99.3965 64.6348 99.7246C64.8105 100.041 65.0215 100.199 65.2676 100.199C65.4785 100.199 65.707 99.9883 65.9531 99.5664C66.0703 99.3789 66.1406 99.25 66.1641 99.1797C66.3984 98.5938 66.6445 98.3008 66.9023 98.3008C67.1953 98.3008 67.377 98.8281 67.4473 99.8828C67.4355 99.9062 67.4297 99.9355 67.4297 99.9707V100.076C67.4297 100.463 67.2832 100.914 66.9902 101.43C66.7559 101.781 66.4805 102.045 66.1641 102.221C65.8477 102.385 65.4727 102.467 65.0391 102.467ZM64.4238 90.9531C64.3301 90.9531 64.2422 90.9473 64.1602 90.9355H64.1074V90.9531H64.4238ZM73.2305 103.1C72.5508 103.1 71.8711 102.953 71.1914 102.66C70.4531 102.332 69.8379 101.834 69.3457 101.166C68.5605 100.029 68.168 98.5762 68.168 96.8066C68.168 95.7402 68.2969 94.6973 68.5547 93.6777C68.8125 92.7285 69.1406 91.9023 69.5391 91.1992C69.9492 90.4961 70.4531 89.8516 71.0508 89.2656C71.6602 88.668 72.2988 88.1934 72.9668 87.8418C73.6465 87.4902 74.3145 87.2734 74.9707 87.1914H75.9551C76.2715 87.2031 76.5879 87.2559 76.9043 87.3496C78.1934 87.8301 79.0195 88.7207 79.3828 90.0215C79.5 90.4199 79.5586 90.8594 79.5586 91.3398C79.5586 92.1484 79.3828 92.9277 79.0312 93.6777C78.7852 94.252 78.4043 94.8496 77.8887 95.4707C77.7832 95.6348 77.5371 95.8984 77.1504 96.2617C75.873 97.375 74.6074 98.1484 73.3535 98.582C72.7207 98.793 72.1406 98.9102 71.6133 98.9336C71.625 98.9453 71.6367 98.9688 71.6484 99.0039C71.6602 99.0391 71.6719 99.0801 71.6836 99.127C71.7773 99.3262 71.9004 99.5137 72.0527 99.6895C72.4512 100.135 72.8789 100.357 73.3359 100.357C73.7812 100.357 74.2148 100.234 74.6367 99.9883C74.8828 99.8594 75.1172 99.7246 75.3398 99.584C75.7031 99.3496 75.9141 99.2031 75.9727 99.1445C76.3242 98.8281 76.6875 98.5703 77.0625 98.3711L77.1855 98.3008C77.373 98.2656 77.5547 98.248 77.7305 98.248C77.9766 98.248 78.2402 98.3008 78.5215 98.4062C78.8145 98.5 78.9902 98.8164 79.0488 99.3555C78.9785 99.6484 78.8555 99.9238 78.6797 100.182C78.5156 100.439 78.3164 100.674 78.082 100.885C76.9922 101.869 75.75 102.566 74.3555 102.977C73.9805 103.059 73.6055 103.1 73.2305 103.1ZM71.2441 96.877C71.2676 96.877 71.2852 96.8711 71.2969 96.8594C71.4141 96.8594 71.666 96.7891 72.0527 96.6484C73.002 96.25 73.9863 95.5703 75.0059 94.6094C75.4277 94.1758 75.7617 93.7656 76.0078 93.3789C76.3828 92.6992 76.5762 92.0664 76.5879 91.4805C76.5879 91.1289 76.4824 90.7598 76.2715 90.373C76.166 90.209 76.043 90.1094 75.9023 90.0742H75.9727H75.6387H75.8848C75.7793 90.0391 75.6328 90.0215 75.4453 90.0215C75.2461 90.0449 75.1465 90.0625 75.1465 90.0742H75.6387C75.2168 90.0742 74.7188 90.2559 74.1445 90.6191C73.1133 91.3223 72.3574 92.248 71.877 93.3965C71.4551 94.3926 71.2441 95.5527 71.2441 96.877ZM96.1348 106.457C96.041 106.457 95.9531 106.451 95.8711 106.439C95.7891 106.428 95.6602 106.334 95.4844 106.158L95.3086 105.895C95.0859 105.59 94.8691 105.098 94.6582 104.418C94.6465 104.348 94.6289 104.283 94.6055 104.225C94.3711 103.334 94.1895 102.35 94.0605 101.271C94.0371 101.072 94.0254 100.879 94.0254 100.691L93.9727 100.762C93.293 101.734 92.5488 102.449 91.7402 102.906H91.7227C91.1133 103.258 90.4688 103.434 89.7891 103.434C88.7578 103.434 87.8906 103.047 87.1875 102.273C86.3203 101.359 85.8867 99.9941 85.8867 98.1777C85.9805 96.373 86.502 94.7148 87.4512 93.2031C87.9434 92.4062 88.4707 91.7676 89.0332 91.2871C89.0332 91.2285 89.3262 91.0059 89.9121 90.6191C90.7324 90.127 91.6641 89.875 92.707 89.8633C93.457 89.8633 94.0957 90.0391 94.623 90.3906C94.7402 90.4492 94.8867 90.5664 95.0625 90.7422C95.0625 90.7539 95.0684 90.7598 95.0801 90.7598C95.3613 91.0645 95.502 91.3691 95.502 91.6738C95.502 91.8262 95.4902 91.9258 95.4668 91.9727C95.4434 92.0195 95.4082 92.0723 95.3613 92.1309C95.1504 92.377 94.582 92.5 93.6562 92.5H93.4277C92.8301 92.5 92.2852 92.582 91.793 92.7461C91.1484 93.1094 90.5684 93.6836 90.0527 94.4688C89.3145 95.6992 88.9219 96.9648 88.875 98.2656C88.875 98.8047 88.957 99.2969 89.1211 99.7422C89.2969 100.246 89.5664 100.498 89.9297 100.498C90.2578 100.498 90.75 100.199 91.4062 99.6016C91.4062 99.5898 91.4121 99.584 91.4238 99.584C91.7168 99.3145 92.1504 98.8223 92.7246 98.1074L93.1113 97.6328C93.2168 97.4688 93.3281 97.3164 93.4453 97.1758C93.5625 97.0352 93.668 96.8887 93.7617 96.7363L93.9902 96.3848C93.9902 96.1973 94.0137 95.9863 94.0605 95.752C94.1074 95.4121 94.1719 95.0957 94.2539 94.8027L94.4121 94.5039C94.5293 94.2812 94.7988 94.1699 95.2207 94.1699C95.3379 94.1699 95.4902 94.1816 95.6777 94.2051C96.0996 94.2754 96.3105 94.4219 96.3105 94.6445L96.293 94.75C96.293 94.7617 96.2988 94.7734 96.3105 94.7852C96.334 94.7969 96.3691 94.8262 96.416 94.873C96.4629 94.9551 96.4863 95.0898 96.4863 95.2773L96.4688 95.7695L96.4512 97.5449C96.4512 98.4238 96.4746 99.1211 96.5215 99.6367C96.5215 99.8477 96.5566 100.316 96.627 101.043C96.7207 101.746 96.791 102.186 96.8379 102.361C96.9668 103.158 97.125 103.873 97.3125 104.506L97.3652 104.682C97.4473 104.881 97.4941 105.08 97.5059 105.279C97.5059 105.725 97.3301 106.047 96.9785 106.246C96.7207 106.387 96.4395 106.457 96.1348 106.457ZM93.4805 94.5742C93.4688 94.5625 93.4512 94.5566 93.4277 94.5566C93.416 94.5566 93.4043 94.5566 93.3926 94.5566C93.3809 94.5566 93.375 94.5508 93.375 94.5391L93.4277 94.4863C93.4395 94.4863 93.4453 94.4922 93.4453 94.5039C93.457 94.5039 93.4629 94.5156 93.4629 94.5391C93.4746 94.5508 93.4805 94.5625 93.4805 94.5742ZM100.424 88.0703C100.037 88.0703 99.6445 88.0059 99.2461 87.877C99.0352 87.6777 98.9297 87.3906 98.9297 87.0156L98.9473 86.418L98.9648 86.2949C98.9648 86.1777 98.9707 86.0664 98.9824 85.9609C98.9941 85.9141 99 85.8613 99 85.8027C99.0469 85.4629 99.2461 85.2227 99.5977 85.082C99.8789 84.9648 100.219 84.9062 100.617 84.9062C100.922 84.9062 101.197 84.9707 101.443 85.0996C101.689 85.2168 101.836 85.4102 101.883 85.6797C101.895 85.75 101.9 85.8672 101.9 86.0312C101.912 86.1836 101.918 86.4824 101.918 86.9277C101.918 87.3613 101.807 87.6777 101.584 87.877C101.209 88.0059 100.822 88.0703 100.424 88.0703ZM99.1055 111.854C98.5078 111.854 97.9629 111.742 97.4707 111.52C97.2129 111.391 96.9141 111.174 96.5742 110.869C96.2344 110.576 95.9297 110.184 95.6602 109.691L95.625 109.639C95.4727 109.299 95.3613 108.959 95.291 108.619L95.2559 108.426C95.209 108.285 95.1855 108.162 95.1855 108.057C95.1621 107.904 95.1504 107.752 95.1504 107.6C95.1504 107.4 95.1562 107.254 95.168 107.16L95.1855 107.09C95.4082 106.609 95.7363 106.369 96.1699 106.369C96.2285 106.369 96.4043 106.387 96.6973 106.422C96.9785 106.469 97.2363 106.721 97.4707 107.178C97.4707 107.213 97.4766 107.254 97.4883 107.301C97.5 107.359 97.5059 107.418 97.5059 107.477C97.5059 107.547 97.5176 107.664 97.541 107.828L97.5586 107.934C97.582 108.133 97.6289 108.309 97.6992 108.461C97.8633 108.742 97.9688 108.912 98.0156 108.971C98.0625 109.029 98.1211 109.094 98.1914 109.164C98.5781 109.469 98.877 109.621 99.0879 109.621C99.2871 109.621 99.5273 109.463 99.8086 109.146C99.9023 108.994 99.9492 108.877 99.9492 108.795C100.043 108.42 100.09 108.068 100.09 107.74C100.09 107.236 100.078 106.732 100.055 106.229C100.02 105.924 99.9785 105.613 99.9316 105.297C99.8965 104.969 99.8613 104.635 99.8262 104.295C99.791 103.943 99.75 103.598 99.7031 103.258V103.17L99.4746 101.535L99.2988 99.9004L99.2109 99.2148L99.0527 97.4746L98.8066 93.6777L98.7891 93.2031C98.7656 92.9102 98.7539 92.5586 98.7539 92.1484C98.7539 91.7617 98.7598 91.5039 98.7715 91.375C98.7949 91.2344 98.8066 91.1055 98.8066 90.9883C98.8652 90.6602 99.0469 90.4141 99.3516 90.25C99.668 90.0742 100.025 89.9805 100.424 89.9688C101.385 89.9688 101.982 90.2559 102.217 90.8301L102.322 91.3574C102.416 91.791 102.504 92.3125 102.586 92.9219L102.639 93.3438C102.838 95.0312 102.938 96.0215 102.938 96.3145C102.973 96.6309 102.996 96.9414 103.008 97.2461C103.066 97.8203 103.096 98.4004 103.096 98.9863C103.178 100.545 103.219 101.447 103.219 101.693C103.23 101.939 103.236 102.361 103.236 102.959L103.271 104.137C103.271 104.406 103.248 105.01 103.201 105.947L103.061 107.195C102.873 108.367 102.557 109.357 102.111 110.166C101.912 110.529 101.666 110.828 101.373 111.062L101.285 111.133C100.723 111.613 99.9961 111.854 99.1055 111.854ZM109.389 103.346C108.275 103.346 107.262 103.018 106.348 102.361C105.785 101.893 105.305 101.33 104.906 100.674L104.748 100.375C104.291 99.5781 103.957 98.5703 103.746 97.3516C103.699 96.918 103.664 96.4902 103.641 96.0684C103.641 95.1426 103.717 94.2988 103.869 93.5371C104.045 92.5527 104.396 91.4863 104.924 90.3379C105.369 89.4473 105.762 88.8438 106.102 88.5273C106.184 88.4688 106.295 88.4395 106.436 88.4395C106.869 88.4395 107.35 88.6387 107.877 89.0371C108.416 89.4238 108.686 89.8105 108.686 90.1973C108.686 90.3965 108.598 90.5957 108.422 90.7949C108.199 91.2988 108.012 91.8613 107.859 92.4824C107.684 93.209 107.578 93.9238 107.543 94.627L107.525 95.2246C107.525 95.8574 107.578 96.4082 107.684 96.877C107.766 97.3926 107.836 97.6797 107.895 97.7383C108.094 98.3242 108.287 98.7871 108.475 99.127C108.885 99.7832 109.342 100.111 109.846 100.111C110.291 100.111 110.848 99.8066 111.516 99.1973C111.844 98.8457 112.102 98.4883 112.289 98.125C112.523 97.7266 112.699 97.2988 112.816 96.8418C113.004 96.2324 113.098 95.6172 113.098 94.9961C113.098 94.457 113.057 93.9004 112.975 93.3262L112.957 93.2734C112.875 92.7812 112.746 92.2656 112.57 91.7266C112.371 91.0938 112.201 90.6309 112.061 90.3379L111.885 89.9688C111.768 89.7578 111.709 89.582 111.709 89.4414C111.709 89.0664 111.867 88.7559 112.184 88.5098C112.5 88.252 112.887 88.123 113.344 88.123C114.164 88.123 114.621 88.5449 114.715 89.3887L115.014 90.2324L115.277 91.1289C115.559 92.3008 115.723 93.1973 115.77 93.8184L115.822 95.0488C115.822 95.8105 115.705 96.6191 115.471 97.4746L115.189 98.3359L115.102 98.5469C114.809 99.2969 114.404 100.012 113.889 100.691C113.057 101.793 112.137 102.555 111.129 102.977C110.566 103.223 109.986 103.346 109.389 103.346ZM125.068 105.033H124.98C124.172 105.033 123.674 103.873 123.486 101.553C122.701 101.986 121.84 102.203 120.902 102.203C119.391 102.203 118.195 101.664 117.316 100.586C116.789 99.9414 116.455 99.2031 116.314 98.3711C116.232 97.9492 116.191 97.4512 116.191 96.877C116.191 95.7637 116.402 94.6504 116.824 93.5371C117.164 92.7637 117.557 92.1191 118.002 91.6035C118.986 90.5254 120.193 89.9863 121.623 89.9863C121.857 89.9863 122.092 89.998 122.326 90.0215L123.152 90.2148C123.152 89.7109 123.158 89.3008 123.17 88.9844C123.193 88.668 123.205 88.3633 123.205 88.0703C123.229 87.2969 123.293 86.3477 123.398 85.2227C123.469 84.4258 123.58 83.6582 123.732 82.9199C123.838 82.4629 123.932 82.1699 124.014 82.041C124.037 81.8887 124.102 81.7656 124.207 81.6719C124.43 81.4727 124.705 81.373 125.033 81.373C125.35 81.373 125.613 81.4961 125.824 81.7422C125.906 81.8711 125.959 82.0117 125.982 82.1641L126 82.2695C126.059 82.5273 126.1 82.791 126.123 83.0605C126.158 83.4824 126.176 84.0332 126.176 84.7129L126.158 85.3457C126.135 86.166 126.123 86.9629 126.123 87.7363C126.111 88.0293 126.105 88.4453 126.105 88.9844V93.291C126.105 93.8184 126.111 94.252 126.123 94.5918V97.3164L126.193 100.955L126.229 102.115C126.229 103.979 125.842 104.951 125.068 105.033ZM121.096 99.2148C121.143 99.2148 121.184 99.209 121.219 99.1973C121.324 99.1973 121.395 99.1914 121.43 99.1797H121.342C121.635 99.1562 122.004 99.0508 122.449 98.8633C122.52 98.8281 122.596 98.7988 122.678 98.7754C123.006 98.623 123.193 98.5234 123.24 98.4766H123.258C123.246 98.1016 123.229 97.7324 123.205 97.3691C123.158 96.4434 123.135 95.1836 123.135 93.5898V93.2559C123.111 93.2559 123.088 93.2441 123.064 93.2207C122.514 92.9043 122.016 92.7461 121.57 92.7461C121.113 92.7461 120.709 92.9277 120.357 93.291C120.041 93.6074 119.789 93.9941 119.602 94.4512C119.438 94.8379 119.355 95.1074 119.355 95.2598C119.238 95.7285 119.18 96.209 119.18 96.7012C119.18 97.1465 119.232 97.5332 119.338 97.8613C119.596 98.6348 119.994 99.0742 120.533 99.1797H121.342L121.271 99.1973L120.973 99.2148L120.604 99.1973C120.686 99.209 120.809 99.2148 120.973 99.2148H121.096ZM137.303 106.457C137.209 106.457 137.121 106.451 137.039 106.439C136.957 106.428 136.828 106.334 136.652 106.158L136.477 105.895C136.254 105.59 136.037 105.098 135.826 104.418C135.814 104.348 135.797 104.283 135.773 104.225C135.539 103.334 135.357 102.35 135.229 101.271C135.205 101.072 135.193 100.879 135.193 100.691L135.141 100.762C134.461 101.734 133.717 102.449 132.908 102.906H132.891C132.281 103.258 131.637 103.434 130.957 103.434C129.926 103.434 129.059 103.047 128.355 102.273C127.488 101.359 127.055 99.9941 127.055 98.1777C127.148 96.373 127.67 94.7148 128.619 93.2031C129.111 92.4062 129.639 91.7676 130.201 91.2871C130.201 91.2285 130.494 91.0059 131.08 90.6191C131.9 90.127 132.832 89.875 133.875 89.8633C134.625 89.8633 135.264 90.0391 135.791 90.3906C135.908 90.4492 136.055 90.5664 136.23 90.7422C136.23 90.7539 136.236 90.7598 136.248 90.7598C136.529 91.0645 136.67 91.3691 136.67 91.6738C136.67 91.8262 136.658 91.9258 136.635 91.9727C136.611 92.0195 136.576 92.0723 136.529 92.1309C136.318 92.377 135.75 92.5 134.824 92.5H134.596C133.998 92.5 133.453 92.582 132.961 92.7461C132.316 93.1094 131.736 93.6836 131.221 94.4688C130.482 95.6992 130.09 96.9648 130.043 98.2656C130.043 98.8047 130.125 99.2969 130.289 99.7422C130.465 100.246 130.734 100.498 131.098 100.498C131.426 100.498 131.918 100.199 132.574 99.6016C132.574 99.5898 132.58 99.584 132.592 99.584C132.885 99.3145 133.318 98.8223 133.893 98.1074L134.279 97.6328C134.385 97.4688 134.496 97.3164 134.613 97.1758C134.73 97.0352 134.836 96.8887 134.93 96.7363L135.158 96.3848C135.158 96.1973 135.182 95.9863 135.229 95.752C135.275 95.4121 135.34 95.0957 135.422 94.8027L135.58 94.5039C135.697 94.2812 135.967 94.1699 136.389 94.1699C136.506 94.1699 136.658 94.1816 136.846 94.2051C137.268 94.2754 137.479 94.4219 137.479 94.6445L137.461 94.75C137.461 94.7617 137.467 94.7734 137.479 94.7852C137.502 94.7969 137.537 94.8262 137.584 94.873C137.631 94.9551 137.654 95.0898 137.654 95.2773L137.637 95.7695L137.619 97.5449C137.619 98.4238 137.643 99.1211 137.689 99.6367C137.689 99.8477 137.725 100.316 137.795 101.043C137.889 101.746 137.959 102.186 138.006 102.361C138.135 103.158 138.293 103.873 138.48 104.506L138.533 104.682C138.615 104.881 138.662 105.08 138.674 105.279C138.674 105.725 138.498 106.047 138.146 106.246C137.889 106.387 137.607 106.457 137.303 106.457ZM134.648 94.5742C134.637 94.5625 134.619 94.5566 134.596 94.5566C134.584 94.5566 134.572 94.5566 134.561 94.5566C134.549 94.5566 134.543 94.5508 134.543 94.5391L134.596 94.4863C134.607 94.4863 134.613 94.4922 134.613 94.5039C134.625 94.5039 134.631 94.5156 134.631 94.5391C134.643 94.5508 134.648 94.5625 134.648 94.5742ZM142.383 102.836C142.254 102.836 142.043 102.801 141.75 102.73C141.27 102.59 140.883 101.863 140.59 100.551L140.309 99.2148L140.045 97.8613C139.975 97.5098 139.869 96.9121 139.729 96.0684C139.588 95.2715 139.471 94.4688 139.377 93.6602C139.342 93.2031 139.301 92.752 139.254 92.3066C139.148 91.041 139.078 89.9336 139.043 88.9844V88.2285C139.09 87.8535 139.277 87.5781 139.605 87.4023C139.934 87.2148 140.309 87.1211 140.73 87.1211C141.164 87.1211 141.539 87.2148 141.855 87.4023C142.184 87.5781 142.365 87.8418 142.4 88.1934C142.4 88.3223 142.406 88.4395 142.418 88.5449C142.43 88.6504 142.436 88.7617 142.436 88.8789C142.447 88.9961 142.459 89.1133 142.471 89.2305L142.523 89.7402L142.594 90.6719L142.646 90.6016C143.174 89.9219 143.684 89.4531 144.176 89.1953C144.527 89.0078 144.938 88.9141 145.406 88.9141C146.086 88.9141 146.725 89.0898 147.322 89.4414C147.896 89.8633 148.301 90.2324 148.535 90.5488C148.77 90.8535 148.998 91.2812 149.221 91.832L149.52 92.7461L149.748 93.7656C149.807 94.082 149.836 94.4277 149.836 94.8027C149.836 95.0605 149.789 95.3066 149.695 95.541C149.648 95.7285 149.537 95.8633 149.361 95.9453C149.197 96.0273 149.08 96.0977 149.01 96.1562L148.764 96.3496L147.867 96.4551C147.773 96.3848 147.686 96.332 147.604 96.2969L147.146 96.1562C147.076 96.1445 147.018 96.127 146.971 96.1035C146.936 96.0801 146.865 95.998 146.76 95.8574C146.502 95.4824 146.326 94.9434 146.232 94.2402C146.197 93.8887 146.139 93.543 146.057 93.2031L145.986 92.9043C145.811 92.1543 145.523 91.7793 145.125 91.7793C144.727 91.7793 144.275 92.1426 143.771 92.8691C143.525 93.2559 143.379 93.543 143.332 93.7305C143.168 94.0469 143.068 94.2754 143.033 94.416L142.998 94.4688C143.021 94.5625 143.033 94.6504 143.033 94.7324L143.297 96.8066L143.385 97.4219L143.473 98.1602L143.561 98.7578C143.561 98.793 143.566 98.8223 143.578 98.8457C143.754 100.076 143.842 100.92 143.842 101.377C143.783 101.939 143.566 102.344 143.191 102.59C142.934 102.754 142.664 102.836 142.383 102.836ZM154.406 100.252H154.336C153.668 100.252 153.176 99.9355 152.859 99.3027C152.812 99.1035 152.789 98.8984 152.789 98.6875C152.789 98.4414 152.824 98.0898 152.895 97.6328C152.895 97.5742 152.941 97.2402 153.035 96.6309C153.281 95.4121 153.709 94.3926 154.318 93.5723L154.389 93.4844C154.6 93.1797 154.84 92.875 155.109 92.5703L156.076 91.4805C156.158 91.3984 156.234 91.3105 156.305 91.2168L156.674 90.8125C156.768 90.6836 156.873 90.5488 156.99 90.4082C157.084 90.3145 157.172 90.2031 157.254 90.0742C157.43 89.793 157.564 89.5527 157.658 89.3535V89.3359C157.752 89.1484 157.799 89.0312 157.799 88.9844C157.834 88.9023 157.852 88.8262 157.852 88.7559V88.457C157.828 88.1055 157.723 87.7949 157.535 87.5254C157.359 87.2441 157.172 87.0273 156.973 86.875C156.41 86.3711 155.936 86.1191 155.549 86.1191C155.49 86.1191 155.344 86.1484 155.109 86.207C154.887 86.2656 154.605 86.5234 154.266 86.9805C154.031 87.2031 153.85 87.4727 153.721 87.7891L153.703 87.8242C153.551 88.1875 153.475 88.5625 153.475 88.9492V89.1777C153.475 89.5059 153.557 89.8281 153.721 90.1445C153.768 90.25 153.838 90.373 153.932 90.5137C153.99 90.6777 154.02 90.8477 154.02 91.0234C154.02 91.3047 153.914 91.6562 153.703 92.0781C153.492 92.4883 153.188 92.7578 152.789 92.8867C152.625 92.8867 152.473 92.8574 152.332 92.7988C151.98 92.6465 151.67 92.4414 151.4 92.1836C150.885 91.6211 150.539 90.9824 150.363 90.2676C150.246 89.7988 150.188 89.3711 150.188 88.9844C150.199 88.2344 150.322 87.5254 150.557 86.8574C150.686 86.5176 150.814 86.248 150.943 86.0488C150.943 86.0371 150.949 86.0312 150.961 86.0312C151.23 85.5391 151.559 85.0879 151.945 84.6777V84.6602C152.332 84.2148 152.789 83.8398 153.316 83.5352C153.902 83.207 154.5 83.043 155.109 83.043L155.742 83.0605C156.152 83.0605 156.557 83.1543 156.955 83.3418C157.74 83.6934 158.525 84.3438 159.311 85.293C159.592 85.6328 159.844 85.9961 160.066 86.3828C160.289 86.8164 160.441 87.2324 160.523 87.6309C160.594 87.9824 160.629 88.2988 160.629 88.5801L160.611 88.9141C160.518 89.6758 160.23 90.4668 159.75 91.2871C159.492 91.6973 159.287 91.9785 159.135 92.1309L159.029 92.2539C158.9 92.418 158.771 92.5762 158.643 92.7285C158.561 92.8105 158.484 92.8926 158.414 92.9746C158.355 93.0449 158.291 93.1152 158.221 93.1855C157.998 93.4082 157.775 93.6426 157.553 93.8887C157.506 93.9473 157.459 94.0059 157.412 94.0645C157.365 94.123 157.312 94.1875 157.254 94.2578C157.195 94.3281 157.131 94.3984 157.061 94.4688C156.627 94.9609 156.369 95.582 156.287 96.332C156.205 96.7305 156.152 97.1758 156.129 97.668C156.117 98.4297 156.059 98.998 155.953 99.373C155.625 99.9473 155.109 100.24 154.406 100.252ZM154.775 104.664C154.225 104.664 153.785 104.436 153.457 103.979C153.375 103.756 153.334 103.41 153.334 102.941C153.357 102.484 153.557 102.139 153.932 101.904C154.318 101.67 154.717 101.553 155.127 101.553H155.232C156.018 101.6 156.41 101.963 156.41 102.643L156.393 102.783L156.428 103.17C156.439 103.217 156.445 103.299 156.445 103.416C156.445 103.545 156.434 103.674 156.41 103.803C156.07 104.377 155.525 104.664 154.775 104.664Z" fill="black"/>
</svg>
