<svg width="255" height="259" viewBox="0 0 255 259" fill="none" xmlns="http://www.w3.org/2000/svg">
<g filter="url(#filter0_d_437_1801)">
<path d="M236.867 247.272L6.41748 240.552C10.2794 163.628 12.7229 89.0458 12.3777 12.0098L240.405 17.9221C236.771 95.6222 237.159 171.027 236.867 247.272Z" fill="#FE3D90"/>
<g filter="url(#filter1_d_437_1801)">
<path d="M236.883 246.502L6.43903 239.787C10.2956 162.857 11.1455 86.6819 10.8003 9.65112L242.02 15.5582C238.387 93.2582 237.175 170.257 236.883 246.502Z" fill="url(#paint0_linear_437_1801)"/>
</g>
<path d="M106.28 27.654C106.28 27.654 106.11 27.1971 105.903 26.5703C106.545 26.5862 106.976 26.0285 107.613 26.0391C107.725 26.5756 107.884 27.1121 108.091 27.654C107.486 27.654 106.88 27.654 106.28 27.654ZM108.091 27.654C107.884 27.1121 107.725 26.5756 107.613 26.0391C123.555 26.0391 139.502 26.5969 155.438 26.2197C155.571 26.7084 155.735 27.1918 155.932 27.654C139.985 27.654 124.038 27.654 108.091 27.654ZM155.932 27.654C155.735 27.1918 155.571 26.7084 155.438 26.2197C156.267 26.1985 157.271 26.5969 158.099 26.5597C158.195 27.1918 158.269 27.654 158.269 27.654C157.488 27.654 156.708 27.654 155.932 27.654ZM105.903 26.5703C105.61 25.6513 105.244 24.3711 105.244 23.6168C105.244 22.8465 104.877 20.2649 105.334 19.6486C106.28 18.3631 105.334 15.8664 105.334 14.6447C105.334 13.3963 106.073 11.6593 106.227 10.4162C106.381 9.14132 105.35 5.42285 105.334 4.13732C105.329 3.64329 105.499 2.84648 105.701 2.10279C106.301 2.09747 106.907 2.09747 107.512 2.09747C107.512 9.30068 106.179 19.2077 107.613 26.0391C106.976 26.0285 106.545 26.5862 105.903 26.5703ZM107.613 26.0391C106.179 19.2077 107.512 9.30068 107.512 2.09747C123.475 2.09216 139.491 2.30996 155.449 2.30996C157.472 9.44942 153.472 19.0537 155.438 26.2197C139.502 26.5969 123.555 26.0391 107.613 26.0391ZM155.438 26.2197C153.472 19.0537 157.472 9.44942 155.449 2.30996C156.229 2.30996 157.01 2.30996 157.791 2.30464C158.089 3.35113 158.285 4.44542 158.269 5.41753C158.253 6.33122 157.69 8.09483 157.754 9.00851C157.866 10.6075 158.089 13.306 158.269 14.9049C158.36 15.7018 158.253 17.6938 158.269 18.4906C158.291 19.7496 157.738 22.2356 157.754 23.4893C157.765 24.1692 157.956 25.5716 158.099 26.5597C157.271 26.5969 156.267 26.1985 155.438 26.2197ZM105.701 2.10279C105.966 1.10411 106.28 0.19043 106.28 0.19043C106.869 0.19043 107.459 0.19043 108.049 0.19043C108.049 0.195742 107.512 1.06693 107.512 2.09747C106.907 2.09747 106.301 2.09747 105.701 2.10279ZM107.512 2.09747C107.512 1.06693 108.049 0.195742 108.049 0.19043C123.613 0.19043 139.183 0.19043 154.747 0.19043C155.024 0.827882 155.236 1.55564 155.449 2.30996C139.491 2.30996 123.475 2.09216 107.512 2.09747ZM155.449 2.30996C155.236 1.55564 155.024 0.827882 154.747 0.19043C155.512 0.19043 156.272 0.19043 157.032 0.19043C157.313 0.833194 157.573 1.55564 157.791 2.30464C157.01 2.30996 156.229 2.30996 155.449 2.30996Z" fill="url(#paint1_linear_437_1801)"/>
<path d="M159.034 15.6699C158.859 14.0763 158.636 11.3777 158.524 9.77877C158.461 8.86509 159.024 7.10147 159.034 6.18779C159.05 5.21568 158.854 4.12138 158.556 3.0749C158.344 2.32589 158.078 1.60345 157.802 0.960684C157.722 0.726952 157.191 0.19043 157.032 0.19043C157.196 0.626022 157.659 1.84249 157.791 2.30465C158.089 3.35113 158.285 4.44542 158.269 5.41754C158.254 6.33122 157.69 8.09483 157.754 9.00852C157.866 10.6075 158.089 13.306 158.269 14.9049C158.36 15.7018 158.254 17.6938 158.269 18.4906C158.291 19.7496 157.738 22.2356 157.754 23.4893C157.765 24.1692 157.956 25.5716 158.099 26.5597C158.163 26.9793 158.216 27.3459 158.269 27.654C157.489 27.654 156.708 27.654 155.927 27.654C139.985 27.654 124.038 27.654 108.091 27.654C107.656 27.654 106.716 27.654 106.28 27.654C106.381 27.9568 106.636 28.2171 107.045 28.4242C107.65 28.4242 108.256 28.4242 108.862 28.4242C124.809 28.4242 140.75 28.4242 156.697 28.4242C157.478 28.4242 158.11 28.4986 158.615 28.2383C158.918 28.0949 159.003 27.7921 158.87 27.3299C158.588 26.3685 158.535 24.9395 158.524 24.2596C158.503 23.0059 159.061 20.5198 159.034 19.2609C159.024 18.4641 159.125 16.4667 159.034 15.6699Z" fill="#D4CEBF"/>
</g>
<path d="M80.1484 64.5156C80.2526 64.5156 80.3828 64.4831 80.5391 64.418L81.3594 63.9688C82.1406 63.474 82.7982 62.875 83.332 62.1719C83.8659 61.4557 84.3216 60.6875 84.6992 59.8672C86.3919 56.2995 87.2383 52.3086 87.2383 47.8945L87.2578 47.0352C87.2578 46.4492 87.2253 45.8047 87.1602 45.1016L87.1211 44.7109C87.0951 43.4479 86.8281 42.25 86.3203 41.1172L86.2617 40.9805C86.1055 40.6029 85.9557 40.4141 85.8125 40.4141C85.6823 40.4141 85.4674 40.5768 85.168 40.9023C84.3086 41.7617 83.6315 42.7448 83.1367 43.8516C81.8737 46.5729 80.9753 49.418 80.4414 52.3867C79.8945 55.5117 79.5365 58.6562 79.3672 61.8203V62.1523C79.3672 62.7904 79.4583 63.4023 79.6406 63.9883C79.7318 64.3398 79.901 64.5156 80.1484 64.5156ZM76.4375 77.9336C75.8125 77.9336 75.3242 77.25 74.9727 75.8828C74.6341 74.5156 74.3932 72.7122 74.25 70.4727C74.0938 68.2331 74.0156 65.7917 74.0156 63.1484C74.0156 58.4219 74.1589 53.793 74.4453 49.2617C74.7448 44.7174 75.0052 41.7227 75.2266 40.2773C75.2656 39.8997 75.4544 39.6849 75.793 39.6328C76.0404 39.5807 76.2878 39.5547 76.5352 39.5547C77.1732 39.5547 77.7786 39.7435 78.3516 40.1211C78.5599 40.2773 78.6641 40.4922 78.6641 40.7656C78.612 41.7812 78.4622 43.168 78.2148 44.9258C77.9154 47.0221 77.7656 48.5065 77.7656 49.3789L78.0781 48.4219C78.2604 47.849 78.4492 47.3021 78.6445 46.7812C79.5169 44.4375 80.7734 42.3216 82.4141 40.4336C83.2083 39.5091 84.0938 39.0143 85.0703 38.9492L85.4805 38.9297C86.8867 38.9297 87.9479 39.4701 88.6641 40.5508C89.849 42.5039 90.4414 45.2643 90.4414 48.832C90.4414 52.9336 89.3867 56.8398 87.2773 60.5508C85.7799 63.1159 83.5729 64.7956 80.6562 65.5898C80.3047 65.694 79.9401 65.7461 79.5625 65.7461C79.4062 65.7461 79.3021 65.7786 79.25 65.8438C79.2109 65.9089 79.1914 66.013 79.1914 66.1562L78.957 72.8164C78.944 73.7018 78.9049 74.5742 78.8398 75.4336C78.7747 76.0065 78.5273 76.5273 78.0977 76.9961C77.5898 77.556 77.0365 77.8685 76.4375 77.9336ZM95.2656 74.5938C94.8099 74.5938 94.3672 74.4896 93.9375 74.2812C93.5078 74.0729 93.1042 73.7409 92.7266 73.2852C91.9453 72.2956 91.3984 71.0326 91.0859 69.4961C90.7734 67.9466 90.6172 66.306 90.6172 64.5742C90.6172 62.5951 90.7539 60.6549 91.0273 58.7539C91.3008 56.8529 91.5938 55.2708 91.9062 54.0078L92.082 53.168C92.1471 52.9076 92.3294 52.7513 92.6289 52.6992C92.8242 52.6732 93.013 52.6602 93.1953 52.6602C93.9635 52.6602 94.6602 52.8945 95.2852 53.3633C95.4284 53.4805 95.5 53.6302 95.5 53.8125L95.4805 53.9883C95.1289 55.2773 94.8034 56.8724 94.5039 58.7734C94.2174 60.6745 94.0742 62.5885 94.0742 64.5156C94.0742 66.1172 94.224 67.6146 94.5234 69.0078C94.8229 70.401 95.3372 71.5143 96.0664 72.3477C96.1185 72.3997 96.1771 72.4258 96.2422 72.4258C96.6328 72.4258 97.3099 71.8789 98.2734 70.7852C99.237 69.6784 100.298 68.3372 101.457 66.7617C102.629 65.1862 103.749 63.6367 104.816 62.1133C105.884 60.5768 106.451 59.724 106.516 59.5547C106.893 59.0078 107.147 58.6432 107.277 58.4609C107.408 58.2786 107.609 58.1419 107.883 58.0508C108.169 57.9596 108.456 57.9141 108.742 57.9141C109.068 57.9141 109.348 57.9792 109.582 58.1094C109.686 58.2005 109.738 58.2852 109.738 58.3633C109.738 58.4154 109.719 58.474 109.68 58.5391C109.654 58.5911 109.621 58.6432 109.582 58.6953C109.348 59.0599 109.107 59.431 108.859 59.8086C108.807 60.0039 108.456 60.5833 107.805 61.5469C107.648 61.7943 107.421 62.1458 107.121 62.6016C106.691 63.2917 106.145 64.1445 105.48 65.1602C104.816 66.1628 104.074 67.2109 103.254 68.3047C102.434 69.3854 101.568 70.401 100.656 71.3516C99.7578 72.3021 98.8464 73.0768 97.9219 73.6758C97.0104 74.2878 96.125 74.5938 95.2656 74.5938ZM94.875 50.8828C94.2109 50.8568 93.638 50.6484 93.1562 50.2578C93.0391 50.1536 92.9609 50.043 92.9219 49.9258C92.8958 49.8086 92.8828 49.6849 92.8828 49.5547V49.418C92.9609 48.5586 93.1562 47.7253 93.4688 46.918C93.5208 46.7617 93.6055 46.6576 93.7227 46.6055C93.8529 46.5404 93.9896 46.5078 94.1328 46.5078H94.2305C95.0898 46.5599 95.8125 46.8529 96.3984 47.3867C96.5807 47.556 96.6719 47.7318 96.6719 47.9141C96.6719 48.0443 96.6328 48.1745 96.5547 48.3047C96.112 49.0469 95.7409 49.8086 95.4414 50.5898C95.3893 50.707 95.3112 50.7852 95.207 50.8242C95.1029 50.8633 94.9922 50.8828 94.875 50.8828ZM123.176 74.9648C121.978 74.9128 121.034 74.4701 120.344 73.6367C119.536 72.6862 119.016 71.4557 118.781 69.9453C118.599 68.7734 118.508 67.6016 118.508 66.4297C118.508 64.3203 118.749 61.3646 119.23 57.5625C119.582 54.8542 119.771 52.9987 119.797 51.9961L119.836 51.332C119.224 51.8268 118.723 52.3867 118.332 53.0117C116.704 55.4336 115.331 58.4544 114.211 62.0742C113.573 64.2357 113.033 66.4232 112.59 68.6367L112.238 70.2188C112.056 71.1172 111.802 71.9896 111.477 72.8359C111.268 73.3177 110.891 73.7148 110.344 74.0273C109.81 74.3398 109.27 74.4961 108.723 74.4961C107.954 74.4961 107.466 74.1966 107.258 73.5977C106.685 71.9961 106.398 69.4375 106.398 65.9219C106.398 61.8854 106.737 58.2721 107.414 55.082C107.492 54.6263 107.759 54.3789 108.215 54.3398L108.664 54.3203C109.276 54.3203 109.849 54.4831 110.383 54.8086C110.695 54.9909 110.852 55.2448 110.852 55.5703C110.852 55.6615 110.839 55.7591 110.812 55.8633C110.344 58.0898 110.064 60.3294 109.973 62.582L109.953 63.0703L109.934 63.8125C109.934 64.0469 109.947 64.2812 109.973 64.5156L110.363 63.0703C111.353 59.1901 112.694 55.7656 114.387 52.7969C116.184 49.7109 117.811 48.168 119.27 48.168C119.582 48.168 119.914 48.2266 120.266 48.3438C121.945 48.9167 122.857 50.0299 123 51.6836C123.039 52.1263 123.059 52.5755 123.059 53.0312C123.059 54.2292 122.883 56.2669 122.531 59.1445C122.167 62.3867 121.984 64.7956 121.984 66.3711V66.9766C121.984 68.3698 122.193 69.7174 122.609 71.0195C122.857 71.6966 123.234 72.2826 123.742 72.7773C123.859 72.8945 123.97 72.9531 124.074 72.9531C124.191 72.9531 124.309 72.875 124.426 72.7188C124.895 72.0807 125.298 71.4102 125.637 70.707C127.473 66.944 128.996 63.0508 130.207 59.0273C130.311 58.7409 130.507 58.513 130.793 58.3438C131.092 58.1615 131.392 58.0703 131.691 58.0703C131.887 58.0703 132.056 58.1159 132.199 58.207C132.355 58.2852 132.434 58.3893 132.434 58.5195C132.434 58.6107 132.421 58.7018 132.395 58.793C131.249 63.4674 129.654 67.9141 127.609 72.1328C127.154 73.0443 126.535 73.7409 125.754 74.2227C124.986 74.7174 124.126 74.9648 123.176 74.9648ZM132.688 80.3359C132.271 80.3359 131.958 80.1536 131.75 79.7891C131.398 79.2161 131.151 78.3372 131.008 77.1523C130.474 73.5456 130.207 68.8906 130.207 63.1875C130.207 58.8385 130.441 54.0729 130.91 48.8906C130.91 48.7734 130.897 48.7018 130.871 48.6758C130.845 48.6367 130.786 48.6172 130.695 48.6172L125.793 49.0273C125.298 49.0273 125.051 48.6562 125.051 47.9141C125.064 47.3281 125.142 46.918 125.285 46.6836C125.533 46.2799 127.395 45.9414 130.871 45.668C131.132 45.6419 131.275 45.5052 131.301 45.2578C131.47 43.2656 131.776 41.293 132.219 39.3398C132.297 39.0013 132.401 38.7799 132.531 38.6758C132.674 38.5586 132.928 38.5 133.293 38.5C133.957 38.5 134.53 38.6497 135.012 38.9492C135.493 39.2487 135.734 39.6133 135.734 40.043C135.734 40.2643 135.676 40.5247 135.559 40.8242C135.194 41.8789 134.953 43.1745 134.836 44.7109L134.777 45.2188C134.777 45.362 134.888 45.4336 135.109 45.4336L137.375 45.3945C140.057 45.4336 142.72 45.5052 145.363 45.6094L146.477 45.6484C146.763 45.6484 146.952 45.5768 147.043 45.4336C147.134 45.2904 147.277 45.2188 147.473 45.2188L148.254 45.1797C149.087 45.1797 149.908 45.3164 150.715 45.5898C151.145 45.707 151.359 45.9609 151.359 46.3516C151.32 46.8203 151.216 47.2174 151.047 47.543C150.891 47.8685 150.578 48.0443 150.109 48.0703C149.055 48.1224 148 48.1484 146.945 48.1484L144.758 48.1289C142.023 48.1289 139.296 48.194 136.574 48.3242C135.975 48.3633 135.383 48.3828 134.797 48.3828C134.523 48.3828 134.387 48.513 134.387 48.7734L134.367 48.9297C134.12 51.5208 133.905 54.0339 133.723 56.4688C133.54 58.9036 133.449 61.4818 133.449 64.2031C133.449 69.4635 133.768 73.8385 134.406 77.3281C134.497 77.7318 134.562 77.9596 134.602 78.0117C134.641 78.0638 134.738 78.0898 134.895 78.0898C135.285 78.0898 135.48 78.194 135.48 78.4023C135.48 78.5195 135.435 78.6497 135.344 78.793C134.732 79.7044 133.846 80.2188 132.688 80.3359ZM144.523 60.043C144.576 59.6654 144.602 59.2096 144.602 58.6758C144.602 57.6211 144.523 56.4883 144.367 55.2773C144.224 54.0534 144.048 53.2331 143.84 52.8164C143.605 53.7539 143.488 54.6784 143.488 55.5898C143.488 57.1133 143.833 58.5977 144.523 60.043ZM142.707 72.4258L142.824 72.2305C142.85 72.1784 142.87 72.1263 142.883 72.0742C142.935 71.9701 142.974 71.8659 143 71.7617C143.43 70.4206 143.736 69.0664 143.918 67.6992C144.113 66.332 144.263 64.9518 144.367 63.5586V63.5C144.367 63.4349 144.348 63.3893 144.309 63.3633C144.27 63.3242 144.217 63.2917 144.152 63.2656C143.475 62.9661 142.896 62.5365 142.414 61.9766C142.401 61.9635 142.388 61.944 142.375 61.918C142.362 61.8919 142.336 61.8659 142.297 61.8398C142.271 61.8008 142.225 61.7747 142.16 61.7617L142.121 61.8398C141.73 63.5326 141.535 65.2448 141.535 66.9766C141.535 67.5234 141.555 68.0703 141.594 68.6172C141.646 69.6198 141.848 70.5964 142.199 71.5469L142.277 71.7422C142.368 71.9896 142.512 72.2174 142.707 72.4258ZM142.062 74.3984C141.867 74.3984 141.685 74.3854 141.516 74.3594C140.773 74.2292 140.201 73.8516 139.797 73.2266C139.276 72.3932 138.957 71.5013 138.84 70.5508C138.645 69.2878 138.547 68.0312 138.547 66.7812C138.547 63.9818 139.048 61.2344 140.051 58.5391C140.181 58.2005 140.337 57.875 140.52 57.5625C140.572 57.4583 140.598 57.3542 140.598 57.25C140.598 57.1589 140.591 57.0677 140.578 56.9766C140.565 56.9245 140.559 56.8724 140.559 56.8203C140.52 56.3776 140.5 55.9414 140.5 55.5117C140.5 54.3789 140.676 53.2591 141.027 52.1523C141.158 51.7878 141.333 51.4492 141.555 51.1367C142.01 50.4857 142.661 50.1602 143.508 50.1602C143.742 50.1602 143.983 50.1797 144.23 50.2188C145.507 50.4401 146.327 51.1367 146.691 52.3086C147.004 53.3372 147.199 54.3919 147.277 55.4727C147.382 56.5794 147.434 57.6862 147.434 58.793L147.414 59.8086C147.414 60.5247 147.408 61.2409 147.395 61.957C147.395 62.0612 147.414 62.1328 147.453 62.1719C147.492 62.2109 147.564 62.237 147.668 62.25C147.941 62.263 148.208 62.2695 148.469 62.2695C149.641 62.2695 150.741 62.0807 151.77 61.7031C152.811 61.3255 153.768 60.7331 154.641 59.9258C155.07 59.5221 155.578 59.3203 156.164 59.3203C156.268 59.3203 156.366 59.3333 156.457 59.3594C156.561 59.3724 156.639 59.431 156.691 59.5352C156.704 59.5742 156.711 59.6133 156.711 59.6523C156.711 59.7174 156.691 59.776 156.652 59.8281C156.626 59.8802 156.594 59.9258 156.555 59.9648C156.529 59.9779 156.509 59.9974 156.496 60.0234C155.025 61.5339 153.254 62.543 151.184 63.0508C150.025 63.3763 148.846 63.5651 147.648 63.6172C147.505 63.6302 147.408 63.6628 147.355 63.7148C147.303 63.7669 147.277 63.8581 147.277 63.9883C147.199 66.2669 146.848 68.5065 146.223 70.707C146.014 71.3711 145.741 72.0026 145.402 72.6016C145.025 73.2396 144.517 73.6953 143.879 73.9688C143.241 74.2552 142.635 74.3984 142.062 74.3984ZM156.73 75.1992H156.633C156.372 75.1992 156.177 75.1471 156.047 75.043C155.93 74.9388 155.845 74.75 155.793 74.4766C155.441 73.0312 155.174 71.3385 154.992 69.3984C154.81 67.4453 154.719 65.4206 154.719 63.3242C154.719 60.9805 154.842 58.6953 155.09 56.4688C155.324 54.2292 155.689 52.2956 156.184 50.668C156.262 50.3685 156.372 50.1602 156.516 50.043C156.659 49.9258 156.887 49.8672 157.199 49.8672H157.297C158.013 49.8672 158.677 50.069 159.289 50.4727C159.458 50.5898 159.569 50.7201 159.621 50.8633C159.686 50.9935 159.719 51.1302 159.719 51.2734C159.719 51.4557 159.693 51.6445 159.641 51.8398C159.602 52.0612 159.562 52.2695 159.523 52.4648C159.367 53.2461 159.23 53.9753 159.113 54.6523C158.996 55.3294 158.872 56.0977 158.742 56.957C158.677 57.4779 158.632 57.9987 158.605 58.5195C158.579 58.819 158.553 59.125 158.527 59.4375H158.605C158.736 59.138 158.859 58.832 158.977 58.5195C159.133 58.1289 159.296 57.7383 159.465 57.3477C160.09 55.7721 160.923 54.3008 161.965 52.9336C162.03 52.8294 162.102 52.7383 162.18 52.6602C163.039 51.7617 163.983 51.3125 165.012 51.3125C165.962 51.3125 166.867 51.7096 167.727 52.5039C168.391 53.181 168.938 53.9427 169.367 54.7891C170.305 56.5859 171.561 58.1354 173.137 59.4375C173.254 59.5286 173.378 59.6133 173.508 59.6914C173.638 59.7695 173.762 59.8542 173.879 59.9453C174.113 60.1276 174.354 60.2188 174.602 60.2188C174.81 60.2188 175.031 60.1406 175.266 59.9844C175.539 59.8281 175.819 59.75 176.105 59.75C176.418 59.75 176.73 59.8151 177.043 59.9453C177.29 60.0365 177.414 60.1536 177.414 60.2969C177.414 60.4141 177.329 60.5443 177.16 60.6875C176.587 61.1302 175.93 61.3841 175.188 61.4492L174.68 61.4688C173.977 61.4688 173.312 61.3516 172.688 61.1172C172.062 60.8828 171.464 60.5573 170.891 60.1406C168.716 58.5651 167.004 56.5859 165.754 54.2031C165.559 53.7344 165.383 53.5 165.227 53.5C165.083 53.5 164.868 53.7148 164.582 54.1445C163.319 55.8372 162.323 57.7057 161.594 59.75C160.878 61.7943 160.35 63.8971 160.012 66.0586C159.686 68.2201 159.471 70.3294 159.367 72.3867L159.348 72.6797C159.322 72.9141 159.309 73.1419 159.309 73.3633C159.309 73.8451 159.094 74.2161 158.664 74.4766C158.104 74.9062 157.46 75.1471 156.73 75.1992ZM88.9766 147.004C89.224 147.004 89.5495 146.893 89.9531 146.672C90.3568 146.451 90.7148 146.21 91.0273 145.949C93.3841 144.087 95.2005 141.223 96.4766 137.355C96.8932 136.21 97.2057 135.031 97.4141 133.82C95.7865 135.031 94.4844 136.053 93.5078 136.887C92.2969 137.915 91.2096 139.074 90.2461 140.363C88.8789 142.212 88.1953 143.846 88.1953 145.266C88.1953 145.669 88.2604 146.06 88.3906 146.438C88.5208 146.815 88.7161 147.004 88.9766 147.004ZM88.7812 148.703C88.1693 148.703 87.5638 148.605 86.9648 148.41C85.4935 147.889 84.7578 146.75 84.7578 144.992C84.7578 144.224 84.8685 143.488 85.0898 142.785C85.3242 142.095 85.6172 141.418 85.9688 140.754C87.2839 138.41 88.9831 136.372 91.0664 134.641C93.2279 132.779 95.4805 131.04 97.8242 129.426C98.1367 129.243 98.306 128.977 98.332 128.625C98.6576 125.617 98.9049 122.603 99.0742 119.582C99.3086 115.923 99.5625 112.264 99.8359 108.605V108.469C99.8359 108.312 99.7969 108.202 99.7188 108.137C99.6536 108.072 99.5299 108.033 99.3477 108.02C97.4466 107.785 95.5521 107.668 93.6641 107.668C92.2448 107.668 90.8255 107.766 89.4062 107.961L89.25 107.98C88.9245 107.98 88.6901 107.837 88.5469 107.551C88.1172 106.978 87.9023 106.34 87.9023 105.637C87.9023 105.415 87.9089 105.298 87.9219 105.285C87.9349 105.051 88 104.888 88.1172 104.797C88.2474 104.693 88.4362 104.621 88.6836 104.582C90.2201 104.361 91.763 104.25 93.3125 104.25C94.8359 104.289 95.9167 104.322 96.5547 104.348C98.625 104.452 100.174 104.667 101.203 104.992C101.776 105.174 102.212 105.513 102.512 106.008C102.512 106.021 102.518 106.04 102.531 106.066C102.544 106.079 102.564 106.099 102.59 106.125C102.85 106.32 103.02 106.542 103.098 106.789C103.189 107.023 103.234 107.277 103.234 107.551C103.156 109.504 103.059 111.379 102.941 113.176C102.85 114.491 102.766 115.891 102.688 117.375C102.544 120.435 102.336 123.482 102.062 126.516L102.102 126.672L102.746 126.34C103.566 125.897 104.426 125.5 105.324 125.148C106.223 124.784 107.147 124.589 108.098 124.562C109.113 124.562 109.953 124.947 110.617 125.715C110.773 125.91 110.852 126.079 110.852 126.223C110.852 126.353 110.806 126.457 110.715 126.535C110.624 126.613 110.52 126.652 110.402 126.652L110.051 126.633C109.504 126.633 108.97 126.73 108.449 126.926C107.941 127.121 107.434 127.342 106.926 127.59C105.155 128.488 103.436 129.51 101.77 130.656C101.613 130.76 101.516 130.949 101.477 131.223C101.099 133.684 100.493 136.066 99.6602 138.371C98.8398 140.676 97.681 142.785 96.1836 144.699C95.207 145.923 94.0938 146.893 92.8438 147.609C91.5938 148.339 90.2396 148.703 88.7812 148.703ZM122.961 142.102C121.477 142.102 120.383 141.262 119.68 139.582C118.951 137.824 118.573 135.188 118.547 131.672L116.633 136.379C116.138 137.72 115.396 138.918 114.406 139.973C113.495 140.897 112.375 141.385 111.047 141.438C110.318 141.438 109.732 141.105 109.289 140.441C108.104 138.527 107.512 135.786 107.512 132.219C107.512 127.714 108.345 123.462 110.012 119.465C110.311 118.736 110.708 118.371 111.203 118.371C111.451 118.371 111.75 118.43 112.102 118.547C112.596 118.703 113.033 118.951 113.41 119.289C113.605 119.484 113.703 119.693 113.703 119.914C113.703 120.057 113.651 120.201 113.547 120.344C113 121.151 112.544 122.31 112.18 123.82L112.082 124.152C111.353 126.73 110.988 129.354 110.988 132.023L111.008 133.234C111.021 134.849 111.314 136.418 111.887 137.941C112.043 138.332 112.245 138.697 112.492 139.035C112.57 139.152 112.642 139.211 112.707 139.211C112.785 139.211 112.863 139.152 112.941 139.035C114.139 137.368 116.145 132.479 118.957 124.367C119.322 123.339 119.706 122.31 120.109 121.281L120.656 119.895C120.76 119.634 120.956 119.504 121.242 119.504C122.245 119.504 123.078 119.868 123.742 120.598C123.872 120.754 123.938 120.936 123.938 121.145C123.911 121.379 123.755 122.147 123.469 123.449C122.948 125.767 122.551 127.915 122.277 129.895C122.108 131.092 122.023 132.531 122.023 134.211C122.023 135.435 122.258 136.613 122.727 137.746C122.948 138.28 123.28 138.736 123.723 139.113L123.82 139.152C124.367 139.152 125.669 136.848 127.727 132.238C129.315 128.684 130.246 126.548 130.52 125.832C130.637 125.546 130.826 125.318 131.086 125.148C131.346 124.979 131.626 124.895 131.926 124.895C132.382 124.895 132.609 125.025 132.609 125.285C132.609 125.546 132.212 126.841 131.418 129.172C129.712 134.016 127.967 137.609 126.184 139.953C125.142 141.32 124.068 142.036 122.961 142.102ZM136.105 145.383C135.064 145.383 134.217 144.934 133.566 144.035C132.811 143.033 132.219 141.685 131.789 139.992C130.995 136.789 130.598 133.065 130.598 128.82C130.598 126.177 130.78 123 131.145 119.289C131.678 114.016 132.245 109.816 132.844 106.691L133.059 105.52C133.137 105.064 133.397 104.829 133.84 104.816L134.074 104.797C134.855 104.797 135.565 105.044 136.203 105.539C136.385 105.695 136.477 105.891 136.477 106.125L136.457 106.379C136.04 108.41 135.676 110.702 135.363 113.254C134.465 119.699 134.016 124.849 134.016 128.703C134.016 129.849 134.055 130.995 134.133 132.141C134.25 134.94 134.719 137.688 135.539 140.383C135.826 141.372 136.32 142.238 137.023 142.98C137.193 143.176 137.323 143.273 137.414 143.273C137.531 143.273 137.668 143.163 137.824 142.941C138.41 142.199 138.898 141.385 139.289 140.5C141.203 136.516 142.909 132.46 144.406 128.332C144.706 127.512 145.012 126.704 145.324 125.91C145.441 125.65 145.663 125.441 145.988 125.285C146.314 125.129 146.633 125.051 146.945 125.051C147.167 125.051 147.349 125.096 147.492 125.188C147.648 125.266 147.727 125.357 147.727 125.461C147.727 125.552 147.701 125.65 147.648 125.754C146.529 129.439 145.266 133.072 143.859 136.652C143.56 137.434 143.026 138.723 142.258 140.52C141.333 142.694 139.947 144.165 138.098 144.934C137.382 145.233 136.717 145.383 136.105 145.383ZM149.211 141.594C148.755 141.594 148.312 141.49 147.883 141.281C147.453 141.073 147.049 140.741 146.672 140.285C145.891 139.296 145.344 138.033 145.031 136.496C144.719 134.947 144.562 133.306 144.562 131.574C144.562 129.595 144.699 127.655 144.973 125.754C145.246 123.853 145.539 122.271 145.852 121.008L146.027 120.168C146.092 119.908 146.275 119.751 146.574 119.699C146.77 119.673 146.958 119.66 147.141 119.66C147.909 119.66 148.605 119.895 149.23 120.363C149.374 120.48 149.445 120.63 149.445 120.812L149.426 120.988C149.074 122.277 148.749 123.872 148.449 125.773C148.163 127.674 148.02 129.589 148.02 131.516C148.02 133.117 148.169 134.615 148.469 136.008C148.768 137.401 149.283 138.514 150.012 139.348C150.064 139.4 150.122 139.426 150.188 139.426C150.578 139.426 151.255 138.879 152.219 137.785C153.182 136.678 154.243 135.337 155.402 133.762C156.574 132.186 157.694 130.637 158.762 129.113C159.829 127.577 160.396 126.724 160.461 126.555C160.839 126.008 161.092 125.643 161.223 125.461C161.353 125.279 161.555 125.142 161.828 125.051C162.115 124.96 162.401 124.914 162.688 124.914C163.013 124.914 163.293 124.979 163.527 125.109C163.632 125.201 163.684 125.285 163.684 125.363C163.684 125.415 163.664 125.474 163.625 125.539C163.599 125.591 163.566 125.643 163.527 125.695C163.293 126.06 163.052 126.431 162.805 126.809C162.753 127.004 162.401 127.583 161.75 128.547C161.594 128.794 161.366 129.146 161.066 129.602C160.637 130.292 160.09 131.145 159.426 132.16C158.762 133.163 158.02 134.211 157.199 135.305C156.379 136.385 155.513 137.401 154.602 138.352C153.703 139.302 152.792 140.077 151.867 140.676C150.956 141.288 150.07 141.594 149.211 141.594ZM148.82 117.883C148.156 117.857 147.583 117.648 147.102 117.258C146.984 117.154 146.906 117.043 146.867 116.926C146.841 116.809 146.828 116.685 146.828 116.555V116.418C146.906 115.559 147.102 114.725 147.414 113.918C147.466 113.762 147.551 113.658 147.668 113.605C147.798 113.54 147.935 113.508 148.078 113.508H148.176C149.035 113.56 149.758 113.853 150.344 114.387C150.526 114.556 150.617 114.732 150.617 114.914C150.617 115.044 150.578 115.174 150.5 115.305C150.057 116.047 149.686 116.809 149.387 117.59C149.335 117.707 149.257 117.785 149.152 117.824C149.048 117.863 148.938 117.883 148.82 117.883ZM165.227 127.043C165.279 126.665 165.305 126.21 165.305 125.676C165.305 124.621 165.227 123.488 165.07 122.277C164.927 121.053 164.751 120.233 164.543 119.816C164.309 120.754 164.191 121.678 164.191 122.59C164.191 124.113 164.536 125.598 165.227 127.043ZM163.41 139.426L163.527 139.23C163.553 139.178 163.573 139.126 163.586 139.074C163.638 138.97 163.677 138.866 163.703 138.762C164.133 137.421 164.439 136.066 164.621 134.699C164.816 133.332 164.966 131.952 165.07 130.559V130.5C165.07 130.435 165.051 130.389 165.012 130.363C164.973 130.324 164.921 130.292 164.855 130.266C164.178 129.966 163.599 129.536 163.117 128.977C163.104 128.964 163.091 128.944 163.078 128.918C163.065 128.892 163.039 128.866 163 128.84C162.974 128.801 162.928 128.775 162.863 128.762L162.824 128.84C162.434 130.533 162.238 132.245 162.238 133.977C162.238 134.523 162.258 135.07 162.297 135.617C162.349 136.62 162.551 137.596 162.902 138.547L162.98 138.742C163.072 138.99 163.215 139.217 163.41 139.426ZM162.766 141.398C162.57 141.398 162.388 141.385 162.219 141.359C161.477 141.229 160.904 140.852 160.5 140.227C159.979 139.393 159.66 138.501 159.543 137.551C159.348 136.288 159.25 135.031 159.25 133.781C159.25 130.982 159.751 128.234 160.754 125.539C160.884 125.201 161.04 124.875 161.223 124.562C161.275 124.458 161.301 124.354 161.301 124.25C161.301 124.159 161.294 124.068 161.281 123.977C161.268 123.924 161.262 123.872 161.262 123.82C161.223 123.378 161.203 122.941 161.203 122.512C161.203 121.379 161.379 120.259 161.73 119.152C161.861 118.788 162.036 118.449 162.258 118.137C162.714 117.486 163.365 117.16 164.211 117.16C164.445 117.16 164.686 117.18 164.934 117.219C166.21 117.44 167.03 118.137 167.395 119.309C167.707 120.337 167.902 121.392 167.98 122.473C168.085 123.579 168.137 124.686 168.137 125.793L168.117 126.809C168.117 127.525 168.111 128.241 168.098 128.957C168.098 129.061 168.117 129.133 168.156 129.172C168.195 129.211 168.267 129.237 168.371 129.25C168.645 129.263 168.911 129.27 169.172 129.27C170.344 129.27 171.444 129.081 172.473 128.703C173.514 128.326 174.471 127.733 175.344 126.926C175.773 126.522 176.281 126.32 176.867 126.32C176.971 126.32 177.069 126.333 177.16 126.359C177.264 126.372 177.342 126.431 177.395 126.535C177.408 126.574 177.414 126.613 177.414 126.652C177.414 126.717 177.395 126.776 177.355 126.828C177.329 126.88 177.297 126.926 177.258 126.965C177.232 126.978 177.212 126.997 177.199 127.023C175.728 128.534 173.957 129.543 171.887 130.051C170.728 130.376 169.549 130.565 168.352 130.617C168.208 130.63 168.111 130.663 168.059 130.715C168.007 130.767 167.98 130.858 167.98 130.988C167.902 133.267 167.551 135.507 166.926 137.707C166.717 138.371 166.444 139.003 166.105 139.602C165.728 140.24 165.22 140.695 164.582 140.969C163.944 141.255 163.339 141.398 162.766 141.398Z" fill="black"/>
<path d="M30.1875 225.1C29.8594 225.1 29.5605 224.936 29.291 224.607C28.998 224.291 28.7871 223.945 28.6582 223.57C28.5996 223.418 28.5703 223.277 28.5703 223.148C28.5703 222.668 29.0684 222.281 30.0645 221.988C30.6387 221.789 31.1074 221.449 31.4707 220.969C32.5605 219.586 33.4688 218.086 34.1953 216.469C35.168 214.406 35.9883 212.297 36.6562 210.141C37.3359 207.973 37.916 205.781 38.3965 203.566C38.8418 201.586 39.1758 199.594 39.3984 197.59C39.4688 196.945 39.5039 196.307 39.5039 195.674C39.5039 194.607 39.3457 193.547 39.0293 192.492C38.9121 192.141 38.7539 191.807 38.5547 191.49C38.4844 191.35 38.4023 191.279 38.3086 191.279C38.2383 191.279 38.1562 191.314 38.0625 191.385C37.3242 191.924 36.7031 192.574 36.1992 193.336C34.8984 195.258 34.207 197.373 34.125 199.682C34.0547 201.088 33.9961 202.506 33.9492 203.936C33.9492 204.264 33.8965 204.504 33.791 204.656C33.6387 204.867 33.3164 204.973 32.8242 204.973C32.2617 204.973 31.8633 204.762 31.6289 204.34C31.4414 203.871 31.3184 203.391 31.2598 202.898L31.2422 202.758C31.0547 201.855 30.9609 200.941 30.9609 200.016L30.9785 199.348C31.2246 196.16 32.2734 193.465 34.125 191.262C34.3008 191.062 34.4883 190.875 34.6875 190.699C35.5195 189.879 36.457 189.469 37.5 189.469C37.9688 189.469 38.4609 189.551 38.9766 189.715C40.2891 190.125 41.2266 190.945 41.7891 192.176C42.2812 193.242 42.5449 194.35 42.5801 195.498L42.5977 196.236C42.5977 197.654 42.4043 199.33 42.0176 201.264C41.3262 205.014 40.3359 208.682 39.0469 212.268C38.4844 213.814 37.8457 215.314 37.1309 216.768C36.416 218.221 35.5605 219.609 34.5645 220.934L34.5117 221.074C35.25 221.074 35.9648 221.104 36.6562 221.162C37.2656 221.209 37.8691 221.332 38.4668 221.531C39.041 221.754 39.4512 222.117 39.6973 222.621C39.9551 223.125 40.084 223.6 40.084 224.045C40.0723 224.303 40.043 224.479 39.9961 224.572C39.9492 224.666 39.8496 224.725 39.6973 224.748C39.5332 224.748 39.416 224.666 39.3457 224.502C39.2402 224.35 39.1113 224.244 38.959 224.186C38.5957 224.057 37.9688 223.992 37.0781 223.992C36.4805 223.992 35.877 224.021 35.2676 224.08L34.5469 224.115C33.2461 224.186 31.9863 224.467 30.7676 224.959C30.5566 225.053 30.3633 225.1 30.1875 225.1ZM48.2051 224.871C47.9004 224.871 47.7422 224.66 47.7305 224.238C47.7539 220.336 47.7715 216.439 47.7832 212.549C47.7949 206.045 47.8242 199.547 47.8711 193.055L47.8887 191.947L47.8711 190.805C47.8711 190.453 48.0352 190.219 48.3633 190.102C48.7148 189.984 49.0605 189.926 49.4004 189.926C49.8105 189.926 50.209 190.008 50.5957 190.172C50.877 190.289 51.0176 190.5 51.0176 190.805V190.857C50.9707 192.838 50.9238 194.812 50.877 196.781C50.8184 199.746 50.748 202.711 50.666 205.676C50.584 208.465 50.5078 211.254 50.4375 214.043V214.236C50.4141 215.619 50.3789 217.008 50.332 218.402C50.2852 219.785 50.25 221.174 50.2266 222.568C50.1914 222.943 49.9863 223.377 49.6113 223.869C49.248 224.361 48.8672 224.678 48.4688 224.818C48.3633 224.854 48.2754 224.871 48.2051 224.871ZM63.5508 208.752H63.498C63.0645 208.717 62.6309 208.699 62.1973 208.699C61.7637 208.699 61.3301 208.705 60.8965 208.717C60.4629 208.74 60.0293 208.752 59.5957 208.752H59.3672C58.9922 208.729 58.6758 208.564 58.418 208.26C58.1719 207.955 58.0488 207.627 58.0488 207.275C58.0488 207.064 58.1016 206.865 58.207 206.678C58.3008 206.537 58.418 206.438 58.5586 206.379C58.6992 206.32 58.8457 206.279 58.998 206.256C59.0215 206.244 59.0449 206.238 59.0684 206.238C59.4785 206.18 59.877 206.15 60.2637 206.15C60.5566 206.15 60.8379 206.139 61.1074 206.115L62.373 206.133C62.6777 206.133 62.9824 206.115 63.2871 206.08H63.375C63.6562 206.08 63.8555 206.227 63.9727 206.52C64.1367 206.859 64.2188 207.211 64.2188 207.574C64.2188 207.82 64.1777 208.066 64.0957 208.312C64.0371 208.605 63.8555 208.752 63.5508 208.752ZM81.3398 208.066L81.5156 207.803C82.0312 206.771 82.4121 205.693 82.6582 204.568C84.1348 198.264 84.873 195.082 84.873 195.023L84.8555 194.865C84.6445 193.893 84.2871 192.973 83.7832 192.105C83.5605 191.707 83.3379 191.508 83.1152 191.508C82.9395 191.508 82.7051 191.637 82.4121 191.895C81.7207 192.516 81.2168 193.266 80.9004 194.145C80.0098 196.441 79.5645 198.973 79.5645 201.738C79.5645 204.633 80.1562 206.742 81.3398 208.066ZM86.1035 225.205C85.6699 225.205 85.3945 225.1 85.2773 224.889C85.1602 224.678 85.1016 223.934 85.1016 222.656L85.084 219.721L85.0664 214.465C85.0664 212.801 85.0781 211.143 85.1016 209.49V206.678C84.1055 208.881 82.6465 209.982 80.7246 209.982C79.5527 209.982 78.668 209.543 78.0703 208.664C77.3438 207.598 76.8984 206.432 76.7344 205.166C76.5352 203.912 76.4355 202.67 76.4355 201.439C76.4355 198.756 76.9043 196.119 77.8418 193.529C78.7793 191.033 80.209 189.785 82.1309 189.785C82.5879 189.785 83.0684 189.855 83.5723 189.996C84.4395 190.195 85.2246 190.611 85.9277 191.244L86.1211 190.752C86.2734 190.307 86.5723 190.084 87.0176 190.084C87.6738 190.084 88.2656 190.266 88.793 190.629C89.2266 190.934 89.4551 191.297 89.4785 191.719C89.4785 191.965 89.4141 192.211 89.2852 192.457C88.9805 193.137 88.8281 193.834 88.8281 194.549V194.707L88.8105 195.111C88.6465 197.678 88.5117 200.25 88.4062 202.828C88.1719 208.406 88.0547 213.404 88.0547 217.822C88.0547 219.58 88.0781 221.35 88.125 223.131C88.125 223.752 87.9258 224.25 87.5273 224.625C87.1406 225.012 86.666 225.205 86.1035 225.205ZM99.1992 223.201C99.3516 223.201 99.5098 223.096 99.6738 222.885C100.459 222.006 100.875 220.986 100.922 219.826L100.939 219.246C100.939 218.051 100.74 216.873 100.342 215.713C99.8379 214.166 99.1875 212.654 98.3906 211.178L98.2852 211.336C98.2617 211.406 98.2383 211.482 98.2148 211.564C97.8984 212.584 97.6172 213.609 97.3711 214.641C97.125 215.672 96.9844 216.727 96.9492 217.805V218.156C96.9492 218.766 96.9961 219.363 97.0898 219.949C97.1953 220.547 97.377 221.133 97.6348 221.707C97.8574 222.258 98.2148 222.691 98.707 223.008C98.8945 223.137 99.0586 223.201 99.1992 223.201ZM100.289 208.488L100.377 208.418L100.535 208.137C101.438 206.344 102.1 204.51 102.521 202.635C102.955 200.76 103.172 198.85 103.172 196.904C103.172 196.178 103.143 195.451 103.084 194.725C103.025 193.74 102.785 192.797 102.363 191.895C102.281 191.684 102.158 191.578 101.994 191.578C101.924 191.578 101.836 191.602 101.73 191.648C101.238 191.918 100.816 192.264 100.465 192.686C99.7617 193.553 99.2461 194.514 98.918 195.568C98.4375 197.104 98.1973 198.633 98.1973 200.156C98.1973 201.797 98.4375 203.432 98.918 205.061C98.9648 205.248 99.0352 205.395 99.1289 205.5C99.2344 205.605 99.3926 205.682 99.6035 205.729C100.107 205.811 100.359 205.98 100.359 206.238C100.359 206.402 100.266 206.613 100.078 206.871C100.055 206.906 100.025 206.941 99.9902 206.977C99.9434 207.035 99.8965 207.1 99.8496 207.17C99.8145 207.229 99.7969 207.293 99.7969 207.363L99.832 207.504C99.9375 207.75 100.049 207.996 100.166 208.242C100.213 208.324 100.254 208.406 100.289 208.488ZM98.25 224.854C97.875 224.854 97.5 224.812 97.125 224.73C96.1289 224.473 95.3906 223.904 94.9102 223.025C94.3828 222.064 94.0547 221.039 93.9258 219.949C93.8672 219.434 93.8379 218.971 93.8379 218.561C93.8262 218.455 93.8203 218.355 93.8203 218.262V218.156C93.8203 216.961 93.9375 215.818 94.1719 214.729C94.418 213.639 94.6992 212.566 95.0156 211.512C95.3555 210.188 95.8535 208.922 96.5098 207.715C96.5566 207.633 96.5801 207.557 96.5801 207.486C96.5801 207.416 96.5625 207.346 96.5273 207.275C95.8008 205.506 95.3496 203.672 95.1738 201.773C95.127 201.152 95.1035 200.537 95.1035 199.928C95.1035 198.557 95.2559 197.221 95.5605 195.92C95.8652 194.607 96.3926 193.342 97.1426 192.123C97.5059 191.502 97.9688 190.951 98.5312 190.471C99.2227 189.885 99.9844 189.592 100.816 189.592C101.133 189.592 101.455 189.633 101.783 189.715C103.529 190.16 104.725 191.221 105.369 192.896C105.662 193.705 105.867 194.525 105.984 195.357C106.102 196.189 106.16 197.027 106.16 197.871C106.16 198.223 106.154 198.574 106.143 198.926C106.025 201.609 105.498 204.211 104.561 206.73C104.115 207.844 103.594 208.934 102.996 210C102.75 210.434 102.434 210.82 102.047 211.16C101.941 211.254 101.889 211.348 101.889 211.441C101.889 211.512 101.912 211.594 101.959 211.688C102.732 213.117 103.312 214.617 103.699 216.188C103.91 217.031 104.016 217.869 104.016 218.701C104.016 219.65 103.816 220.6 103.418 221.549C102.938 222.557 102.217 223.359 101.256 223.957C100.307 224.555 99.3047 224.854 98.25 224.854ZM116.004 223.201C116.156 223.201 116.314 223.096 116.479 222.885C117.264 222.006 117.68 220.986 117.727 219.826L117.744 219.246C117.744 218.051 117.545 216.873 117.146 215.713C116.643 214.166 115.992 212.654 115.195 211.178L115.09 211.336C115.066 211.406 115.043 211.482 115.02 211.564C114.703 212.584 114.422 213.609 114.176 214.641C113.93 215.672 113.789 216.727 113.754 217.805V218.156C113.754 218.766 113.801 219.363 113.895 219.949C114 220.547 114.182 221.133 114.439 221.707C114.662 222.258 115.02 222.691 115.512 223.008C115.699 223.137 115.863 223.201 116.004 223.201ZM117.094 208.488L117.182 208.418L117.34 208.137C118.242 206.344 118.904 204.51 119.326 202.635C119.76 200.76 119.977 198.85 119.977 196.904C119.977 196.178 119.947 195.451 119.889 194.725C119.83 193.74 119.59 192.797 119.168 191.895C119.086 191.684 118.963 191.578 118.799 191.578C118.729 191.578 118.641 191.602 118.535 191.648C118.043 191.918 117.621 192.264 117.27 192.686C116.566 193.553 116.051 194.514 115.723 195.568C115.242 197.104 115.002 198.633 115.002 200.156C115.002 201.797 115.242 203.432 115.723 205.061C115.77 205.248 115.84 205.395 115.934 205.5C116.039 205.605 116.197 205.682 116.408 205.729C116.912 205.811 117.164 205.98 117.164 206.238C117.164 206.402 117.07 206.613 116.883 206.871C116.859 206.906 116.83 206.941 116.795 206.977C116.748 207.035 116.701 207.1 116.654 207.17C116.619 207.229 116.602 207.293 116.602 207.363L116.637 207.504C116.742 207.75 116.854 207.996 116.971 208.242C117.018 208.324 117.059 208.406 117.094 208.488ZM115.055 224.854C114.68 224.854 114.305 224.812 113.93 224.73C112.934 224.473 112.195 223.904 111.715 223.025C111.188 222.064 110.859 221.039 110.73 219.949C110.672 219.434 110.643 218.971 110.643 218.561C110.631 218.455 110.625 218.355 110.625 218.262V218.156C110.625 216.961 110.742 215.818 110.977 214.729C111.223 213.639 111.504 212.566 111.82 211.512C112.16 210.188 112.658 208.922 113.314 207.715C113.361 207.633 113.385 207.557 113.385 207.486C113.385 207.416 113.367 207.346 113.332 207.275C112.605 205.506 112.154 203.672 111.979 201.773C111.932 201.152 111.908 200.537 111.908 199.928C111.908 198.557 112.061 197.221 112.365 195.92C112.67 194.607 113.197 193.342 113.947 192.123C114.311 191.502 114.773 190.951 115.336 190.471C116.027 189.885 116.789 189.592 117.621 189.592C117.938 189.592 118.26 189.633 118.588 189.715C120.334 190.16 121.529 191.221 122.174 192.896C122.467 193.705 122.672 194.525 122.789 195.357C122.906 196.189 122.965 197.027 122.965 197.871C122.965 198.223 122.959 198.574 122.947 198.926C122.83 201.609 122.303 204.211 121.365 206.73C120.92 207.844 120.398 208.934 119.801 210C119.555 210.434 119.238 210.82 118.852 211.16C118.746 211.254 118.693 211.348 118.693 211.441C118.693 211.512 118.717 211.594 118.764 211.688C119.537 213.117 120.117 214.617 120.504 216.188C120.715 217.031 120.82 217.869 120.82 218.701C120.82 219.65 120.621 220.6 120.223 221.549C119.742 222.557 119.021 223.359 118.061 223.957C117.111 224.555 116.109 224.854 115.055 224.854ZM132.809 223.201C132.961 223.201 133.119 223.096 133.283 222.885C134.068 222.006 134.484 220.986 134.531 219.826L134.549 219.246C134.549 218.051 134.35 216.873 133.951 215.713C133.447 214.166 132.797 212.654 132 211.178L131.895 211.336C131.871 211.406 131.848 211.482 131.824 211.564C131.508 212.584 131.227 213.609 130.98 214.641C130.734 215.672 130.594 216.727 130.559 217.805V218.156C130.559 218.766 130.605 219.363 130.699 219.949C130.805 220.547 130.986 221.133 131.244 221.707C131.467 222.258 131.824 222.691 132.316 223.008C132.504 223.137 132.668 223.201 132.809 223.201ZM133.898 208.488L133.986 208.418L134.145 208.137C135.047 206.344 135.709 204.51 136.131 202.635C136.564 200.76 136.781 198.85 136.781 196.904C136.781 196.178 136.752 195.451 136.693 194.725C136.635 193.74 136.395 192.797 135.973 191.895C135.891 191.684 135.768 191.578 135.604 191.578C135.533 191.578 135.445 191.602 135.34 191.648C134.848 191.918 134.426 192.264 134.074 192.686C133.371 193.553 132.855 194.514 132.527 195.568C132.047 197.104 131.807 198.633 131.807 200.156C131.807 201.797 132.047 203.432 132.527 205.061C132.574 205.248 132.645 205.395 132.738 205.5C132.844 205.605 133.002 205.682 133.213 205.729C133.717 205.811 133.969 205.98 133.969 206.238C133.969 206.402 133.875 206.613 133.688 206.871C133.664 206.906 133.635 206.941 133.6 206.977C133.553 207.035 133.506 207.1 133.459 207.17C133.424 207.229 133.406 207.293 133.406 207.363L133.441 207.504C133.547 207.75 133.658 207.996 133.775 208.242C133.822 208.324 133.863 208.406 133.898 208.488ZM131.859 224.854C131.484 224.854 131.109 224.812 130.734 224.73C129.738 224.473 129 223.904 128.52 223.025C127.992 222.064 127.664 221.039 127.535 219.949C127.477 219.434 127.447 218.971 127.447 218.561C127.436 218.455 127.43 218.355 127.43 218.262V218.156C127.43 216.961 127.547 215.818 127.781 214.729C128.027 213.639 128.309 212.566 128.625 211.512C128.965 210.188 129.463 208.922 130.119 207.715C130.166 207.633 130.189 207.557 130.189 207.486C130.189 207.416 130.172 207.346 130.137 207.275C129.41 205.506 128.959 203.672 128.783 201.773C128.736 201.152 128.713 200.537 128.713 199.928C128.713 198.557 128.865 197.221 129.17 195.92C129.475 194.607 130.002 193.342 130.752 192.123C131.115 191.502 131.578 190.951 132.141 190.471C132.832 189.885 133.594 189.592 134.426 189.592C134.742 189.592 135.064 189.633 135.393 189.715C137.139 190.16 138.334 191.221 138.979 192.896C139.271 193.705 139.477 194.525 139.594 195.357C139.711 196.189 139.77 197.027 139.77 197.871C139.77 198.223 139.764 198.574 139.752 198.926C139.635 201.609 139.107 204.211 138.17 206.73C137.725 207.844 137.203 208.934 136.605 210C136.359 210.434 136.043 210.82 135.656 211.16C135.551 211.254 135.498 211.348 135.498 211.441C135.498 211.512 135.521 211.594 135.568 211.688C136.342 213.117 136.922 214.617 137.309 216.188C137.52 217.031 137.625 217.869 137.625 218.701C137.625 219.65 137.426 220.6 137.027 221.549C136.547 222.557 135.826 223.359 134.865 223.957C133.916 224.555 132.914 224.854 131.859 224.854ZM149.613 223.201C149.766 223.201 149.924 223.096 150.088 222.885C150.873 222.006 151.289 220.986 151.336 219.826L151.354 219.246C151.354 218.051 151.154 216.873 150.756 215.713C150.252 214.166 149.602 212.654 148.805 211.178L148.699 211.336C148.676 211.406 148.652 211.482 148.629 211.564C148.312 212.584 148.031 213.609 147.785 214.641C147.539 215.672 147.398 216.727 147.363 217.805V218.156C147.363 218.766 147.41 219.363 147.504 219.949C147.609 220.547 147.791 221.133 148.049 221.707C148.271 222.258 148.629 222.691 149.121 223.008C149.309 223.137 149.473 223.201 149.613 223.201ZM150.703 208.488L150.791 208.418L150.949 208.137C151.852 206.344 152.514 204.51 152.936 202.635C153.369 200.76 153.586 198.85 153.586 196.904C153.586 196.178 153.557 195.451 153.498 194.725C153.439 193.74 153.199 192.797 152.777 191.895C152.695 191.684 152.572 191.578 152.408 191.578C152.338 191.578 152.25 191.602 152.145 191.648C151.652 191.918 151.23 192.264 150.879 192.686C150.176 193.553 149.66 194.514 149.332 195.568C148.852 197.104 148.611 198.633 148.611 200.156C148.611 201.797 148.852 203.432 149.332 205.061C149.379 205.248 149.449 205.395 149.543 205.5C149.648 205.605 149.807 205.682 150.018 205.729C150.521 205.811 150.773 205.98 150.773 206.238C150.773 206.402 150.68 206.613 150.492 206.871C150.469 206.906 150.439 206.941 150.404 206.977C150.357 207.035 150.311 207.1 150.264 207.17C150.229 207.229 150.211 207.293 150.211 207.363L150.246 207.504C150.352 207.75 150.463 207.996 150.58 208.242C150.627 208.324 150.668 208.406 150.703 208.488ZM148.664 224.854C148.289 224.854 147.914 224.812 147.539 224.73C146.543 224.473 145.805 223.904 145.324 223.025C144.797 222.064 144.469 221.039 144.34 219.949C144.281 219.434 144.252 218.971 144.252 218.561C144.24 218.455 144.234 218.355 144.234 218.262V218.156C144.234 216.961 144.352 215.818 144.586 214.729C144.832 213.639 145.113 212.566 145.43 211.512C145.77 210.188 146.268 208.922 146.924 207.715C146.971 207.633 146.994 207.557 146.994 207.486C146.994 207.416 146.977 207.346 146.941 207.275C146.215 205.506 145.764 203.672 145.588 201.773C145.541 201.152 145.518 200.537 145.518 199.928C145.518 198.557 145.67 197.221 145.975 195.92C146.279 194.607 146.807 193.342 147.557 192.123C147.92 191.502 148.383 190.951 148.945 190.471C149.637 189.885 150.398 189.592 151.23 189.592C151.547 189.592 151.869 189.633 152.197 189.715C153.943 190.16 155.139 191.221 155.783 192.896C156.076 193.705 156.281 194.525 156.398 195.357C156.516 196.189 156.574 197.027 156.574 197.871C156.574 198.223 156.568 198.574 156.557 198.926C156.439 201.609 155.912 204.211 154.975 206.73C154.529 207.844 154.008 208.934 153.41 210C153.164 210.434 152.848 210.82 152.461 211.16C152.355 211.254 152.303 211.348 152.303 211.441C152.303 211.512 152.326 211.594 152.373 211.688C153.146 213.117 153.727 214.617 154.113 216.188C154.324 217.031 154.43 217.869 154.43 218.701C154.43 219.65 154.23 220.6 153.832 221.549C153.352 222.557 152.631 223.359 151.67 223.957C150.721 224.555 149.719 224.854 148.664 224.854ZM167.543 208.752H167.49C167.057 208.717 166.623 208.699 166.189 208.699C165.756 208.699 165.322 208.705 164.889 208.717C164.455 208.74 164.021 208.752 163.588 208.752H163.359C162.984 208.729 162.668 208.564 162.41 208.26C162.164 207.955 162.041 207.627 162.041 207.275C162.041 207.064 162.094 206.865 162.199 206.678C162.293 206.537 162.41 206.438 162.551 206.379C162.691 206.32 162.838 206.279 162.99 206.256C163.014 206.244 163.037 206.238 163.061 206.238C163.471 206.18 163.869 206.15 164.256 206.15C164.549 206.15 164.83 206.139 165.1 206.115L166.365 206.133C166.67 206.133 166.975 206.115 167.279 206.08H167.367C167.648 206.08 167.848 206.227 167.965 206.52C168.129 206.859 168.211 207.211 168.211 207.574C168.211 207.82 168.17 208.066 168.088 208.312C168.029 208.605 167.848 208.752 167.543 208.752ZM176.438 223.201C176.59 223.201 176.748 223.096 176.912 222.885C177.697 222.006 178.113 220.986 178.16 219.826L178.178 219.246C178.178 218.051 177.979 216.873 177.58 215.713C177.076 214.166 176.426 212.654 175.629 211.178L175.523 211.336C175.5 211.406 175.477 211.482 175.453 211.564C175.137 212.584 174.855 213.609 174.609 214.641C174.363 215.672 174.223 216.727 174.188 217.805V218.156C174.188 218.766 174.234 219.363 174.328 219.949C174.434 220.547 174.615 221.133 174.873 221.707C175.096 222.258 175.453 222.691 175.945 223.008C176.133 223.137 176.297 223.201 176.438 223.201ZM177.527 208.488L177.615 208.418L177.773 208.137C178.676 206.344 179.338 204.51 179.76 202.635C180.193 200.76 180.41 198.85 180.41 196.904C180.41 196.178 180.381 195.451 180.322 194.725C180.264 193.74 180.023 192.797 179.602 191.895C179.52 191.684 179.396 191.578 179.232 191.578C179.162 191.578 179.074 191.602 178.969 191.648C178.477 191.918 178.055 192.264 177.703 192.686C177 193.553 176.484 194.514 176.156 195.568C175.676 197.104 175.436 198.633 175.436 200.156C175.436 201.797 175.676 203.432 176.156 205.061C176.203 205.248 176.273 205.395 176.367 205.5C176.473 205.605 176.631 205.682 176.842 205.729C177.346 205.811 177.598 205.98 177.598 206.238C177.598 206.402 177.504 206.613 177.316 206.871C177.293 206.906 177.264 206.941 177.229 206.977C177.182 207.035 177.135 207.1 177.088 207.17C177.053 207.229 177.035 207.293 177.035 207.363L177.07 207.504C177.176 207.75 177.287 207.996 177.404 208.242C177.451 208.324 177.492 208.406 177.527 208.488ZM175.488 224.854C175.113 224.854 174.738 224.812 174.363 224.73C173.367 224.473 172.629 223.904 172.148 223.025C171.621 222.064 171.293 221.039 171.164 219.949C171.105 219.434 171.076 218.971 171.076 218.561C171.064 218.455 171.059 218.355 171.059 218.262V218.156C171.059 216.961 171.176 215.818 171.41 214.729C171.656 213.639 171.938 212.566 172.254 211.512C172.594 210.188 173.092 208.922 173.748 207.715C173.795 207.633 173.818 207.557 173.818 207.486C173.818 207.416 173.801 207.346 173.766 207.275C173.039 205.506 172.588 203.672 172.412 201.773C172.365 201.152 172.342 200.537 172.342 199.928C172.342 198.557 172.494 197.221 172.799 195.92C173.104 194.607 173.631 193.342 174.381 192.123C174.744 191.502 175.207 190.951 175.77 190.471C176.461 189.885 177.223 189.592 178.055 189.592C178.371 189.592 178.693 189.633 179.021 189.715C180.768 190.16 181.963 191.221 182.607 192.896C182.9 193.705 183.105 194.525 183.223 195.357C183.34 196.189 183.398 197.027 183.398 197.871C183.398 198.223 183.393 198.574 183.381 198.926C183.264 201.609 182.736 204.211 181.799 206.73C181.354 207.844 180.832 208.934 180.234 210C179.988 210.434 179.672 210.82 179.285 211.16C179.18 211.254 179.127 211.348 179.127 211.441C179.127 211.512 179.15 211.594 179.197 211.688C179.971 213.117 180.551 214.617 180.938 216.188C181.148 217.031 181.254 217.869 181.254 218.701C181.254 219.65 181.055 220.6 180.656 221.549C180.176 222.557 179.455 223.359 178.494 223.957C177.545 224.555 176.543 224.854 175.488 224.854ZM193.242 223.201C193.395 223.201 193.553 223.096 193.717 222.885C194.502 222.006 194.918 220.986 194.965 219.826L194.982 219.246C194.982 218.051 194.783 216.873 194.385 215.713C193.881 214.166 193.23 212.654 192.434 211.178L192.328 211.336C192.305 211.406 192.281 211.482 192.258 211.564C191.941 212.584 191.66 213.609 191.414 214.641C191.168 215.672 191.027 216.727 190.992 217.805V218.156C190.992 218.766 191.039 219.363 191.133 219.949C191.238 220.547 191.42 221.133 191.678 221.707C191.9 222.258 192.258 222.691 192.75 223.008C192.938 223.137 193.102 223.201 193.242 223.201ZM194.332 208.488L194.42 208.418L194.578 208.137C195.48 206.344 196.143 204.51 196.564 202.635C196.998 200.76 197.215 198.85 197.215 196.904C197.215 196.178 197.186 195.451 197.127 194.725C197.068 193.74 196.828 192.797 196.406 191.895C196.324 191.684 196.201 191.578 196.037 191.578C195.967 191.578 195.879 191.602 195.773 191.648C195.281 191.918 194.859 192.264 194.508 192.686C193.805 193.553 193.289 194.514 192.961 195.568C192.48 197.104 192.24 198.633 192.24 200.156C192.24 201.797 192.48 203.432 192.961 205.061C193.008 205.248 193.078 205.395 193.172 205.5C193.277 205.605 193.436 205.682 193.646 205.729C194.15 205.811 194.402 205.98 194.402 206.238C194.402 206.402 194.309 206.613 194.121 206.871C194.098 206.906 194.068 206.941 194.033 206.977C193.986 207.035 193.939 207.1 193.893 207.17C193.857 207.229 193.84 207.293 193.84 207.363L193.875 207.504C193.98 207.75 194.092 207.996 194.209 208.242C194.256 208.324 194.297 208.406 194.332 208.488ZM192.293 224.854C191.918 224.854 191.543 224.812 191.168 224.73C190.172 224.473 189.434 223.904 188.953 223.025C188.426 222.064 188.098 221.039 187.969 219.949C187.91 219.434 187.881 218.971 187.881 218.561C187.869 218.455 187.863 218.355 187.863 218.262V218.156C187.863 216.961 187.98 215.818 188.215 214.729C188.461 213.639 188.742 212.566 189.059 211.512C189.398 210.188 189.896 208.922 190.553 207.715C190.6 207.633 190.623 207.557 190.623 207.486C190.623 207.416 190.605 207.346 190.57 207.275C189.844 205.506 189.393 203.672 189.217 201.773C189.17 201.152 189.146 200.537 189.146 199.928C189.146 198.557 189.299 197.221 189.604 195.92C189.908 194.607 190.436 193.342 191.186 192.123C191.549 191.502 192.012 190.951 192.574 190.471C193.266 189.885 194.027 189.592 194.859 189.592C195.176 189.592 195.498 189.633 195.826 189.715C197.572 190.16 198.768 191.221 199.412 192.896C199.705 193.705 199.91 194.525 200.027 195.357C200.145 196.189 200.203 197.027 200.203 197.871C200.203 198.223 200.197 198.574 200.186 198.926C200.068 201.609 199.541 204.211 198.604 206.73C198.158 207.844 197.637 208.934 197.039 210C196.793 210.434 196.477 210.82 196.09 211.16C195.984 211.254 195.932 211.348 195.932 211.441C195.932 211.512 195.955 211.594 196.002 211.688C196.775 213.117 197.355 214.617 197.742 216.188C197.953 217.031 198.059 217.869 198.059 218.701C198.059 219.65 197.859 220.6 197.461 221.549C196.98 222.557 196.26 223.359 195.299 223.957C194.35 224.555 193.348 224.854 192.293 224.854ZM210.047 223.201C210.199 223.201 210.357 223.096 210.521 222.885C211.307 222.006 211.723 220.986 211.77 219.826L211.787 219.246C211.787 218.051 211.588 216.873 211.189 215.713C210.686 214.166 210.035 212.654 209.238 211.178L209.133 211.336C209.109 211.406 209.086 211.482 209.062 211.564C208.746 212.584 208.465 213.609 208.219 214.641C207.973 215.672 207.832 216.727 207.797 217.805V218.156C207.797 218.766 207.844 219.363 207.938 219.949C208.043 220.547 208.225 221.133 208.482 221.707C208.705 222.258 209.062 222.691 209.555 223.008C209.742 223.137 209.906 223.201 210.047 223.201ZM211.137 208.488L211.225 208.418L211.383 208.137C212.285 206.344 212.947 204.51 213.369 202.635C213.803 200.76 214.02 198.85 214.02 196.904C214.02 196.178 213.99 195.451 213.932 194.725C213.873 193.74 213.633 192.797 213.211 191.895C213.129 191.684 213.006 191.578 212.842 191.578C212.771 191.578 212.684 191.602 212.578 191.648C212.086 191.918 211.664 192.264 211.312 192.686C210.609 193.553 210.094 194.514 209.766 195.568C209.285 197.104 209.045 198.633 209.045 200.156C209.045 201.797 209.285 203.432 209.766 205.061C209.812 205.248 209.883 205.395 209.977 205.5C210.082 205.605 210.24 205.682 210.451 205.729C210.955 205.811 211.207 205.98 211.207 206.238C211.207 206.402 211.113 206.613 210.926 206.871C210.902 206.906 210.873 206.941 210.838 206.977C210.791 207.035 210.744 207.1 210.697 207.17C210.662 207.229 210.645 207.293 210.645 207.363L210.68 207.504C210.785 207.75 210.896 207.996 211.014 208.242C211.061 208.324 211.102 208.406 211.137 208.488ZM209.098 224.854C208.723 224.854 208.348 224.812 207.973 224.73C206.977 224.473 206.238 223.904 205.758 223.025C205.23 222.064 204.902 221.039 204.773 219.949C204.715 219.434 204.686 218.971 204.686 218.561C204.674 218.455 204.668 218.355 204.668 218.262V218.156C204.668 216.961 204.785 215.818 205.02 214.729C205.266 213.639 205.547 212.566 205.863 211.512C206.203 210.188 206.701 208.922 207.357 207.715C207.404 207.633 207.428 207.557 207.428 207.486C207.428 207.416 207.41 207.346 207.375 207.275C206.648 205.506 206.197 203.672 206.021 201.773C205.975 201.152 205.951 200.537 205.951 199.928C205.951 198.557 206.104 197.221 206.408 195.92C206.713 194.607 207.24 193.342 207.99 192.123C208.354 191.502 208.816 190.951 209.379 190.471C210.07 189.885 210.832 189.592 211.664 189.592C211.98 189.592 212.303 189.633 212.631 189.715C214.377 190.16 215.572 191.221 216.217 192.896C216.51 193.705 216.715 194.525 216.832 195.357C216.949 196.189 217.008 197.027 217.008 197.871C217.008 198.223 217.002 198.574 216.99 198.926C216.873 201.609 216.346 204.211 215.408 206.73C214.963 207.844 214.441 208.934 213.844 210C213.598 210.434 213.281 210.82 212.895 211.16C212.789 211.254 212.736 211.348 212.736 211.441C212.736 211.512 212.76 211.594 212.807 211.688C213.58 213.117 214.16 214.617 214.547 216.188C214.758 217.031 214.863 217.869 214.863 218.701C214.863 219.65 214.664 220.6 214.266 221.549C213.785 222.557 213.064 223.359 212.104 223.957C211.154 224.555 210.152 224.854 209.098 224.854ZM226.852 223.201C227.004 223.201 227.162 223.096 227.326 222.885C228.111 222.006 228.527 220.986 228.574 219.826L228.592 219.246C228.592 218.051 228.393 216.873 227.994 215.713C227.49 214.166 226.84 212.654 226.043 211.178L225.938 211.336C225.914 211.406 225.891 211.482 225.867 211.564C225.551 212.584 225.27 213.609 225.023 214.641C224.777 215.672 224.637 216.727 224.602 217.805V218.156C224.602 218.766 224.648 219.363 224.742 219.949C224.848 220.547 225.029 221.133 225.287 221.707C225.51 222.258 225.867 222.691 226.359 223.008C226.547 223.137 226.711 223.201 226.852 223.201ZM227.941 208.488L228.029 208.418L228.188 208.137C229.09 206.344 229.752 204.51 230.174 202.635C230.607 200.76 230.824 198.85 230.824 196.904C230.824 196.178 230.795 195.451 230.736 194.725C230.678 193.74 230.438 192.797 230.016 191.895C229.934 191.684 229.811 191.578 229.646 191.578C229.576 191.578 229.488 191.602 229.383 191.648C228.891 191.918 228.469 192.264 228.117 192.686C227.414 193.553 226.898 194.514 226.57 195.568C226.09 197.104 225.85 198.633 225.85 200.156C225.85 201.797 226.09 203.432 226.57 205.061C226.617 205.248 226.688 205.395 226.781 205.5C226.887 205.605 227.045 205.682 227.256 205.729C227.76 205.811 228.012 205.98 228.012 206.238C228.012 206.402 227.918 206.613 227.73 206.871C227.707 206.906 227.678 206.941 227.643 206.977C227.596 207.035 227.549 207.1 227.502 207.17C227.467 207.229 227.449 207.293 227.449 207.363L227.484 207.504C227.59 207.75 227.701 207.996 227.818 208.242C227.865 208.324 227.906 208.406 227.941 208.488ZM225.902 224.854C225.527 224.854 225.152 224.812 224.777 224.73C223.781 224.473 223.043 223.904 222.562 223.025C222.035 222.064 221.707 221.039 221.578 219.949C221.52 219.434 221.49 218.971 221.49 218.561C221.479 218.455 221.473 218.355 221.473 218.262V218.156C221.473 216.961 221.59 215.818 221.824 214.729C222.07 213.639 222.352 212.566 222.668 211.512C223.008 210.188 223.506 208.922 224.162 207.715C224.209 207.633 224.232 207.557 224.232 207.486C224.232 207.416 224.215 207.346 224.18 207.275C223.453 205.506 223.002 203.672 222.826 201.773C222.779 201.152 222.756 200.537 222.756 199.928C222.756 198.557 222.908 197.221 223.213 195.92C223.518 194.607 224.045 193.342 224.795 192.123C225.158 191.502 225.621 190.951 226.184 190.471C226.875 189.885 227.637 189.592 228.469 189.592C228.785 189.592 229.107 189.633 229.436 189.715C231.182 190.16 232.377 191.221 233.021 192.896C233.314 193.705 233.52 194.525 233.637 195.357C233.754 196.189 233.812 197.027 233.812 197.871C233.812 198.223 233.807 198.574 233.795 198.926C233.678 201.609 233.15 204.211 232.213 206.73C231.768 207.844 231.246 208.934 230.648 210C230.402 210.434 230.086 210.82 229.699 211.16C229.594 211.254 229.541 211.348 229.541 211.441C229.541 211.512 229.564 211.594 229.611 211.688C230.385 213.117 230.965 214.617 231.352 216.188C231.562 217.031 231.668 217.869 231.668 218.701C231.668 219.65 231.469 220.6 231.07 221.549C230.59 222.557 229.869 223.359 228.908 223.957C227.959 224.555 226.957 224.854 225.902 224.854Z" fill="black"/>
<defs>
<filter id="filter0_d_437_1801" x="6.41748" y="0.19043" width="243.603" height="255.082" filterUnits="userSpaceOnUse" color-interpolation-filters="sRGB">
<feFlood flood-opacity="0" result="BackgroundImageFix"/>
<feColorMatrix in="SourceAlpha" type="matrix" values="0 0 0 0 0 0 0 0 0 0 0 0 0 0 0 0 0 0 127 0" result="hardAlpha"/>
<feOffset dx="4" dy="4"/>
<feGaussianBlur stdDeviation="2"/>
<feComposite in2="hardAlpha" operator="out"/>
<feColorMatrix type="matrix" values="0 0 0 0 0 0 0 0 0 0 0 0 0 0 0 0 0 0 0.25 0"/>
<feBlend mode="normal" in2="BackgroundImageFix" result="effect1_dropShadow_437_1801"/>
<feBlend mode="normal" in="SourceGraphic" in2="effect1_dropShadow_437_1801" result="shape"/>
</filter>
<filter id="filter1_d_437_1801" x="6.43903" y="9.65112" width="247.581" height="248.851" filterUnits="userSpaceOnUse" color-interpolation-filters="sRGB">
<feFlood flood-opacity="0" result="BackgroundImageFix"/>
<feColorMatrix in="SourceAlpha" type="matrix" values="0 0 0 0 0 0 0 0 0 0 0 0 0 0 0 0 0 0 127 0" result="hardAlpha"/>
<feOffset dx="8" dy="8"/>
<feGaussianBlur stdDeviation="2"/>
<feComposite in2="hardAlpha" operator="out"/>
<feColorMatrix type="matrix" values="0 0 0 0 0 0 0 0 0 0 0 0 0 0 0 0 0 0 0.25 0"/>
<feBlend mode="normal" in2="BackgroundImageFix" result="effect1_dropShadow_437_1801"/>
<feBlend mode="normal" in="SourceGraphic" in2="effect1_dropShadow_437_1801" result="shape"/>
</filter>
<linearGradient id="paint0_linear_437_1801" x1="56.0001" y1="31.9999" x2="192" y2="247" gradientUnits="userSpaceOnUse">
<stop stop-color="#FDCE04"/>
<stop offset="1" stop-color="#D1B022"/>
</linearGradient>
<linearGradient id="paint1_linear_437_1801" x1="106.497" y1="27.6561" x2="106.497" y2="27.6561" gradientUnits="userSpaceOnUse">
<stop stop-color="#F2ECDA"/>
<stop offset="1" stop-color="#F2ECDA"/>
</linearGradient>
</defs>
</svg>
