<svg width="254" height="259" viewBox="0 0 254 259" fill="none" xmlns="http://www.w3.org/2000/svg">
<g filter="url(#filter0_d_437_1802)">
<path d="M236.415 247.082L5.96533 240.362C9.82723 163.437 12.2708 88.8554 11.9255 11.8193L239.953 17.7317C236.319 95.4318 236.707 170.837 236.415 247.082Z" fill="#F5574E"/>
<g filter="url(#filter1_d_437_1802)">
<path d="M236.431 246.311L5.98688 239.597C9.84346 162.667 10.6934 86.4914 10.3481 9.46069L241.568 15.3677C237.934 93.0678 236.723 170.067 236.431 246.311Z" fill="url(#paint0_linear_437_1802)"/>
</g>
<path d="M105.828 27.4636C105.828 27.4636 105.658 27.0067 105.45 26.3799C106.093 26.3958 106.524 25.838 107.161 25.8487C107.273 26.3852 107.432 26.9217 107.639 27.4636C107.033 27.4636 106.428 27.4636 105.828 27.4636ZM107.639 27.4636C107.432 26.9217 107.273 26.3852 107.161 25.8487C123.103 25.8487 139.049 26.4064 154.986 26.0293C155.119 26.518 155.283 27.0014 155.48 27.4636C139.533 27.4636 123.586 27.4636 107.639 27.4636ZM155.48 27.4636C155.283 27.0014 155.119 26.518 154.986 26.0293C155.814 26.008 156.818 26.4064 157.647 26.3693C157.743 27.0014 157.817 27.4636 157.817 27.4636C157.036 27.4636 156.255 27.4636 155.48 27.4636ZM105.45 26.3799C105.158 25.4609 104.792 24.1807 104.792 23.4264C104.792 22.6561 104.425 20.0744 104.882 19.4582C105.828 18.1727 104.882 15.676 104.882 14.4542C104.882 13.2059 105.62 11.4688 105.774 10.2258C105.929 8.95089 104.898 5.23242 104.882 3.94689C104.877 3.45286 105.047 2.65605 105.249 1.91236C105.849 1.90704 106.454 1.90704 107.06 1.90704C107.06 9.11025 105.727 19.0173 107.161 25.8487C106.524 25.838 106.093 26.3958 105.45 26.3799ZM107.161 25.8487C105.727 19.0173 107.06 9.11025 107.06 1.90704C123.023 1.90173 139.039 2.11953 154.996 2.11953C157.02 9.25899 153.02 18.8633 154.986 26.0293C139.049 26.4064 123.103 25.8487 107.161 25.8487ZM154.986 26.0293C153.02 18.8633 157.02 9.25899 154.996 2.11953C155.777 2.11953 156.558 2.11953 157.339 2.11422C157.637 3.1607 157.833 4.25499 157.817 5.22711C157.801 6.14079 157.238 7.9044 157.302 8.81808C157.413 10.417 157.637 13.1156 157.817 14.7145C157.907 15.5113 157.801 17.5034 157.817 18.3002C157.838 19.5591 157.286 22.0452 157.302 23.2989C157.312 23.9788 157.504 25.3812 157.647 26.3693C156.818 26.4064 155.814 26.008 154.986 26.0293ZM105.249 1.91236C105.514 0.913681 105.828 0 105.828 0C106.417 0 107.007 0 107.597 0C107.597 0.0053121 107.06 0.876496 107.06 1.90704C106.454 1.90704 105.849 1.90704 105.249 1.91236ZM107.06 1.90704C107.06 0.876496 107.597 0.0053121 107.597 0C123.161 0 138.731 0 154.295 0C154.571 0.637452 154.784 1.36521 154.996 2.11953C139.039 2.11953 123.023 1.90173 107.06 1.90704ZM154.996 2.11953C154.784 1.36521 154.571 0.637452 154.295 0C155.06 0 155.82 0 156.579 0C156.861 0.642764 157.121 1.36521 157.339 2.11422C156.558 2.11953 155.777 2.11953 154.996 2.11953Z" fill="url(#paint1_linear_437_1802)"/>
<path d="M158.582 15.4795C158.407 13.8858 158.184 11.1873 158.072 9.58834C158.009 8.67466 158.572 6.91104 158.582 5.99736C158.598 5.02525 158.402 3.93095 158.104 2.88447C157.892 2.13546 157.626 1.41302 157.35 0.770254C157.27 0.536522 156.739 0 156.58 0C156.744 0.435592 157.206 1.65206 157.339 2.11422C157.637 3.1607 157.833 4.25499 157.817 5.22711C157.801 6.14079 157.238 7.9044 157.302 8.81809C157.414 10.417 157.637 13.1156 157.817 14.7145C157.908 15.5113 157.801 17.5034 157.817 18.3002C157.839 19.5592 157.286 22.0452 157.302 23.2989C157.313 23.9788 157.504 25.3812 157.647 26.3693C157.711 26.7889 157.764 27.1555 157.817 27.4636C157.036 27.4636 156.256 27.4636 155.475 27.4636C139.533 27.4636 123.586 27.4636 107.639 27.4636C107.204 27.4636 106.263 27.4636 105.828 27.4636C105.929 27.7663 106.184 28.0266 106.593 28.2338C107.198 28.2338 107.804 28.2338 108.41 28.2338C124.356 28.2338 140.298 28.2338 156.245 28.2338C157.026 28.2338 157.658 28.3082 158.163 28.0479C158.465 27.9045 158.55 27.6017 158.418 27.1395C158.136 26.178 158.083 24.7491 158.072 24.0691C158.051 22.8155 158.609 20.3294 158.582 19.0704C158.572 18.2736 158.673 16.2763 158.582 15.4795Z" fill="#D4CEBF"/>
</g>
<defs>
<filter id="filter0_d_437_1802" x="5.96533" y="0" width="243.603" height="255.082" filterUnits="userSpaceOnUse" color-interpolation-filters="sRGB">
<feFlood flood-opacity="0" result="BackgroundImageFix"/>
<feColorMatrix in="SourceAlpha" type="matrix" values="0 0 0 0 0 0 0 0 0 0 0 0 0 0 0 0 0 0 127 0" result="hardAlpha"/>
<feOffset dx="4" dy="4"/>
<feGaussianBlur stdDeviation="2"/>
<feComposite in2="hardAlpha" operator="out"/>
<feColorMatrix type="matrix" values="0 0 0 0 0 0 0 0 0 0 0 0 0 0 0 0 0 0 0.25 0"/>
<feBlend mode="normal" in2="BackgroundImageFix" result="effect1_dropShadow_437_1802"/>
<feBlend mode="normal" in="SourceGraphic" in2="effect1_dropShadow_437_1802" result="shape"/>
</filter>
<filter id="filter1_d_437_1802" x="5.98688" y="9.46069" width="247.581" height="248.85" filterUnits="userSpaceOnUse" color-interpolation-filters="sRGB">
<feFlood flood-opacity="0" result="BackgroundImageFix"/>
<feColorMatrix in="SourceAlpha" type="matrix" values="0 0 0 0 0 0 0 0 0 0 0 0 0 0 0 0 0 0 127 0" result="hardAlpha"/>
<feOffset dx="8" dy="8"/>
<feGaussianBlur stdDeviation="2"/>
<feComposite in2="hardAlpha" operator="out"/>
<feColorMatrix type="matrix" values="0 0 0 0 0 0 0 0 0 0 0 0 0 0 0 0 0 0 0.25 0"/>
<feBlend mode="normal" in2="BackgroundImageFix" result="effect1_dropShadow_437_1802"/>
<feBlend mode="normal" in="SourceGraphic" in2="effect1_dropShadow_437_1802" result="shape"/>
</filter>
<linearGradient id="paint0_linear_437_1802" x1="55.5479" y1="31.8095" x2="191.548" y2="246.81" gradientUnits="userSpaceOnUse">
<stop stop-color="#FDCE04"/>
<stop offset="1" stop-color="#D4B221"/>
</linearGradient>
<linearGradient id="paint1_linear_437_1802" x1="106.045" y1="27.4657" x2="106.045" y2="27.4657" gradientUnits="userSpaceOnUse">
<stop stop-color="#F2ECDA"/>
<stop offset="1" stop-color="#F2ECDA"/>
</linearGradient>
</defs>
</svg>
