<svg width="49" height="44" viewBox="0 0 49 44" fill="none" xmlns="http://www.w3.org/2000/svg">
<path d="M2.28662 2.77026H10.78" stroke="#9F61F0" stroke-width="2" stroke-miterlimit="10" stroke-linecap="round"/>
<path d="M10.78 2.77026L17.9667 30.7999" stroke="#9F61F0" stroke-width="2" stroke-miterlimit="10" stroke-linecap="round"/>
<path d="M19.2733 30.8H46.2233" stroke="#9F61F0" stroke-width="2" stroke-miterlimit="10" stroke-linecap="round"/>
<path d="M22.54 41.8815C25.2463 41.8815 27.44 39.6928 27.44 36.9926C27.44 34.2927 25.2463 32.1038 22.54 32.1038C19.8337 32.1038 17.64 34.2927 17.64 36.9926C17.64 39.6928 19.8337 41.8815 22.54 41.8815Z" stroke="#9F61F0" stroke-width="2" stroke-miterlimit="10" stroke-linecap="round"/>
<path d="M41.3233 41.8815C44.0294 41.8815 46.2233 39.6928 46.2233 36.9926C46.2233 34.2927 44.0294 32.1038 41.3233 32.1038C38.6171 32.1038 36.4233 34.2927 36.4233 36.9926C36.4233 39.6928 38.6171 41.8815 41.3233 41.8815Z" stroke="#9F61F0" stroke-width="2" stroke-miterlimit="10" stroke-linecap="round"/>
<path d="M41.9767 23.7926H18.4567C17.4767 23.7926 16.4967 23.1408 16.3334 22.163L13.2301 11.2445C12.9034 9.77783 13.8834 8.47412 15.3534 8.47412H44.9167C46.3867 8.47412 47.5301 9.94079 47.0401 11.2445L43.9367 22.163C43.9367 23.1408 43.1201 23.7926 41.9767 23.7926Z" stroke="#9F61F0" stroke-width="2" stroke-miterlimit="10" stroke-linecap="round"/>
</svg>
